G75*
G70*
%OFA0B0*%
%FSLAX24Y24*%
%IPPOS*%
%LPD*%
%AMOC8*
5,1,8,0,0,1.08239X$1,22.5*
%
%ADD10C,0.0000*%
%ADD11R,0.0473X0.0434*%
%ADD12R,0.0434X0.0473*%
%ADD13OC8,0.0650*%
%ADD14C,0.0860*%
%ADD15C,0.0440*%
%ADD16C,0.0500*%
%ADD17C,0.0434*%
%ADD18R,0.0434X0.0434*%
%ADD19R,0.0512X0.0434*%
%ADD20R,0.0512X0.0512*%
%ADD21R,0.0257X0.0512*%
%ADD22R,0.0350X0.0390*%
%ADD23R,0.0591X0.0749*%
%ADD24R,0.0788X0.1379*%
%ADD25R,0.0591X0.0670*%
%ADD26R,0.0552X0.0453*%
%ADD27C,0.1000*%
%ADD28C,0.0119*%
%ADD29R,0.0920X0.0520*%
%ADD30R,0.0906X0.1457*%
%ADD31C,0.0780*%
%ADD32R,0.0290X0.0540*%
%ADD33R,0.0276X0.0131*%
%ADD34R,0.0131X0.0276*%
%ADD35C,0.0059*%
%ADD36C,0.0101*%
%ADD37R,0.0355X0.0152*%
%ADD38R,0.0152X0.0355*%
%ADD39R,0.1418X0.1418*%
%ADD40C,0.0098*%
%ADD41C,0.0145*%
%ADD42R,0.0906X0.0552*%
%ADD43R,0.0394X0.0316*%
%ADD44R,0.1040X0.0440*%
%ADD45R,0.0453X0.0552*%
%ADD46R,0.0540X0.0290*%
%ADD47R,0.0316X0.0394*%
%ADD48R,0.0591X0.0178*%
%ADD49R,0.0788X0.0749*%
D10*
X000628Y000100D02*
X000628Y018996D01*
X032998Y018996D01*
X032998Y000100D01*
X000628Y000100D01*
D11*
X009393Y008200D03*
X010062Y008200D03*
X010062Y009200D03*
X009393Y009200D03*
X004462Y012100D03*
X003793Y012100D03*
X003793Y013000D03*
X004462Y013000D03*
X010393Y012900D03*
X011062Y012900D03*
X011062Y014700D03*
X010393Y014700D03*
X010393Y016700D03*
X011062Y016700D03*
X011062Y017700D03*
X010393Y017700D03*
X017693Y011950D03*
X018362Y011950D03*
X018362Y011000D03*
X017693Y011000D03*
X017693Y010100D03*
X018362Y010100D03*
X019693Y005700D03*
X020362Y005700D03*
X016762Y004800D03*
X016093Y004800D03*
X016093Y002200D03*
X016762Y002200D03*
X020293Y002200D03*
X020962Y002200D03*
X028633Y005670D03*
X029302Y005670D03*
D12*
X029968Y006835D03*
X029968Y007505D03*
X026968Y007505D03*
X025968Y007505D03*
X025968Y006835D03*
X026968Y006835D03*
X015728Y007865D03*
X015728Y008535D03*
X012728Y008535D03*
X012728Y007865D03*
X003938Y008245D03*
X003938Y008915D03*
X002038Y003815D03*
X002038Y003145D03*
X002538Y001915D03*
X001488Y001915D03*
X001488Y001245D03*
X002538Y001245D03*
X002428Y015065D03*
X001428Y015065D03*
X001428Y015735D03*
X002428Y015735D03*
X017228Y015565D03*
X018418Y015565D03*
X018418Y016235D03*
X017228Y016235D03*
D13*
X009228Y016700D03*
X008228Y016700D03*
X008228Y015700D03*
X009228Y015700D03*
X009228Y017700D03*
X008228Y017700D03*
D14*
X029731Y001100D02*
X029733Y001127D01*
X029739Y001154D01*
X029748Y001180D01*
X029761Y001204D01*
X029777Y001227D01*
X029796Y001246D01*
X029818Y001263D01*
X029842Y001277D01*
X029867Y001287D01*
X029894Y001294D01*
X029921Y001297D01*
X029949Y001296D01*
X029976Y001291D01*
X030002Y001283D01*
X030026Y001271D01*
X030049Y001255D01*
X030070Y001237D01*
X030087Y001216D01*
X030102Y001192D01*
X030113Y001167D01*
X030121Y001141D01*
X030125Y001114D01*
X030125Y001086D01*
X030121Y001059D01*
X030113Y001033D01*
X030102Y001008D01*
X030087Y000984D01*
X030070Y000963D01*
X030049Y000945D01*
X030027Y000929D01*
X030002Y000917D01*
X029976Y000909D01*
X029949Y000904D01*
X029921Y000903D01*
X029894Y000906D01*
X029867Y000913D01*
X029842Y000923D01*
X029818Y000937D01*
X029796Y000954D01*
X029777Y000973D01*
X029761Y000996D01*
X029748Y001020D01*
X029739Y001046D01*
X029733Y001073D01*
X029731Y001100D01*
D15*
X029928Y001100D03*
D16*
X000986Y018050D02*
X000988Y018073D01*
X000994Y018096D01*
X001003Y018118D01*
X001016Y018137D01*
X001032Y018154D01*
X001050Y018169D01*
X001071Y018180D01*
X001093Y018188D01*
X001116Y018192D01*
X001140Y018192D01*
X001163Y018188D01*
X001185Y018180D01*
X001206Y018169D01*
X001224Y018154D01*
X001240Y018137D01*
X001253Y018118D01*
X001262Y018096D01*
X001268Y018073D01*
X001270Y018050D01*
X001268Y018027D01*
X001262Y018004D01*
X001253Y017982D01*
X001240Y017963D01*
X001224Y017946D01*
X001206Y017931D01*
X001185Y017920D01*
X001163Y017912D01*
X001140Y017908D01*
X001116Y017908D01*
X001093Y017912D01*
X001071Y017920D01*
X001050Y017931D01*
X001032Y017946D01*
X001016Y017963D01*
X001003Y017982D01*
X000994Y018004D01*
X000988Y018027D01*
X000986Y018050D01*
D17*
X001128Y018050D03*
D18*
X003734Y014300D03*
X004521Y014300D03*
X004521Y011300D03*
X003734Y011300D03*
X010713Y009387D03*
X011343Y009387D03*
X011343Y007813D03*
X010713Y007813D03*
D19*
X010294Y015700D03*
X011161Y015700D03*
D20*
X019014Y011950D03*
X019841Y011950D03*
X019841Y011000D03*
X019014Y011000D03*
X019014Y010100D03*
X019841Y010100D03*
X019278Y015487D03*
X019278Y016313D03*
D21*
X004012Y003992D03*
X003638Y003992D03*
X003264Y003992D03*
X003264Y002968D03*
X004012Y002968D03*
D22*
X004748Y003080D03*
X005508Y003080D03*
X005128Y003880D03*
X004128Y001980D03*
X003368Y001980D03*
X003748Y001180D03*
D23*
X009458Y010200D03*
X010797Y010200D03*
D24*
X005495Y016900D03*
X003960Y016900D03*
D25*
X003976Y015400D03*
X005079Y015400D03*
X002869Y008620D03*
X001766Y008620D03*
D26*
X013775Y008564D03*
X013775Y007836D03*
X014680Y007836D03*
X014680Y008564D03*
X028015Y007534D03*
X028920Y007534D03*
X028920Y006806D03*
X028015Y006806D03*
X027580Y016636D03*
X027580Y017364D03*
X026675Y017364D03*
X026675Y016636D03*
D27*
X014478Y013200D02*
X014480Y013231D01*
X014486Y013262D01*
X014496Y013292D01*
X014509Y013320D01*
X014526Y013347D01*
X014546Y013371D01*
X014569Y013393D01*
X014594Y013411D01*
X014622Y013426D01*
X014651Y013438D01*
X014681Y013446D01*
X014712Y013450D01*
X014744Y013450D01*
X014775Y013446D01*
X014805Y013438D01*
X014834Y013426D01*
X014862Y013411D01*
X014887Y013393D01*
X014910Y013371D01*
X014930Y013347D01*
X014947Y013320D01*
X014960Y013292D01*
X014970Y013262D01*
X014976Y013231D01*
X014978Y013200D01*
X014976Y013169D01*
X014970Y013138D01*
X014960Y013108D01*
X014947Y013080D01*
X014930Y013053D01*
X014910Y013029D01*
X014887Y013007D01*
X014862Y012989D01*
X014834Y012974D01*
X014805Y012962D01*
X014775Y012954D01*
X014744Y012950D01*
X014712Y012950D01*
X014681Y012954D01*
X014651Y012962D01*
X014622Y012974D01*
X014594Y012989D01*
X014569Y013007D01*
X014546Y013029D01*
X014526Y013053D01*
X014509Y013080D01*
X014496Y013108D01*
X014486Y013138D01*
X014480Y013169D01*
X014478Y013200D01*
D28*
X013546Y013185D02*
X013330Y013185D01*
X013330Y013215D01*
X013546Y013215D01*
X013546Y013185D01*
X013546Y012988D02*
X013330Y012988D01*
X013330Y013018D01*
X013546Y013018D01*
X013546Y012988D01*
X013546Y012791D02*
X013330Y012791D01*
X013330Y012821D01*
X013546Y012821D01*
X013546Y012791D01*
X013546Y012594D02*
X013330Y012594D01*
X013330Y012624D01*
X013546Y012624D01*
X013546Y012594D01*
X013546Y012398D02*
X013330Y012398D01*
X013330Y012428D01*
X013546Y012428D01*
X013546Y012398D01*
X013546Y012201D02*
X013330Y012201D01*
X013330Y012231D01*
X013546Y012231D01*
X013546Y012201D01*
X013758Y012019D02*
X013758Y011803D01*
X013728Y011803D01*
X013728Y012019D01*
X013758Y012019D01*
X013758Y011921D02*
X013728Y011921D01*
X013955Y012019D02*
X013955Y011803D01*
X013925Y011803D01*
X013925Y012019D01*
X013955Y012019D01*
X013955Y011921D02*
X013925Y011921D01*
X014152Y012019D02*
X014152Y011803D01*
X014122Y011803D01*
X014122Y012019D01*
X014152Y012019D01*
X014152Y011921D02*
X014122Y011921D01*
X014349Y012019D02*
X014349Y011803D01*
X014319Y011803D01*
X014319Y012019D01*
X014349Y012019D01*
X014349Y011921D02*
X014319Y011921D01*
X014546Y012019D02*
X014546Y011803D01*
X014516Y011803D01*
X014516Y012019D01*
X014546Y012019D01*
X014546Y011921D02*
X014516Y011921D01*
X014743Y012019D02*
X014743Y011803D01*
X014713Y011803D01*
X014713Y012019D01*
X014743Y012019D01*
X014743Y011921D02*
X014713Y011921D01*
X014939Y012019D02*
X014939Y011803D01*
X014909Y011803D01*
X014909Y012019D01*
X014939Y012019D01*
X014939Y011921D02*
X014909Y011921D01*
X015136Y012019D02*
X015136Y011803D01*
X015106Y011803D01*
X015106Y012019D01*
X015136Y012019D01*
X015136Y011921D02*
X015106Y011921D01*
X015333Y012019D02*
X015333Y011803D01*
X015303Y011803D01*
X015303Y012019D01*
X015333Y012019D01*
X015333Y011921D02*
X015303Y011921D01*
X015530Y012019D02*
X015530Y011803D01*
X015500Y011803D01*
X015500Y012019D01*
X015530Y012019D01*
X015530Y011921D02*
X015500Y011921D01*
X015727Y012019D02*
X015727Y011803D01*
X015697Y011803D01*
X015697Y012019D01*
X015727Y012019D01*
X015727Y011921D02*
X015697Y011921D01*
X015909Y012231D02*
X016125Y012231D01*
X016125Y012201D01*
X015909Y012201D01*
X015909Y012231D01*
X015909Y012428D02*
X016125Y012428D01*
X016125Y012398D01*
X015909Y012398D01*
X015909Y012428D01*
X015909Y012624D02*
X016125Y012624D01*
X016125Y012594D01*
X015909Y012594D01*
X015909Y012624D01*
X015909Y012821D02*
X016125Y012821D01*
X016125Y012791D01*
X015909Y012791D01*
X015909Y012821D01*
X015909Y013018D02*
X016125Y013018D01*
X016125Y012988D01*
X015909Y012988D01*
X015909Y013018D01*
X015909Y013215D02*
X016125Y013215D01*
X016125Y013185D01*
X015909Y013185D01*
X015909Y013215D01*
X015909Y013412D02*
X016125Y013412D01*
X016125Y013382D01*
X015909Y013382D01*
X015909Y013412D01*
X015909Y013609D02*
X016125Y013609D01*
X016125Y013579D01*
X015909Y013579D01*
X015909Y013609D01*
X015909Y013806D02*
X016125Y013806D01*
X016125Y013776D01*
X015909Y013776D01*
X015909Y013806D01*
X015909Y014002D02*
X016125Y014002D01*
X016125Y013972D01*
X015909Y013972D01*
X015909Y014002D01*
X015909Y014199D02*
X016125Y014199D01*
X016125Y014169D01*
X015909Y014169D01*
X015909Y014199D01*
X015697Y014381D02*
X015697Y014597D01*
X015727Y014597D01*
X015727Y014381D01*
X015697Y014381D01*
X015697Y014499D02*
X015727Y014499D01*
X015500Y014597D02*
X015500Y014381D01*
X015500Y014597D02*
X015530Y014597D01*
X015530Y014381D01*
X015500Y014381D01*
X015500Y014499D02*
X015530Y014499D01*
X015303Y014597D02*
X015303Y014381D01*
X015303Y014597D02*
X015333Y014597D01*
X015333Y014381D01*
X015303Y014381D01*
X015303Y014499D02*
X015333Y014499D01*
X015106Y014597D02*
X015106Y014381D01*
X015106Y014597D02*
X015136Y014597D01*
X015136Y014381D01*
X015106Y014381D01*
X015106Y014499D02*
X015136Y014499D01*
X014909Y014597D02*
X014909Y014381D01*
X014909Y014597D02*
X014939Y014597D01*
X014939Y014381D01*
X014909Y014381D01*
X014909Y014499D02*
X014939Y014499D01*
X014713Y014597D02*
X014713Y014381D01*
X014713Y014597D02*
X014743Y014597D01*
X014743Y014381D01*
X014713Y014381D01*
X014713Y014499D02*
X014743Y014499D01*
X014516Y014597D02*
X014516Y014381D01*
X014516Y014597D02*
X014546Y014597D01*
X014546Y014381D01*
X014516Y014381D01*
X014516Y014499D02*
X014546Y014499D01*
X014319Y014597D02*
X014319Y014381D01*
X014319Y014597D02*
X014349Y014597D01*
X014349Y014381D01*
X014319Y014381D01*
X014319Y014499D02*
X014349Y014499D01*
X014122Y014597D02*
X014122Y014381D01*
X014122Y014597D02*
X014152Y014597D01*
X014152Y014381D01*
X014122Y014381D01*
X014122Y014499D02*
X014152Y014499D01*
X013925Y014597D02*
X013925Y014381D01*
X013925Y014597D02*
X013955Y014597D01*
X013955Y014381D01*
X013925Y014381D01*
X013925Y014499D02*
X013955Y014499D01*
X013728Y014597D02*
X013728Y014381D01*
X013728Y014597D02*
X013758Y014597D01*
X013758Y014381D01*
X013728Y014381D01*
X013728Y014499D02*
X013758Y014499D01*
X013546Y014169D02*
X013330Y014169D01*
X013330Y014199D01*
X013546Y014199D01*
X013546Y014169D01*
X013546Y013972D02*
X013330Y013972D01*
X013330Y014002D01*
X013546Y014002D01*
X013546Y013972D01*
X013546Y013776D02*
X013330Y013776D01*
X013330Y013806D01*
X013546Y013806D01*
X013546Y013776D01*
X013546Y013579D02*
X013330Y013579D01*
X013330Y013609D01*
X013546Y013609D01*
X013546Y013579D01*
X013546Y013382D02*
X013330Y013382D01*
X013330Y013412D01*
X013546Y013412D01*
X013546Y013382D01*
D29*
X001618Y006990D03*
X001618Y006080D03*
X001618Y005170D03*
D30*
X004058Y006080D03*
D31*
X005588Y005880D03*
X005688Y004880D03*
X005688Y006880D03*
X005588Y007880D03*
X005688Y008880D03*
X016428Y006050D03*
X017428Y005950D03*
X018428Y006050D03*
X018028Y007950D03*
X019028Y008050D03*
X020028Y007950D03*
X021028Y008050D03*
X022078Y009600D03*
X021978Y010600D03*
X022078Y011600D03*
X021978Y012600D03*
X022078Y013600D03*
X021978Y014600D03*
X022078Y015600D03*
X021978Y016600D03*
X022078Y017600D03*
X018228Y017850D03*
X017228Y017750D03*
X016228Y017850D03*
X015228Y017750D03*
X014228Y017850D03*
X013228Y017750D03*
X012228Y017850D03*
X002598Y017100D03*
X001458Y017100D03*
X017028Y008050D03*
X022078Y006000D03*
X021978Y005000D03*
X023828Y005900D03*
X023928Y004900D03*
X023828Y003900D03*
X023928Y002900D03*
X023828Y001900D03*
X023928Y000900D03*
X022078Y002000D03*
X021978Y003000D03*
X022078Y004000D03*
X019428Y001050D03*
X020428Y000950D03*
X018428Y000950D03*
X017428Y001050D03*
X016428Y000950D03*
X023928Y006900D03*
X024728Y009150D03*
X025728Y009250D03*
X026728Y009150D03*
X027728Y009250D03*
X028728Y009150D03*
X029728Y009250D03*
X030728Y009150D03*
X031728Y009250D03*
X031928Y006900D03*
X031828Y005900D03*
X031928Y004900D03*
X031828Y003900D03*
X031928Y002900D03*
X031828Y001900D03*
X031928Y000900D03*
X023728Y009250D03*
D32*
X017005Y011200D03*
X016650Y011200D03*
X012355Y010450D03*
X012000Y010450D03*
X005505Y012100D03*
X005150Y012100D03*
X005150Y013000D03*
X005505Y013000D03*
X017050Y014600D03*
X017405Y014600D03*
D33*
X017863Y004297D03*
X017863Y004100D03*
X017863Y003903D03*
X017863Y003706D03*
X017863Y003509D03*
X017863Y003313D03*
X017863Y003116D03*
X017863Y002919D03*
X019772Y002919D03*
X019772Y003116D03*
X019772Y003313D03*
X019772Y003509D03*
X019772Y003706D03*
X019772Y003903D03*
X019772Y004100D03*
X019772Y004297D03*
X027106Y004325D03*
X027106Y004128D03*
X027106Y003931D03*
X027106Y003735D03*
X027106Y003538D03*
X028661Y003538D03*
X028661Y003735D03*
X028661Y003931D03*
X028661Y004128D03*
X028661Y004325D03*
D34*
X028283Y004711D03*
X028086Y004711D03*
X027889Y004711D03*
X027693Y004711D03*
X027496Y004711D03*
X027496Y003148D03*
X027693Y003148D03*
X027889Y003148D03*
X028086Y003148D03*
X028283Y003148D03*
X019505Y002679D03*
X019308Y002679D03*
X019111Y002679D03*
X018914Y002679D03*
X018717Y002679D03*
X018520Y002679D03*
X018324Y002679D03*
X018127Y002679D03*
X018127Y004557D03*
X018324Y004557D03*
X018520Y004557D03*
X018717Y004557D03*
X018914Y004557D03*
X019111Y004557D03*
X019308Y004557D03*
X019505Y004557D03*
D35*
X027540Y004265D02*
X028222Y004265D01*
X028222Y003583D01*
X027540Y003583D01*
X027540Y004265D01*
X027540Y003641D02*
X028222Y003641D01*
X028222Y003699D02*
X027540Y003699D01*
X027540Y003757D02*
X028222Y003757D01*
X028222Y003815D02*
X027540Y003815D01*
X027540Y003873D02*
X028222Y003873D01*
X028222Y003931D02*
X027540Y003931D01*
X027540Y003989D02*
X028222Y003989D01*
X028222Y004047D02*
X027540Y004047D01*
X027540Y004105D02*
X028222Y004105D01*
X028222Y004163D02*
X027540Y004163D01*
X027540Y004221D02*
X028222Y004221D01*
D36*
X019396Y003036D02*
X018236Y003036D01*
X018236Y004196D01*
X019396Y004196D01*
X019396Y003036D01*
X019396Y003136D02*
X018236Y003136D01*
X018236Y003236D02*
X019396Y003236D01*
X019396Y003336D02*
X018236Y003336D01*
X018236Y003436D02*
X019396Y003436D01*
X019396Y003536D02*
X018236Y003536D01*
X018236Y003636D02*
X019396Y003636D01*
X019396Y003736D02*
X018236Y003736D01*
X018236Y003836D02*
X019396Y003836D01*
X019396Y003936D02*
X018236Y003936D01*
X018236Y004036D02*
X019396Y004036D01*
X019396Y004136D02*
X018236Y004136D01*
D37*
X027343Y013211D03*
X027343Y013408D03*
X027343Y013605D03*
X027343Y013802D03*
X027343Y013998D03*
X027343Y014195D03*
X027343Y014392D03*
X027343Y014589D03*
X029312Y014589D03*
X029312Y014392D03*
X029312Y014195D03*
X029312Y013998D03*
X029312Y013802D03*
X029312Y013605D03*
X029312Y013408D03*
X029312Y013211D03*
D38*
X029017Y012916D03*
X028820Y012916D03*
X028623Y012916D03*
X028426Y012916D03*
X028229Y012916D03*
X028032Y012916D03*
X027835Y012916D03*
X027639Y012916D03*
X027639Y014884D03*
X027835Y014884D03*
X028032Y014884D03*
X028229Y014884D03*
X028426Y014884D03*
X028623Y014884D03*
X028820Y014884D03*
X029017Y014884D03*
D39*
X028328Y013900D03*
D40*
X026474Y015036D02*
X026182Y015036D01*
X026474Y015036D02*
X026474Y014744D01*
X026182Y014744D01*
X026182Y015036D01*
X026182Y014841D02*
X026474Y014841D01*
X026474Y014938D02*
X026182Y014938D01*
X026182Y015035D02*
X026474Y015035D01*
X025874Y015036D02*
X025582Y015036D01*
X025874Y015036D02*
X025874Y014744D01*
X025582Y014744D01*
X025582Y015036D01*
X025582Y014841D02*
X025874Y014841D01*
X025874Y014938D02*
X025582Y014938D01*
X025582Y015035D02*
X025874Y015035D01*
X024974Y016646D02*
X024682Y016646D01*
X024974Y016646D02*
X024974Y016354D01*
X024682Y016354D01*
X024682Y016646D01*
X024682Y016451D02*
X024974Y016451D01*
X024974Y016548D02*
X024682Y016548D01*
X024682Y016645D02*
X024974Y016645D01*
X024374Y016646D02*
X024082Y016646D01*
X024374Y016646D02*
X024374Y016354D01*
X024082Y016354D01*
X024082Y016646D01*
X024082Y016451D02*
X024374Y016451D01*
X024374Y016548D02*
X024082Y016548D01*
X024082Y016645D02*
X024374Y016645D01*
D41*
X024426Y016073D02*
X024280Y016073D01*
X024426Y016073D02*
X024426Y015927D01*
X024280Y015927D01*
X024280Y016073D01*
X024280Y016071D02*
X024426Y016071D01*
X024630Y016073D02*
X024776Y016073D01*
X024776Y015927D01*
X024630Y015927D01*
X024630Y016073D01*
X024630Y016071D02*
X024776Y016071D01*
X026055Y016752D02*
X026055Y016898D01*
X026201Y016898D01*
X026201Y016752D01*
X026055Y016752D01*
X026055Y016896D02*
X026201Y016896D01*
X026055Y017102D02*
X026055Y017248D01*
X026201Y017248D01*
X026201Y017102D01*
X026055Y017102D01*
X026055Y017246D02*
X026201Y017246D01*
X028201Y017148D02*
X028201Y017002D01*
X028055Y017002D01*
X028055Y017148D01*
X028201Y017148D01*
X028201Y017146D02*
X028055Y017146D01*
X028201Y016798D02*
X028201Y016652D01*
X028055Y016652D01*
X028055Y016798D01*
X028201Y016798D01*
X028201Y016796D02*
X028055Y016796D01*
X028701Y016798D02*
X028701Y016652D01*
X028555Y016652D01*
X028555Y016798D01*
X028701Y016798D01*
X028701Y016796D02*
X028555Y016796D01*
X028701Y017002D02*
X028701Y017148D01*
X028701Y017002D02*
X028555Y017002D01*
X028555Y017148D01*
X028701Y017148D01*
X028701Y017146D02*
X028555Y017146D01*
X030101Y016748D02*
X030101Y016602D01*
X029955Y016602D01*
X029955Y016748D01*
X030101Y016748D01*
X030101Y016746D02*
X029955Y016746D01*
X030101Y016398D02*
X030101Y016252D01*
X029955Y016252D01*
X029955Y016398D01*
X030101Y016398D01*
X030101Y016396D02*
X029955Y016396D01*
X029955Y015948D02*
X029955Y015802D01*
X029955Y015948D02*
X030101Y015948D01*
X030101Y015802D01*
X029955Y015802D01*
X029955Y015946D02*
X030101Y015946D01*
X029955Y015598D02*
X029955Y015452D01*
X029955Y015598D02*
X030101Y015598D01*
X030101Y015452D01*
X029955Y015452D01*
X029955Y015596D02*
X030101Y015596D01*
X030101Y015148D02*
X030101Y015002D01*
X029955Y015002D01*
X029955Y015148D01*
X030101Y015148D01*
X030101Y015146D02*
X029955Y015146D01*
X030101Y014798D02*
X030101Y014652D01*
X029955Y014652D01*
X029955Y014798D01*
X030101Y014798D01*
X030101Y014796D02*
X029955Y014796D01*
X030101Y014348D02*
X030101Y014202D01*
X029955Y014202D01*
X029955Y014348D01*
X030101Y014348D01*
X030101Y014346D02*
X029955Y014346D01*
X030101Y013998D02*
X030101Y013852D01*
X029955Y013852D01*
X029955Y013998D01*
X030101Y013998D01*
X030101Y013996D02*
X029955Y013996D01*
X030355Y013948D02*
X030355Y013802D01*
X030355Y013948D02*
X030501Y013948D01*
X030501Y013802D01*
X030355Y013802D01*
X030355Y013946D02*
X030501Y013946D01*
X030355Y013598D02*
X030355Y013452D01*
X030355Y013598D02*
X030501Y013598D01*
X030501Y013452D01*
X030355Y013452D01*
X030355Y013596D02*
X030501Y013596D01*
X030701Y013148D02*
X030701Y013002D01*
X030555Y013002D01*
X030555Y013148D01*
X030701Y013148D01*
X030701Y013146D02*
X030555Y013146D01*
X030301Y013148D02*
X030301Y013002D01*
X030155Y013002D01*
X030155Y013148D01*
X030301Y013148D01*
X030301Y013146D02*
X030155Y013146D01*
X030301Y012798D02*
X030301Y012652D01*
X030155Y012652D01*
X030155Y012798D01*
X030301Y012798D01*
X030301Y012796D02*
X030155Y012796D01*
X030701Y012798D02*
X030701Y012652D01*
X030555Y012652D01*
X030555Y012798D01*
X030701Y012798D01*
X030701Y012796D02*
X030555Y012796D01*
X026855Y012748D02*
X026855Y012602D01*
X026855Y012748D02*
X027001Y012748D01*
X027001Y012602D01*
X026855Y012602D01*
X026855Y012746D02*
X027001Y012746D01*
X026855Y012398D02*
X026855Y012252D01*
X026855Y012398D02*
X027001Y012398D01*
X027001Y012252D01*
X026855Y012252D01*
X026855Y012396D02*
X027001Y012396D01*
X024976Y013473D02*
X024830Y013473D01*
X024976Y013473D02*
X024976Y013327D01*
X024830Y013327D01*
X024830Y013473D01*
X024830Y013471D02*
X024976Y013471D01*
X024626Y013473D02*
X024480Y013473D01*
X024626Y013473D02*
X024626Y013327D01*
X024480Y013327D01*
X024480Y013473D01*
X024480Y013471D02*
X024626Y013471D01*
X025780Y013973D02*
X025926Y013973D01*
X025926Y013827D01*
X025780Y013827D01*
X025780Y013973D01*
X025780Y013971D02*
X025926Y013971D01*
X026130Y013973D02*
X026276Y013973D01*
X026276Y013827D01*
X026130Y013827D01*
X026130Y013973D01*
X026130Y013971D02*
X026276Y013971D01*
X026276Y014373D02*
X026130Y014373D01*
X026276Y014373D02*
X026276Y014227D01*
X026130Y014227D01*
X026130Y014373D01*
X026130Y014371D02*
X026276Y014371D01*
X025926Y014373D02*
X025780Y014373D01*
X025926Y014373D02*
X025926Y014227D01*
X025780Y014227D01*
X025780Y014373D01*
X025780Y014371D02*
X025926Y014371D01*
D42*
X024728Y013972D03*
X024728Y015428D03*
D43*
X029128Y016644D03*
X029128Y017156D03*
X029028Y011156D03*
X028528Y011156D03*
X028528Y010644D03*
X029028Y010644D03*
X027428Y010644D03*
X026928Y010644D03*
X026928Y011156D03*
X027428Y011156D03*
X025628Y011156D03*
X025128Y011156D03*
X025128Y010644D03*
X025628Y010644D03*
D44*
X031588Y015850D03*
X031588Y018450D03*
D45*
X016792Y003953D03*
X016063Y003953D03*
X016063Y003047D03*
X016792Y003047D03*
D46*
X026718Y005493D03*
X026718Y005847D03*
X027718Y005847D03*
X027718Y005493D03*
D47*
X027483Y015430D03*
X026972Y015430D03*
X026283Y015430D03*
X025772Y015430D03*
D48*
X002271Y012912D03*
X002271Y012656D03*
X002271Y012400D03*
X002271Y012144D03*
X002271Y011888D03*
D49*
X001228Y010825D03*
X001228Y013975D03*
M02*
