G75*
G70*
%OFA0B0*%
%FSLAX24Y24*%
%IPPOS*%
%LPD*%
%AMOC8*
5,1,8,0,0,1.08239X$1,22.5*
%
%ADD10C,0.0000*%
%ADD11OC8,0.0650*%
%ADD12C,0.0780*%
D10*
X000628Y000100D02*
X000628Y018996D01*
X032998Y018996D01*
X032998Y000100D01*
X000628Y000100D01*
D11*
X008228Y015700D03*
X009228Y015700D03*
X009228Y016700D03*
X008228Y016700D03*
X008228Y017700D03*
X009228Y017700D03*
D12*
X012228Y017850D03*
X013228Y017750D03*
X014228Y017850D03*
X015228Y017750D03*
X016228Y017850D03*
X017228Y017750D03*
X018228Y017850D03*
X022078Y017600D03*
X021978Y016600D03*
X022078Y015600D03*
X021978Y014600D03*
X022078Y013600D03*
X021978Y012600D03*
X022078Y011600D03*
X021978Y010600D03*
X022078Y009600D03*
X023728Y009250D03*
X024728Y009150D03*
X025728Y009250D03*
X026728Y009150D03*
X027728Y009250D03*
X028728Y009150D03*
X029728Y009250D03*
X030728Y009150D03*
X031728Y009250D03*
X031928Y006900D03*
X031828Y005900D03*
X031928Y004900D03*
X031828Y003900D03*
X031928Y002900D03*
X031828Y001900D03*
X031928Y000900D03*
X023928Y000900D03*
X023828Y001900D03*
X022078Y002000D03*
X021978Y003000D03*
X022078Y004000D03*
X023828Y003900D03*
X023928Y002900D03*
X023928Y004900D03*
X023828Y005900D03*
X022078Y006000D03*
X021978Y005000D03*
X023928Y006900D03*
X021028Y008050D03*
X020028Y007950D03*
X019028Y008050D03*
X018028Y007950D03*
X017028Y008050D03*
X016428Y006050D03*
X017428Y005950D03*
X018428Y006050D03*
X019428Y001050D03*
X020428Y000950D03*
X018428Y000950D03*
X017428Y001050D03*
X016428Y000950D03*
X005688Y004880D03*
X005588Y005880D03*
X005688Y006880D03*
X005588Y007880D03*
X005688Y008880D03*
X002598Y017100D03*
X001458Y017100D03*
M02*
