G75*
G70*
%OFA0B0*%
%FSLAX24Y24*%
%IPPOS*%
%LPD*%
%AMOC8*
5,1,8,0,0,1.08239X$1,22.5*
%
%ADD10C,0.0000*%
%ADD11R,0.0433X0.0394*%
%ADD12R,0.0394X0.0433*%
%ADD13C,0.0400*%
%ADD14R,0.0394X0.0394*%
%ADD15R,0.0472X0.0394*%
%ADD16R,0.0472X0.0472*%
%ADD17R,0.0217X0.0472*%
%ADD18R,0.0310X0.0350*%
%ADD19R,0.0551X0.0709*%
%ADD20R,0.0748X0.1339*%
%ADD21R,0.0551X0.0630*%
%ADD22R,0.0512X0.0413*%
%ADD23C,0.0500*%
%ADD24C,0.0087*%
%ADD25R,0.0880X0.0480*%
%ADD26R,0.0866X0.1417*%
%ADD27R,0.0602X0.0661*%
%ADD28R,0.0063X0.0189*%
%ADD29R,0.0063X0.0193*%
%ADD30R,0.0067X0.0197*%
%ADD31R,0.0067X0.0185*%
%ADD32R,0.0071X0.0205*%
%ADD33R,0.0071X0.0209*%
%ADD34R,0.0067X0.0205*%
%ADD35R,0.0213X0.0071*%
%ADD36R,0.0209X0.0063*%
%ADD37R,0.0217X0.0071*%
%ADD38R,0.0217X0.0079*%
%ADD39R,0.0205X0.0063*%
%ADD40R,0.0201X0.0063*%
%ADD41R,0.0213X0.0063*%
%ADD42R,0.1000X0.1000*%
%ADD43R,0.0063X0.0205*%
%ADD44R,0.0063X0.0209*%
%ADD45R,0.0512X0.0512*%
%ADD46R,0.0315X0.0112*%
%ADD47R,0.0112X0.0315*%
%ADD48C,0.0088*%
%ADD49C,0.0125*%
%ADD50R,0.0866X0.0512*%
%ADD51R,0.0354X0.0276*%
%ADD52R,0.1000X0.0400*%
%ADD53R,0.0413X0.0512*%
%ADD54R,0.0276X0.0354*%
%ADD55R,0.0551X0.0138*%
%ADD56R,0.0748X0.0709*%
D10*
X000628Y000100D02*
X000628Y018996D01*
X032998Y018996D01*
X032998Y000100D01*
X000628Y000100D01*
D11*
X009393Y008200D03*
X010062Y008200D03*
X010062Y009200D03*
X009393Y009200D03*
X004462Y012100D03*
X003793Y012100D03*
X003793Y013000D03*
X004462Y013000D03*
X010393Y012900D03*
X011062Y012900D03*
X011062Y014700D03*
X010393Y014700D03*
X010393Y016700D03*
X011062Y016700D03*
X011062Y017700D03*
X010393Y017700D03*
X017693Y011950D03*
X018362Y011950D03*
X018362Y011000D03*
X017693Y011000D03*
X017693Y010100D03*
X018362Y010100D03*
X019693Y005700D03*
X020362Y005700D03*
X016762Y004800D03*
X016093Y004800D03*
X016093Y002200D03*
X016762Y002200D03*
X020293Y002200D03*
X020962Y002200D03*
X028633Y005670D03*
X029302Y005670D03*
D12*
X029968Y006835D03*
X029968Y007505D03*
X026968Y007505D03*
X025968Y007505D03*
X025968Y006835D03*
X026968Y006835D03*
X015728Y007865D03*
X015728Y008535D03*
X012728Y008535D03*
X012728Y007865D03*
X003938Y008245D03*
X003938Y008915D03*
X002038Y003815D03*
X002038Y003145D03*
X002538Y001915D03*
X001488Y001915D03*
X001488Y001245D03*
X002538Y001245D03*
X002428Y015065D03*
X001428Y015065D03*
X001428Y015735D03*
X002428Y015735D03*
X017228Y015565D03*
X018418Y015565D03*
X018418Y016235D03*
X017228Y016235D03*
D13*
X029928Y001100D03*
D14*
X011343Y007813D03*
X010713Y007813D03*
X010713Y009387D03*
X011343Y009387D03*
X004521Y011300D03*
X003734Y011300D03*
X003734Y014300D03*
X004521Y014300D03*
D15*
X010294Y015700D03*
X011161Y015700D03*
D16*
X019014Y011950D03*
X019841Y011950D03*
X019841Y011000D03*
X019014Y011000D03*
X019014Y010100D03*
X019841Y010100D03*
X019278Y015487D03*
X019278Y016313D03*
D17*
X004012Y003992D03*
X003638Y003992D03*
X003264Y003992D03*
X003264Y002968D03*
X004012Y002968D03*
D18*
X004748Y003080D03*
X005508Y003080D03*
X005128Y003880D03*
X004128Y001980D03*
X003368Y001980D03*
X003748Y001180D03*
D19*
X009458Y010200D03*
X010797Y010200D03*
D20*
X005495Y016900D03*
X003960Y016900D03*
D21*
X003976Y015400D03*
X005079Y015400D03*
X002869Y008620D03*
X001766Y008620D03*
D22*
X013775Y008564D03*
X013775Y007836D03*
X014680Y007836D03*
X014680Y008564D03*
X028015Y007534D03*
X028920Y007534D03*
X028920Y006806D03*
X028015Y006806D03*
X027580Y016636D03*
X027580Y017364D03*
X026675Y017364D03*
X026675Y016636D03*
D23*
X014478Y013200D02*
X014480Y013231D01*
X014486Y013262D01*
X014496Y013292D01*
X014509Y013320D01*
X014526Y013347D01*
X014546Y013371D01*
X014569Y013393D01*
X014594Y013411D01*
X014622Y013426D01*
X014651Y013438D01*
X014681Y013446D01*
X014712Y013450D01*
X014744Y013450D01*
X014775Y013446D01*
X014805Y013438D01*
X014834Y013426D01*
X014862Y013411D01*
X014887Y013393D01*
X014910Y013371D01*
X014930Y013347D01*
X014947Y013320D01*
X014960Y013292D01*
X014970Y013262D01*
X014976Y013231D01*
X014978Y013200D01*
X014976Y013169D01*
X014970Y013138D01*
X014960Y013108D01*
X014947Y013080D01*
X014930Y013053D01*
X014910Y013029D01*
X014887Y013007D01*
X014862Y012989D01*
X014834Y012974D01*
X014805Y012962D01*
X014775Y012954D01*
X014744Y012950D01*
X014712Y012950D01*
X014681Y012954D01*
X014651Y012962D01*
X014622Y012974D01*
X014594Y012989D01*
X014569Y013007D01*
X014546Y013029D01*
X014526Y013053D01*
X014509Y013080D01*
X014496Y013108D01*
X014486Y013138D01*
X014480Y013169D01*
X014478Y013200D01*
D24*
X013542Y013189D02*
X013334Y013189D01*
X013334Y013211D01*
X013542Y013211D01*
X013542Y013189D01*
X013542Y012992D02*
X013334Y012992D01*
X013334Y013014D01*
X013542Y013014D01*
X013542Y012992D01*
X013542Y012795D02*
X013334Y012795D01*
X013334Y012817D01*
X013542Y012817D01*
X013542Y012795D01*
X013542Y012598D02*
X013334Y012598D01*
X013334Y012620D01*
X013542Y012620D01*
X013542Y012598D01*
X013542Y012402D02*
X013334Y012402D01*
X013334Y012424D01*
X013542Y012424D01*
X013542Y012402D01*
X013542Y012205D02*
X013334Y012205D01*
X013334Y012227D01*
X013542Y012227D01*
X013542Y012205D01*
X013754Y012015D02*
X013754Y011807D01*
X013732Y011807D01*
X013732Y012015D01*
X013754Y012015D01*
X013754Y011893D02*
X013732Y011893D01*
X013732Y011979D02*
X013754Y011979D01*
X013951Y012015D02*
X013951Y011807D01*
X013929Y011807D01*
X013929Y012015D01*
X013951Y012015D01*
X013951Y011893D02*
X013929Y011893D01*
X013929Y011979D02*
X013951Y011979D01*
X014148Y012015D02*
X014148Y011807D01*
X014126Y011807D01*
X014126Y012015D01*
X014148Y012015D01*
X014148Y011893D02*
X014126Y011893D01*
X014126Y011979D02*
X014148Y011979D01*
X014345Y012015D02*
X014345Y011807D01*
X014323Y011807D01*
X014323Y012015D01*
X014345Y012015D01*
X014345Y011893D02*
X014323Y011893D01*
X014323Y011979D02*
X014345Y011979D01*
X014542Y012015D02*
X014542Y011807D01*
X014520Y011807D01*
X014520Y012015D01*
X014542Y012015D01*
X014542Y011893D02*
X014520Y011893D01*
X014520Y011979D02*
X014542Y011979D01*
X014739Y012015D02*
X014739Y011807D01*
X014717Y011807D01*
X014717Y012015D01*
X014739Y012015D01*
X014739Y011893D02*
X014717Y011893D01*
X014717Y011979D02*
X014739Y011979D01*
X014935Y012015D02*
X014935Y011807D01*
X014913Y011807D01*
X014913Y012015D01*
X014935Y012015D01*
X014935Y011893D02*
X014913Y011893D01*
X014913Y011979D02*
X014935Y011979D01*
X015132Y012015D02*
X015132Y011807D01*
X015110Y011807D01*
X015110Y012015D01*
X015132Y012015D01*
X015132Y011893D02*
X015110Y011893D01*
X015110Y011979D02*
X015132Y011979D01*
X015329Y012015D02*
X015329Y011807D01*
X015307Y011807D01*
X015307Y012015D01*
X015329Y012015D01*
X015329Y011893D02*
X015307Y011893D01*
X015307Y011979D02*
X015329Y011979D01*
X015526Y012015D02*
X015526Y011807D01*
X015504Y011807D01*
X015504Y012015D01*
X015526Y012015D01*
X015526Y011893D02*
X015504Y011893D01*
X015504Y011979D02*
X015526Y011979D01*
X015723Y012015D02*
X015723Y011807D01*
X015701Y011807D01*
X015701Y012015D01*
X015723Y012015D01*
X015723Y011893D02*
X015701Y011893D01*
X015701Y011979D02*
X015723Y011979D01*
X015913Y012227D02*
X016121Y012227D01*
X016121Y012205D01*
X015913Y012205D01*
X015913Y012227D01*
X015913Y012424D02*
X016121Y012424D01*
X016121Y012402D01*
X015913Y012402D01*
X015913Y012424D01*
X015913Y012620D02*
X016121Y012620D01*
X016121Y012598D01*
X015913Y012598D01*
X015913Y012620D01*
X015913Y012817D02*
X016121Y012817D01*
X016121Y012795D01*
X015913Y012795D01*
X015913Y012817D01*
X015913Y013014D02*
X016121Y013014D01*
X016121Y012992D01*
X015913Y012992D01*
X015913Y013014D01*
X015913Y013211D02*
X016121Y013211D01*
X016121Y013189D01*
X015913Y013189D01*
X015913Y013211D01*
X015913Y013408D02*
X016121Y013408D01*
X016121Y013386D01*
X015913Y013386D01*
X015913Y013408D01*
X015913Y013605D02*
X016121Y013605D01*
X016121Y013583D01*
X015913Y013583D01*
X015913Y013605D01*
X015913Y013802D02*
X016121Y013802D01*
X016121Y013780D01*
X015913Y013780D01*
X015913Y013802D01*
X015913Y013998D02*
X016121Y013998D01*
X016121Y013976D01*
X015913Y013976D01*
X015913Y013998D01*
X015913Y014195D02*
X016121Y014195D01*
X016121Y014173D01*
X015913Y014173D01*
X015913Y014195D01*
X015701Y014385D02*
X015701Y014593D01*
X015723Y014593D01*
X015723Y014385D01*
X015701Y014385D01*
X015701Y014471D02*
X015723Y014471D01*
X015723Y014557D02*
X015701Y014557D01*
X015504Y014593D02*
X015504Y014385D01*
X015504Y014593D02*
X015526Y014593D01*
X015526Y014385D01*
X015504Y014385D01*
X015504Y014471D02*
X015526Y014471D01*
X015526Y014557D02*
X015504Y014557D01*
X015307Y014593D02*
X015307Y014385D01*
X015307Y014593D02*
X015329Y014593D01*
X015329Y014385D01*
X015307Y014385D01*
X015307Y014471D02*
X015329Y014471D01*
X015329Y014557D02*
X015307Y014557D01*
X015110Y014593D02*
X015110Y014385D01*
X015110Y014593D02*
X015132Y014593D01*
X015132Y014385D01*
X015110Y014385D01*
X015110Y014471D02*
X015132Y014471D01*
X015132Y014557D02*
X015110Y014557D01*
X014913Y014593D02*
X014913Y014385D01*
X014913Y014593D02*
X014935Y014593D01*
X014935Y014385D01*
X014913Y014385D01*
X014913Y014471D02*
X014935Y014471D01*
X014935Y014557D02*
X014913Y014557D01*
X014717Y014593D02*
X014717Y014385D01*
X014717Y014593D02*
X014739Y014593D01*
X014739Y014385D01*
X014717Y014385D01*
X014717Y014471D02*
X014739Y014471D01*
X014739Y014557D02*
X014717Y014557D01*
X014520Y014593D02*
X014520Y014385D01*
X014520Y014593D02*
X014542Y014593D01*
X014542Y014385D01*
X014520Y014385D01*
X014520Y014471D02*
X014542Y014471D01*
X014542Y014557D02*
X014520Y014557D01*
X014323Y014593D02*
X014323Y014385D01*
X014323Y014593D02*
X014345Y014593D01*
X014345Y014385D01*
X014323Y014385D01*
X014323Y014471D02*
X014345Y014471D01*
X014345Y014557D02*
X014323Y014557D01*
X014126Y014593D02*
X014126Y014385D01*
X014126Y014593D02*
X014148Y014593D01*
X014148Y014385D01*
X014126Y014385D01*
X014126Y014471D02*
X014148Y014471D01*
X014148Y014557D02*
X014126Y014557D01*
X013929Y014593D02*
X013929Y014385D01*
X013929Y014593D02*
X013951Y014593D01*
X013951Y014385D01*
X013929Y014385D01*
X013929Y014471D02*
X013951Y014471D01*
X013951Y014557D02*
X013929Y014557D01*
X013732Y014593D02*
X013732Y014385D01*
X013732Y014593D02*
X013754Y014593D01*
X013754Y014385D01*
X013732Y014385D01*
X013732Y014471D02*
X013754Y014471D01*
X013754Y014557D02*
X013732Y014557D01*
X013542Y014173D02*
X013334Y014173D01*
X013334Y014195D01*
X013542Y014195D01*
X013542Y014173D01*
X013542Y013976D02*
X013334Y013976D01*
X013334Y013998D01*
X013542Y013998D01*
X013542Y013976D01*
X013542Y013780D02*
X013334Y013780D01*
X013334Y013802D01*
X013542Y013802D01*
X013542Y013780D01*
X013542Y013583D02*
X013334Y013583D01*
X013334Y013605D01*
X013542Y013605D01*
X013542Y013583D01*
X013542Y013386D02*
X013334Y013386D01*
X013334Y013408D01*
X013542Y013408D01*
X013542Y013386D01*
D25*
X001618Y006990D03*
X001618Y006080D03*
X001618Y005170D03*
D26*
X004058Y006080D03*
D27*
X027883Y003924D03*
D28*
X027492Y003152D03*
X028283Y003148D03*
D29*
X028086Y003146D03*
D30*
X027887Y003148D03*
X027494Y004715D03*
D31*
X027691Y003150D03*
D32*
X027889Y004711D03*
X028283Y004711D03*
D33*
X028086Y004713D03*
D34*
X027694Y004715D03*
D35*
X027106Y003538D03*
D36*
X027104Y003735D03*
X028659Y003931D03*
X019772Y003905D03*
X019772Y004102D03*
X019772Y004299D03*
X019772Y003704D03*
X019772Y003511D03*
X019772Y003311D03*
X019772Y003114D03*
X019772Y002917D03*
X017863Y002917D03*
X017863Y003118D03*
X017863Y003315D03*
X017863Y003507D03*
X017863Y003704D03*
X017863Y003905D03*
X017863Y004098D03*
X017863Y004299D03*
D37*
X027104Y004325D03*
X027104Y003931D03*
D38*
X027104Y004128D03*
D39*
X028661Y003538D03*
D40*
X028659Y003739D03*
X028659Y004128D03*
D41*
X028661Y004325D03*
D42*
X018820Y003604D03*
D43*
X018324Y004557D03*
D44*
X018520Y004555D03*
X018717Y004555D03*
X018914Y004555D03*
X019111Y004555D03*
X019308Y004555D03*
X019505Y004555D03*
X018127Y004559D03*
X018127Y002677D03*
X018324Y002677D03*
X018520Y002677D03*
X018717Y002677D03*
X018914Y002677D03*
X019111Y002677D03*
X019308Y002677D03*
X019505Y002677D03*
D45*
X028013Y013585D03*
X028643Y013585D03*
X028643Y014215D03*
X028013Y014215D03*
D46*
X027343Y014195D03*
X027343Y013998D03*
X027343Y013802D03*
X027343Y013605D03*
X027343Y013408D03*
X027343Y013211D03*
X027343Y014392D03*
X027343Y014589D03*
X029312Y014589D03*
X029312Y014392D03*
X029312Y014195D03*
X029312Y013998D03*
X029312Y013802D03*
X029312Y013605D03*
X029312Y013408D03*
X029312Y013211D03*
D47*
X029017Y012916D03*
X028820Y012916D03*
X028623Y012916D03*
X028426Y012916D03*
X028229Y012916D03*
X028032Y012916D03*
X027835Y012916D03*
X027639Y012916D03*
X027639Y014884D03*
X027835Y014884D03*
X028032Y014884D03*
X028229Y014884D03*
X028426Y014884D03*
X028623Y014884D03*
X028820Y014884D03*
X029017Y014884D03*
D48*
X026459Y015021D02*
X026197Y015021D01*
X026459Y015021D02*
X026459Y014759D01*
X026197Y014759D01*
X026197Y015021D01*
X026197Y014846D02*
X026459Y014846D01*
X026459Y014933D02*
X026197Y014933D01*
X026197Y015020D02*
X026459Y015020D01*
X025859Y015021D02*
X025597Y015021D01*
X025859Y015021D02*
X025859Y014759D01*
X025597Y014759D01*
X025597Y015021D01*
X025597Y014846D02*
X025859Y014846D01*
X025859Y014933D02*
X025597Y014933D01*
X025597Y015020D02*
X025859Y015020D01*
X024959Y016631D02*
X024697Y016631D01*
X024959Y016631D02*
X024959Y016369D01*
X024697Y016369D01*
X024697Y016631D01*
X024697Y016456D02*
X024959Y016456D01*
X024959Y016543D02*
X024697Y016543D01*
X024697Y016630D02*
X024959Y016630D01*
X024359Y016631D02*
X024097Y016631D01*
X024359Y016631D02*
X024359Y016369D01*
X024097Y016369D01*
X024097Y016631D01*
X024097Y016456D02*
X024359Y016456D01*
X024359Y016543D02*
X024097Y016543D01*
X024097Y016630D02*
X024359Y016630D01*
D49*
X024416Y016063D02*
X024290Y016063D01*
X024416Y016063D02*
X024416Y015937D01*
X024290Y015937D01*
X024290Y016063D01*
X024290Y016061D02*
X024416Y016061D01*
X024640Y016063D02*
X024766Y016063D01*
X024766Y015937D01*
X024640Y015937D01*
X024640Y016063D01*
X024640Y016061D02*
X024766Y016061D01*
X026065Y016762D02*
X026065Y016888D01*
X026191Y016888D01*
X026191Y016762D01*
X026065Y016762D01*
X026065Y016886D02*
X026191Y016886D01*
X026065Y017112D02*
X026065Y017238D01*
X026191Y017238D01*
X026191Y017112D01*
X026065Y017112D01*
X026065Y017236D02*
X026191Y017236D01*
X028191Y017138D02*
X028191Y017012D01*
X028065Y017012D01*
X028065Y017138D01*
X028191Y017138D01*
X028191Y017136D02*
X028065Y017136D01*
X028191Y016788D02*
X028191Y016662D01*
X028065Y016662D01*
X028065Y016788D01*
X028191Y016788D01*
X028191Y016786D02*
X028065Y016786D01*
X028691Y016788D02*
X028691Y016662D01*
X028565Y016662D01*
X028565Y016788D01*
X028691Y016788D01*
X028691Y016786D02*
X028565Y016786D01*
X028691Y017012D02*
X028691Y017138D01*
X028691Y017012D02*
X028565Y017012D01*
X028565Y017138D01*
X028691Y017138D01*
X028691Y017136D02*
X028565Y017136D01*
X030091Y016738D02*
X030091Y016612D01*
X029965Y016612D01*
X029965Y016738D01*
X030091Y016738D01*
X030091Y016736D02*
X029965Y016736D01*
X030091Y016388D02*
X030091Y016262D01*
X029965Y016262D01*
X029965Y016388D01*
X030091Y016388D01*
X030091Y016386D02*
X029965Y016386D01*
X029965Y015938D02*
X029965Y015812D01*
X029965Y015938D02*
X030091Y015938D01*
X030091Y015812D01*
X029965Y015812D01*
X029965Y015936D02*
X030091Y015936D01*
X029965Y015588D02*
X029965Y015462D01*
X029965Y015588D02*
X030091Y015588D01*
X030091Y015462D01*
X029965Y015462D01*
X029965Y015586D02*
X030091Y015586D01*
X030091Y015138D02*
X030091Y015012D01*
X029965Y015012D01*
X029965Y015138D01*
X030091Y015138D01*
X030091Y015136D02*
X029965Y015136D01*
X030091Y014788D02*
X030091Y014662D01*
X029965Y014662D01*
X029965Y014788D01*
X030091Y014788D01*
X030091Y014786D02*
X029965Y014786D01*
X030091Y014338D02*
X030091Y014212D01*
X029965Y014212D01*
X029965Y014338D01*
X030091Y014338D01*
X030091Y014336D02*
X029965Y014336D01*
X030091Y013988D02*
X030091Y013862D01*
X029965Y013862D01*
X029965Y013988D01*
X030091Y013988D01*
X030091Y013986D02*
X029965Y013986D01*
X030365Y013938D02*
X030365Y013812D01*
X030365Y013938D02*
X030491Y013938D01*
X030491Y013812D01*
X030365Y013812D01*
X030365Y013936D02*
X030491Y013936D01*
X030365Y013588D02*
X030365Y013462D01*
X030365Y013588D02*
X030491Y013588D01*
X030491Y013462D01*
X030365Y013462D01*
X030365Y013586D02*
X030491Y013586D01*
X030691Y013138D02*
X030691Y013012D01*
X030565Y013012D01*
X030565Y013138D01*
X030691Y013138D01*
X030691Y013136D02*
X030565Y013136D01*
X030291Y013138D02*
X030291Y013012D01*
X030165Y013012D01*
X030165Y013138D01*
X030291Y013138D01*
X030291Y013136D02*
X030165Y013136D01*
X030291Y012788D02*
X030291Y012662D01*
X030165Y012662D01*
X030165Y012788D01*
X030291Y012788D01*
X030291Y012786D02*
X030165Y012786D01*
X030691Y012788D02*
X030691Y012662D01*
X030565Y012662D01*
X030565Y012788D01*
X030691Y012788D01*
X030691Y012786D02*
X030565Y012786D01*
X026865Y012738D02*
X026865Y012612D01*
X026865Y012738D02*
X026991Y012738D01*
X026991Y012612D01*
X026865Y012612D01*
X026865Y012736D02*
X026991Y012736D01*
X026865Y012388D02*
X026865Y012262D01*
X026865Y012388D02*
X026991Y012388D01*
X026991Y012262D01*
X026865Y012262D01*
X026865Y012386D02*
X026991Y012386D01*
X024966Y013463D02*
X024840Y013463D01*
X024966Y013463D02*
X024966Y013337D01*
X024840Y013337D01*
X024840Y013463D01*
X024840Y013461D02*
X024966Y013461D01*
X024616Y013463D02*
X024490Y013463D01*
X024616Y013463D02*
X024616Y013337D01*
X024490Y013337D01*
X024490Y013463D01*
X024490Y013461D02*
X024616Y013461D01*
X025790Y013963D02*
X025916Y013963D01*
X025916Y013837D01*
X025790Y013837D01*
X025790Y013963D01*
X025790Y013961D02*
X025916Y013961D01*
X026140Y013963D02*
X026266Y013963D01*
X026266Y013837D01*
X026140Y013837D01*
X026140Y013963D01*
X026140Y013961D02*
X026266Y013961D01*
X026266Y014363D02*
X026140Y014363D01*
X026266Y014363D02*
X026266Y014237D01*
X026140Y014237D01*
X026140Y014363D01*
X026140Y014361D02*
X026266Y014361D01*
X025916Y014363D02*
X025790Y014363D01*
X025916Y014363D02*
X025916Y014237D01*
X025790Y014237D01*
X025790Y014363D01*
X025790Y014361D02*
X025916Y014361D01*
D50*
X024728Y013972D03*
X024728Y015428D03*
D51*
X029128Y016644D03*
X029128Y017156D03*
X029028Y011156D03*
X028528Y011156D03*
X028528Y010644D03*
X029028Y010644D03*
X027428Y010644D03*
X026928Y010644D03*
X026928Y011156D03*
X027428Y011156D03*
X025628Y011156D03*
X025128Y011156D03*
X025128Y010644D03*
X025628Y010644D03*
D52*
X031588Y015850D03*
X031588Y018450D03*
D53*
X016792Y003953D03*
X016063Y003953D03*
X016063Y003047D03*
X016792Y003047D03*
D54*
X025772Y015430D03*
X026283Y015430D03*
X026972Y015430D03*
X027483Y015430D03*
D55*
X002271Y012912D03*
X002271Y012656D03*
X002271Y012400D03*
X002271Y012144D03*
X002271Y011888D03*
D56*
X001228Y010825D03*
X001228Y013975D03*
M02*
