G75*
G70*
%OFA0B0*%
%FSLAX24Y24*%
%IPPOS*%
%LPD*%
%AMOC8*
5,1,8,0,0,1.08239X$1,22.5*
%
%ADD10C,0.0000*%
%ADD11C,0.0030*%
%ADD12C,0.0060*%
%ADD13C,0.0020*%
%ADD14C,0.0220*%
%ADD15R,0.0180X0.0300*%
%ADD16C,0.0050*%
%ADD17C,0.0028*%
%ADD18R,0.0276X0.0118*%
%ADD19R,0.0079X0.0079*%
%ADD20C,0.0040*%
%ADD21R,0.0300X0.0180*%
%ADD22C,0.0080*%
%ADD23R,0.0240X0.0620*%
%ADD24R,0.0280X0.0160*%
D10*
X000628Y000100D02*
X000628Y018996D01*
X032998Y018996D01*
X032998Y000100D01*
X000628Y000100D01*
D11*
X003783Y004735D02*
X003906Y004858D01*
X003906Y005105D01*
X004028Y004982D02*
X004028Y004797D01*
X004089Y004735D01*
X004274Y004735D01*
X004274Y004982D01*
X004396Y004920D02*
X004458Y004982D01*
X004643Y004982D01*
X004764Y004982D02*
X004949Y004982D01*
X005011Y004920D01*
X005011Y004797D01*
X004949Y004735D01*
X004764Y004735D01*
X004764Y005105D01*
X004581Y004858D02*
X004458Y004858D01*
X004396Y004920D01*
X004396Y004735D02*
X004581Y004735D01*
X004643Y004797D01*
X004581Y004858D01*
X003783Y004735D02*
X003659Y004858D01*
X003659Y005105D01*
X004622Y005423D02*
X004869Y005423D01*
X004993Y005546D01*
X004869Y005670D01*
X004622Y005670D01*
X004746Y005791D02*
X004746Y005853D01*
X004993Y005853D01*
X004993Y005791D02*
X004993Y005915D01*
X004993Y006037D02*
X004746Y006037D01*
X004746Y006222D01*
X004807Y006284D01*
X004993Y006284D01*
X004949Y006635D02*
X005011Y006697D01*
X005011Y006944D01*
X004949Y007005D01*
X004764Y007005D01*
X004764Y006635D01*
X004949Y006635D01*
X004643Y006635D02*
X004643Y007005D01*
X004396Y007005D02*
X004643Y006635D01*
X004396Y006635D02*
X004396Y007005D01*
X004274Y006944D02*
X004213Y007005D01*
X004089Y007005D01*
X004028Y006944D01*
X004028Y006697D01*
X004089Y006635D01*
X004213Y006635D01*
X004274Y006697D01*
X004274Y006820D01*
X004151Y006820D01*
X004458Y007635D02*
X004396Y007697D01*
X004458Y007635D02*
X004581Y007635D01*
X004643Y007697D01*
X004643Y007820D01*
X004581Y007882D01*
X004519Y007882D01*
X004396Y007820D01*
X004396Y008005D01*
X004643Y008005D01*
X004764Y008005D02*
X004764Y007758D01*
X004888Y007635D01*
X005011Y007758D01*
X005011Y008005D01*
X004888Y008735D02*
X005011Y008858D01*
X005011Y009105D01*
X004764Y009105D02*
X004764Y008858D01*
X004888Y008735D01*
X004643Y008797D02*
X004581Y008735D01*
X004458Y008735D01*
X004396Y008797D01*
X004519Y008920D02*
X004581Y008920D01*
X004643Y008858D01*
X004643Y008797D01*
X004581Y008920D02*
X004643Y008982D01*
X004643Y009044D01*
X004581Y009105D01*
X004458Y009105D01*
X004396Y009044D01*
X006043Y011815D02*
X006043Y012185D01*
X006228Y012185D01*
X006289Y012124D01*
X006289Y012000D01*
X006228Y011938D01*
X006043Y011938D01*
X006166Y011938D02*
X006289Y011815D01*
X006411Y011815D02*
X006596Y011815D01*
X006658Y011877D01*
X006658Y012124D01*
X006596Y012185D01*
X006411Y012185D01*
X006411Y011815D01*
X006779Y012000D02*
X007026Y012000D01*
X006903Y011877D02*
X006903Y012124D01*
X006596Y013115D02*
X006658Y013177D01*
X006658Y013424D01*
X006596Y013485D01*
X006411Y013485D01*
X006411Y013115D01*
X006596Y013115D01*
X006779Y013300D02*
X007026Y013300D01*
X006289Y013300D02*
X006228Y013238D01*
X006043Y013238D01*
X006166Y013238D02*
X006289Y013115D01*
X006289Y013300D02*
X006289Y013424D01*
X006228Y013485D01*
X006043Y013485D01*
X006043Y013115D01*
X002021Y016177D02*
X001959Y016115D01*
X001774Y016115D01*
X001774Y016485D01*
X001959Y016485D01*
X002021Y016424D01*
X002021Y016177D01*
X001653Y016115D02*
X001653Y016485D01*
X001406Y016485D02*
X001653Y016115D01*
X001406Y016115D02*
X001406Y016485D01*
X001284Y016424D02*
X001223Y016485D01*
X001099Y016485D01*
X001038Y016424D01*
X001038Y016177D01*
X001099Y016115D01*
X001223Y016115D01*
X001284Y016177D01*
X001284Y016300D01*
X001161Y016300D01*
X003042Y016342D02*
X003289Y016342D01*
X003413Y016465D01*
X003289Y016589D01*
X003042Y016589D01*
X003166Y016710D02*
X003351Y016710D01*
X003413Y016772D01*
X003413Y016957D01*
X003166Y016957D01*
X003227Y017078D02*
X003166Y017140D01*
X003166Y017325D01*
X003166Y017447D02*
X003166Y017632D01*
X003227Y017694D01*
X003351Y017694D01*
X003413Y017632D01*
X003413Y017447D01*
X003042Y017447D01*
X003289Y017264D02*
X003289Y017140D01*
X003227Y017078D01*
X003413Y017078D02*
X003413Y017264D01*
X003351Y017325D01*
X003289Y017264D01*
X012042Y017132D02*
X012042Y016947D01*
X012413Y016947D01*
X012413Y017132D01*
X012351Y017194D01*
X012289Y017194D01*
X012227Y017132D01*
X012227Y016947D01*
X012289Y016825D02*
X012227Y016764D01*
X012227Y016640D01*
X012166Y016578D01*
X012104Y016578D01*
X012042Y016640D01*
X012042Y016764D01*
X012104Y016825D01*
X012289Y016825D02*
X012351Y016825D01*
X012413Y016764D01*
X012413Y016640D01*
X012351Y016578D01*
X012351Y016457D02*
X012042Y016457D01*
X012351Y016457D02*
X012413Y016395D01*
X012413Y016272D01*
X012351Y016210D01*
X012042Y016210D01*
X012042Y016089D02*
X012289Y016089D01*
X012413Y015965D01*
X012289Y015842D01*
X012042Y015842D01*
X013042Y016602D02*
X013166Y016725D01*
X013413Y016725D01*
X013351Y016847D02*
X013413Y016908D01*
X013413Y017032D01*
X013351Y017094D01*
X013227Y017094D01*
X013166Y017032D01*
X013166Y016970D01*
X013227Y016847D01*
X013042Y016847D01*
X013042Y017094D01*
X013227Y016725D02*
X013227Y016478D01*
X013166Y016478D02*
X013042Y016602D01*
X013166Y016478D02*
X013413Y016478D01*
X014042Y016602D02*
X014166Y016725D01*
X014413Y016725D01*
X014227Y016725D02*
X014227Y016478D01*
X014166Y016478D02*
X014042Y016602D01*
X014166Y016478D02*
X014413Y016478D01*
X014227Y016847D02*
X014227Y017094D01*
X014042Y017032D02*
X014227Y016847D01*
X014042Y017032D02*
X014413Y017032D01*
X015042Y017032D02*
X015042Y016908D01*
X015104Y016847D01*
X015166Y016725D02*
X015413Y016725D01*
X015351Y016847D02*
X015413Y016908D01*
X015413Y017032D01*
X015351Y017094D01*
X015289Y017094D01*
X015227Y017032D01*
X015227Y016970D01*
X015227Y017032D02*
X015166Y017094D01*
X015104Y017094D01*
X015042Y017032D01*
X015166Y016725D02*
X015042Y016602D01*
X015166Y016478D01*
X015413Y016478D01*
X015227Y016478D02*
X015227Y016725D01*
X016042Y016602D02*
X016166Y016725D01*
X016413Y016725D01*
X016413Y016847D02*
X016166Y017094D01*
X016104Y017094D01*
X016042Y017032D01*
X016042Y016908D01*
X016104Y016847D01*
X016227Y016725D02*
X016227Y016478D01*
X016166Y016478D02*
X016413Y016478D01*
X016166Y016478D02*
X016042Y016602D01*
X016413Y016847D02*
X016413Y017094D01*
X017042Y016970D02*
X017413Y016970D01*
X017413Y016847D02*
X017413Y017094D01*
X017166Y016847D02*
X017042Y016970D01*
X017166Y016725D02*
X017413Y016725D01*
X017227Y016725D02*
X017227Y016478D01*
X017166Y016478D02*
X017413Y016478D01*
X017166Y016478D02*
X017042Y016602D01*
X017166Y016725D01*
X018042Y016602D02*
X018166Y016725D01*
X018413Y016725D01*
X018351Y016847D02*
X018104Y016847D01*
X018042Y016908D01*
X018042Y017032D01*
X018104Y017094D01*
X018351Y016847D01*
X018413Y016908D01*
X018413Y017032D01*
X018351Y017094D01*
X018104Y017094D01*
X018227Y016725D02*
X018227Y016478D01*
X018166Y016478D02*
X018413Y016478D01*
X018166Y016478D02*
X018042Y016602D01*
X020706Y016662D02*
X020829Y016785D01*
X020829Y016415D01*
X020706Y016415D02*
X020953Y016415D01*
X021074Y016477D02*
X021136Y016415D01*
X021259Y016415D01*
X021321Y016477D01*
X021321Y016538D01*
X021259Y016600D01*
X021198Y016600D01*
X021259Y016600D02*
X021321Y016662D01*
X021321Y016724D01*
X021259Y016785D01*
X021136Y016785D01*
X021074Y016724D01*
X021074Y017415D02*
X021074Y017477D01*
X021321Y017724D01*
X021321Y017785D01*
X021074Y017785D01*
X020953Y017724D02*
X020891Y017785D01*
X020706Y017785D01*
X020706Y017415D01*
X020891Y017415D01*
X020953Y017477D01*
X020953Y017724D01*
X021074Y015785D02*
X021074Y015600D01*
X021198Y015662D01*
X021259Y015662D01*
X021321Y015600D01*
X021321Y015477D01*
X021259Y015415D01*
X021136Y015415D01*
X021074Y015477D01*
X021074Y015785D02*
X021321Y015785D01*
X021259Y014785D02*
X021136Y014785D01*
X021074Y014724D01*
X021074Y014477D01*
X021321Y014724D01*
X021321Y014477D01*
X021259Y014415D01*
X021136Y014415D01*
X021074Y014477D01*
X020953Y014415D02*
X020706Y014415D01*
X020829Y014415D02*
X020829Y014785D01*
X020706Y014662D01*
X021259Y014785D02*
X021321Y014724D01*
X021259Y013785D02*
X021136Y013785D01*
X021074Y013724D01*
X021074Y013662D01*
X021136Y013600D01*
X021321Y013600D01*
X021321Y013477D02*
X021321Y013724D01*
X021259Y013785D01*
X021321Y013477D02*
X021259Y013415D01*
X021136Y013415D01*
X021074Y013477D01*
X021136Y012785D02*
X021259Y012785D01*
X021321Y012724D01*
X021321Y012662D01*
X021259Y012600D01*
X021136Y012600D01*
X021074Y012662D01*
X021074Y012724D01*
X021136Y012785D01*
X021136Y012600D02*
X021074Y012538D01*
X021074Y012477D01*
X021136Y012415D01*
X021259Y012415D01*
X021321Y012477D01*
X021321Y012538D01*
X021259Y012600D01*
X021321Y011785D02*
X021198Y011724D01*
X021074Y011600D01*
X021259Y011600D01*
X021321Y011538D01*
X021321Y011477D01*
X021259Y011415D01*
X021136Y011415D01*
X021074Y011477D01*
X021074Y011600D01*
X021136Y010785D02*
X021074Y010724D01*
X021136Y010785D02*
X021259Y010785D01*
X021321Y010724D01*
X021321Y010662D01*
X021074Y010415D01*
X021321Y010415D01*
X020953Y010415D02*
X020706Y010415D01*
X020829Y010415D02*
X020829Y010785D01*
X020706Y010662D01*
X021259Y009685D02*
X021074Y009500D01*
X021321Y009500D01*
X021259Y009315D02*
X021259Y009685D01*
X021213Y008862D02*
X021213Y008615D01*
X021213Y008738D02*
X020842Y008738D01*
X020966Y008615D01*
X020213Y008677D02*
X020151Y008615D01*
X019904Y008862D01*
X020151Y008862D01*
X020213Y008800D01*
X020213Y008677D01*
X020151Y008615D02*
X019904Y008615D01*
X019842Y008677D01*
X019842Y008800D01*
X019904Y008862D01*
X019213Y008862D02*
X019213Y008615D01*
X018966Y008862D01*
X018904Y008862D01*
X018842Y008800D01*
X018842Y008677D01*
X018904Y008615D01*
X018213Y008677D02*
X018151Y008615D01*
X018213Y008677D02*
X018213Y008800D01*
X018151Y008862D01*
X018089Y008862D01*
X018027Y008800D01*
X018027Y008738D01*
X018027Y008800D02*
X017966Y008862D01*
X017904Y008862D01*
X017842Y008800D01*
X017842Y008677D01*
X017904Y008615D01*
X017213Y008615D02*
X017213Y008862D01*
X017213Y008983D02*
X017213Y009230D01*
X017213Y009107D02*
X016842Y009107D01*
X016966Y008983D01*
X016842Y008738D02*
X017213Y008738D01*
X016966Y008615D02*
X016842Y008738D01*
X020906Y006185D02*
X021091Y006185D01*
X021153Y006124D01*
X021153Y006000D01*
X021091Y005938D01*
X020906Y005938D01*
X020906Y005815D02*
X020906Y006185D01*
X021029Y005938D02*
X021153Y005815D01*
X021274Y005815D02*
X021521Y006185D01*
X021274Y006185D02*
X021521Y005815D01*
X021521Y005185D02*
X021274Y005185D01*
X021398Y005185D02*
X021398Y004815D01*
X021153Y004877D02*
X021091Y004815D01*
X020968Y004815D01*
X020906Y004877D01*
X020784Y004815D02*
X020661Y004938D01*
X020723Y004938D02*
X020538Y004938D01*
X020538Y004815D02*
X020538Y005185D01*
X020723Y005185D01*
X020784Y005124D01*
X020784Y005000D01*
X020723Y004938D01*
X020906Y005062D02*
X020968Y005000D01*
X021091Y005000D01*
X021153Y004938D01*
X021153Y004877D01*
X021153Y005124D02*
X021091Y005185D01*
X020968Y005185D01*
X020906Y005124D01*
X020906Y005062D01*
X021029Y004185D02*
X021153Y004062D01*
X021153Y003815D01*
X021274Y003877D02*
X021336Y003815D01*
X021459Y003815D01*
X021521Y003877D01*
X021521Y004000D01*
X021459Y004062D01*
X021398Y004062D01*
X021274Y004000D01*
X021274Y004185D01*
X021521Y004185D01*
X021153Y004000D02*
X020906Y004000D01*
X020906Y004062D02*
X020906Y003815D01*
X020906Y004062D02*
X021029Y004185D01*
X021029Y003185D02*
X021153Y003062D01*
X021153Y002815D01*
X021153Y003000D02*
X020906Y003000D01*
X020906Y003062D02*
X020906Y002815D01*
X021274Y003000D02*
X021521Y003000D01*
X021459Y002815D02*
X021459Y003185D01*
X021274Y003000D01*
X021029Y003185D02*
X020906Y003062D01*
X021304Y002494D02*
X021242Y002432D01*
X021242Y002247D01*
X021613Y002247D01*
X021613Y002432D01*
X021551Y002494D01*
X021304Y002494D01*
X021242Y002125D02*
X021613Y002125D01*
X021242Y001878D01*
X021613Y001878D01*
X021551Y001757D02*
X021427Y001757D01*
X021427Y001633D01*
X021304Y001510D02*
X021242Y001572D01*
X021242Y001695D01*
X021304Y001757D01*
X021551Y001757D02*
X021613Y001695D01*
X021613Y001572D01*
X021551Y001510D01*
X021304Y001510D01*
X019721Y001638D02*
X019598Y001515D01*
X019474Y001638D01*
X019474Y001885D01*
X019353Y001885D02*
X019106Y001885D01*
X019106Y001700D01*
X019229Y001762D01*
X019291Y001762D01*
X019353Y001700D01*
X019353Y001577D01*
X019291Y001515D01*
X019168Y001515D01*
X019106Y001577D01*
X018721Y001515D02*
X018536Y001700D01*
X018474Y001638D02*
X018721Y001885D01*
X018474Y001885D02*
X018474Y001515D01*
X018353Y001577D02*
X018291Y001515D01*
X018168Y001515D01*
X018106Y001577D01*
X018106Y001824D01*
X018168Y001885D01*
X018291Y001885D01*
X018353Y001824D01*
X017984Y001824D02*
X017923Y001885D01*
X017799Y001885D01*
X017738Y001824D01*
X017738Y001762D01*
X017799Y001700D01*
X017923Y001700D01*
X017984Y001638D01*
X017984Y001577D01*
X017923Y001515D01*
X017799Y001515D01*
X017738Y001577D01*
X017613Y001515D02*
X017242Y001515D01*
X017366Y001638D01*
X017242Y001762D01*
X017613Y001762D01*
X017613Y001883D02*
X017613Y002007D01*
X017613Y001945D02*
X017242Y001945D01*
X017242Y001883D02*
X017242Y002007D01*
X017304Y002129D02*
X017366Y002129D01*
X017427Y002191D01*
X017427Y002314D01*
X017489Y002376D01*
X017551Y002376D01*
X017613Y002314D01*
X017613Y002191D01*
X017551Y002129D01*
X017304Y002129D02*
X017242Y002191D01*
X017242Y002314D01*
X017304Y002376D01*
X017304Y002497D02*
X017551Y002497D01*
X017613Y002559D01*
X017613Y002682D01*
X017551Y002744D01*
X017304Y002744D01*
X017242Y002682D01*
X017242Y002559D01*
X017304Y002497D01*
X019721Y001885D02*
X019721Y001638D01*
X024543Y001815D02*
X024543Y002185D01*
X024728Y002185D01*
X024789Y002124D01*
X024789Y002000D01*
X024728Y001938D01*
X024543Y001938D01*
X024911Y002000D02*
X025158Y002000D01*
X025158Y002062D02*
X025158Y001815D01*
X025279Y001815D02*
X025279Y001877D01*
X025526Y002124D01*
X025526Y002185D01*
X025279Y002185D01*
X025158Y002062D02*
X025034Y002185D01*
X024911Y002062D01*
X024911Y001815D01*
X024911Y001185D02*
X025158Y000815D01*
X025158Y001185D01*
X025279Y001185D02*
X025464Y001185D01*
X025526Y001124D01*
X025526Y000877D01*
X025464Y000815D01*
X025279Y000815D01*
X025279Y001185D01*
X024911Y001185D02*
X024911Y000815D01*
X024789Y000877D02*
X024789Y001000D01*
X024666Y001000D01*
X024789Y000877D02*
X024728Y000815D01*
X024604Y000815D01*
X024543Y000877D01*
X024543Y001124D01*
X024604Y001185D01*
X024728Y001185D01*
X024789Y001124D01*
X024911Y002815D02*
X025096Y002815D01*
X025158Y002877D01*
X025158Y002938D01*
X025096Y003000D01*
X024911Y003000D01*
X024789Y003000D02*
X024789Y003124D01*
X024728Y003185D01*
X024543Y003185D01*
X024543Y002815D01*
X024543Y002938D02*
X024728Y002938D01*
X024789Y003000D01*
X024911Y002815D02*
X024911Y003185D01*
X025096Y003185D01*
X025158Y003124D01*
X025158Y003062D01*
X025096Y003000D01*
X025279Y002877D02*
X025341Y002815D01*
X025464Y002815D01*
X025526Y002877D01*
X025526Y002938D01*
X025464Y003000D01*
X025403Y003000D01*
X025464Y003000D02*
X025526Y003062D01*
X025526Y003124D01*
X025464Y003185D01*
X025341Y003185D01*
X025279Y003124D01*
X025279Y003715D02*
X025526Y003962D01*
X025526Y004024D01*
X025464Y004085D01*
X025341Y004085D01*
X025279Y004024D01*
X025158Y004024D02*
X025158Y003962D01*
X025096Y003900D01*
X024911Y003900D01*
X024789Y003900D02*
X024789Y004024D01*
X024728Y004085D01*
X024543Y004085D01*
X024543Y003715D01*
X024543Y003838D02*
X024728Y003838D01*
X024789Y003900D01*
X024911Y003715D02*
X025096Y003715D01*
X025158Y003777D01*
X025158Y003838D01*
X025096Y003900D01*
X025158Y004024D02*
X025096Y004085D01*
X024911Y004085D01*
X024911Y003715D01*
X025279Y003715D02*
X025526Y003715D01*
X025526Y004715D02*
X025279Y004715D01*
X025403Y004715D02*
X025403Y005085D01*
X025279Y004962D01*
X025158Y004962D02*
X025096Y004900D01*
X024911Y004900D01*
X024789Y004900D02*
X024789Y005024D01*
X024728Y005085D01*
X024543Y005085D01*
X024543Y004715D01*
X024543Y004838D02*
X024728Y004838D01*
X024789Y004900D01*
X024911Y004715D02*
X025096Y004715D01*
X025158Y004777D01*
X025158Y004838D01*
X025096Y004900D01*
X025158Y004962D02*
X025158Y005024D01*
X025096Y005085D01*
X024911Y005085D01*
X024911Y004715D01*
X024911Y005815D02*
X025096Y005815D01*
X025158Y005877D01*
X025158Y005938D01*
X025096Y006000D01*
X024911Y006000D01*
X024789Y006000D02*
X024789Y006124D01*
X024728Y006185D01*
X024543Y006185D01*
X024543Y005815D01*
X024543Y005938D02*
X024728Y005938D01*
X024789Y006000D01*
X024911Y005815D02*
X024911Y006185D01*
X025096Y006185D01*
X025158Y006124D01*
X025158Y006062D01*
X025096Y006000D01*
X025279Y005877D02*
X025526Y006124D01*
X025526Y005877D01*
X025464Y005815D01*
X025341Y005815D01*
X025279Y005877D01*
X025279Y006124D01*
X025341Y006185D01*
X025464Y006185D01*
X025526Y006124D01*
X025034Y006815D02*
X025158Y006938D01*
X025158Y007185D01*
X024911Y007185D02*
X024911Y006938D01*
X025034Y006815D01*
X024789Y006877D02*
X024728Y006815D01*
X024604Y006815D01*
X024543Y006877D01*
X024543Y007000D02*
X024666Y007062D01*
X024728Y007062D01*
X024789Y007000D01*
X024789Y006877D01*
X024543Y007000D02*
X024543Y007185D01*
X024789Y007185D01*
X030238Y007085D02*
X030238Y006715D01*
X030238Y006838D02*
X030423Y006838D01*
X030484Y006900D01*
X030484Y007024D01*
X030423Y007085D01*
X030238Y007085D01*
X030606Y006962D02*
X030729Y007085D01*
X030853Y006962D01*
X030853Y006715D01*
X030974Y006777D02*
X031221Y007024D01*
X031221Y006777D01*
X031159Y006715D01*
X031036Y006715D01*
X030974Y006777D01*
X030974Y007024D01*
X031036Y007085D01*
X031159Y007085D01*
X031221Y007024D01*
X030853Y006900D02*
X030606Y006900D01*
X030606Y006962D02*
X030606Y006715D01*
X030729Y006085D02*
X030853Y005962D01*
X030853Y005715D01*
X030974Y005715D02*
X031221Y005715D01*
X031098Y005715D02*
X031098Y006085D01*
X030974Y005962D01*
X030853Y005900D02*
X030606Y005900D01*
X030606Y005962D02*
X030606Y005715D01*
X030423Y005838D02*
X030238Y005838D01*
X030238Y005715D02*
X030238Y006085D01*
X030423Y006085D01*
X030484Y006024D01*
X030484Y005900D01*
X030423Y005838D01*
X030606Y005962D02*
X030729Y006085D01*
X030729Y005085D02*
X030853Y004962D01*
X030853Y004715D01*
X030974Y004715D02*
X031221Y004962D01*
X031221Y005024D01*
X031159Y005085D01*
X031036Y005085D01*
X030974Y005024D01*
X030853Y004900D02*
X030606Y004900D01*
X030606Y004962D02*
X030729Y005085D01*
X030606Y004962D02*
X030606Y004715D01*
X030423Y004838D02*
X030238Y004838D01*
X030238Y004715D02*
X030238Y005085D01*
X030423Y005085D01*
X030484Y005024D01*
X030484Y004900D01*
X030423Y004838D01*
X030974Y004715D02*
X031221Y004715D01*
X031159Y004085D02*
X031036Y004085D01*
X030974Y004024D01*
X030853Y003962D02*
X030853Y003715D01*
X030974Y003777D02*
X031036Y003715D01*
X031159Y003715D01*
X031221Y003777D01*
X031221Y003838D01*
X031159Y003900D01*
X031098Y003900D01*
X031159Y003900D02*
X031221Y003962D01*
X031221Y004024D01*
X031159Y004085D01*
X030853Y003962D02*
X030729Y004085D01*
X030606Y003962D01*
X030606Y003715D01*
X030606Y003900D02*
X030853Y003900D01*
X030484Y003900D02*
X030484Y004024D01*
X030423Y004085D01*
X030238Y004085D01*
X030238Y003715D01*
X030238Y003838D02*
X030423Y003838D01*
X030484Y003900D01*
X030423Y003085D02*
X030484Y003024D01*
X030484Y002900D01*
X030423Y002838D01*
X030238Y002838D01*
X030238Y002715D02*
X030238Y003085D01*
X030423Y003085D01*
X030606Y002962D02*
X030729Y003085D01*
X030853Y002962D01*
X030853Y002715D01*
X030853Y002900D02*
X030606Y002900D01*
X030606Y002962D02*
X030606Y002715D01*
X030974Y002900D02*
X031221Y002900D01*
X031159Y002715D02*
X031159Y003085D01*
X030974Y002900D01*
X030974Y002085D02*
X030974Y001900D01*
X031098Y001962D01*
X031159Y001962D01*
X031221Y001900D01*
X031221Y001777D01*
X031159Y001715D01*
X031036Y001715D01*
X030974Y001777D01*
X030853Y001715D02*
X030853Y001962D01*
X030729Y002085D01*
X030606Y001962D01*
X030606Y001715D01*
X030606Y001900D02*
X030853Y001900D01*
X030974Y002085D02*
X031221Y002085D01*
X030484Y002024D02*
X030484Y001900D01*
X030423Y001838D01*
X030238Y001838D01*
X030238Y001715D02*
X030238Y002085D01*
X030423Y002085D01*
X030484Y002024D01*
X030423Y001085D02*
X030484Y001024D01*
X030484Y000900D01*
X030423Y000838D01*
X030238Y000838D01*
X030238Y000715D02*
X030238Y001085D01*
X030423Y001085D01*
X030606Y000962D02*
X030729Y001085D01*
X030853Y000962D01*
X030853Y000715D01*
X030974Y000777D02*
X031036Y000715D01*
X031159Y000715D01*
X031221Y000777D01*
X031221Y000838D01*
X031159Y000900D01*
X030974Y000900D01*
X030974Y000777D01*
X030974Y000900D02*
X031098Y001024D01*
X031221Y001085D01*
X030853Y000900D02*
X030606Y000900D01*
X030606Y000962D02*
X030606Y000715D01*
X018613Y005002D02*
X018242Y005002D01*
X018242Y005125D02*
X018242Y004878D01*
X018242Y005247D02*
X018613Y005494D01*
X018613Y005247D02*
X018242Y005494D01*
X017613Y005494D02*
X017613Y005247D01*
X017366Y005494D01*
X017304Y005494D01*
X017242Y005432D01*
X017242Y005308D01*
X017304Y005247D01*
X016613Y005308D02*
X016551Y005247D01*
X016613Y005308D02*
X016613Y005432D01*
X016551Y005494D01*
X016489Y005494D01*
X016427Y005432D01*
X016427Y005370D01*
X016427Y005432D02*
X016366Y005494D01*
X016304Y005494D01*
X016242Y005432D01*
X016242Y005308D01*
X016304Y005247D01*
X004622Y005853D02*
X004561Y005853D01*
X012042Y017132D02*
X012104Y017194D01*
X012166Y017194D01*
X012227Y017132D01*
X024178Y016125D02*
X024178Y015875D01*
X024180Y015862D01*
X024185Y015850D01*
X024193Y015840D01*
X024203Y015832D01*
X024215Y015827D01*
X024228Y015825D01*
X024828Y015825D01*
X024841Y015827D01*
X024853Y015832D01*
X024863Y015840D01*
X024871Y015850D01*
X024876Y015862D01*
X024878Y015875D01*
X024878Y016125D01*
X024876Y016138D01*
X024871Y016150D01*
X024863Y016160D01*
X024853Y016168D01*
X024841Y016173D01*
X024828Y016175D01*
X024228Y016175D01*
X024215Y016173D01*
X024203Y016168D01*
X024193Y016160D01*
X024185Y016150D01*
X024180Y016138D01*
X024178Y016125D01*
X025953Y016700D02*
X025953Y017300D01*
X025955Y017313D01*
X025960Y017325D01*
X025968Y017335D01*
X025978Y017343D01*
X025990Y017348D01*
X026003Y017350D01*
X026253Y017350D01*
X026266Y017348D01*
X026278Y017343D01*
X026288Y017335D01*
X026296Y017325D01*
X026301Y017313D01*
X026303Y017300D01*
X026303Y016700D01*
X026301Y016687D01*
X026296Y016675D01*
X026288Y016665D01*
X026278Y016657D01*
X026266Y016652D01*
X026253Y016650D01*
X026003Y016650D01*
X025990Y016652D01*
X025978Y016657D01*
X025968Y016665D01*
X025960Y016675D01*
X025955Y016687D01*
X025953Y016700D01*
X027953Y016600D02*
X027953Y017200D01*
X027955Y017213D01*
X027960Y017225D01*
X027968Y017235D01*
X027978Y017243D01*
X027990Y017248D01*
X028003Y017250D01*
X028253Y017250D01*
X028266Y017248D01*
X028278Y017243D01*
X028288Y017235D01*
X028296Y017225D01*
X028301Y017213D01*
X028303Y017200D01*
X028303Y016600D01*
X028301Y016587D01*
X028296Y016575D01*
X028288Y016565D01*
X028278Y016557D01*
X028266Y016552D01*
X028253Y016550D01*
X028003Y016550D01*
X027990Y016552D01*
X027978Y016557D01*
X027968Y016565D01*
X027960Y016575D01*
X027955Y016587D01*
X027953Y016600D01*
X028453Y016600D02*
X028453Y017200D01*
X028455Y017213D01*
X028460Y017225D01*
X028468Y017235D01*
X028478Y017243D01*
X028490Y017248D01*
X028503Y017250D01*
X028753Y017250D01*
X028766Y017248D01*
X028778Y017243D01*
X028788Y017235D01*
X028796Y017225D01*
X028801Y017213D01*
X028803Y017200D01*
X028803Y016600D01*
X028801Y016587D01*
X028796Y016575D01*
X028788Y016565D01*
X028778Y016557D01*
X028766Y016552D01*
X028753Y016550D01*
X028503Y016550D01*
X028490Y016552D01*
X028478Y016557D01*
X028468Y016565D01*
X028460Y016575D01*
X028455Y016587D01*
X028453Y016600D01*
X029853Y016800D02*
X029853Y016200D01*
X029855Y016187D01*
X029860Y016175D01*
X029868Y016165D01*
X029878Y016157D01*
X029890Y016152D01*
X029903Y016150D01*
X030153Y016150D01*
X030166Y016152D01*
X030178Y016157D01*
X030188Y016165D01*
X030196Y016175D01*
X030201Y016187D01*
X030203Y016200D01*
X030203Y016800D01*
X030201Y016813D01*
X030196Y016825D01*
X030188Y016835D01*
X030178Y016843D01*
X030166Y016848D01*
X030153Y016850D01*
X029903Y016850D01*
X029890Y016848D01*
X029878Y016843D01*
X029868Y016835D01*
X029860Y016825D01*
X029855Y016813D01*
X029853Y016800D01*
X029903Y016050D02*
X030153Y016050D01*
X030166Y016048D01*
X030178Y016043D01*
X030188Y016035D01*
X030196Y016025D01*
X030201Y016013D01*
X030203Y016000D01*
X030203Y015400D01*
X030201Y015387D01*
X030196Y015375D01*
X030188Y015365D01*
X030178Y015357D01*
X030166Y015352D01*
X030153Y015350D01*
X029903Y015350D01*
X029890Y015352D01*
X029878Y015357D01*
X029868Y015365D01*
X029860Y015375D01*
X029855Y015387D01*
X029853Y015400D01*
X029853Y016000D01*
X029855Y016013D01*
X029860Y016025D01*
X029868Y016035D01*
X029878Y016043D01*
X029890Y016048D01*
X029903Y016050D01*
X029903Y015250D02*
X030153Y015250D01*
X030166Y015248D01*
X030178Y015243D01*
X030188Y015235D01*
X030196Y015225D01*
X030201Y015213D01*
X030203Y015200D01*
X030203Y014600D01*
X030201Y014587D01*
X030196Y014575D01*
X030188Y014565D01*
X030178Y014557D01*
X030166Y014552D01*
X030153Y014550D01*
X029903Y014550D01*
X029890Y014552D01*
X029878Y014557D01*
X029868Y014565D01*
X029860Y014575D01*
X029855Y014587D01*
X029853Y014600D01*
X029853Y015200D01*
X029855Y015213D01*
X029860Y015225D01*
X029868Y015235D01*
X029878Y015243D01*
X029890Y015248D01*
X029903Y015250D01*
X029903Y014450D02*
X030153Y014450D01*
X030166Y014448D01*
X030178Y014443D01*
X030188Y014435D01*
X030196Y014425D01*
X030201Y014413D01*
X030203Y014400D01*
X030203Y013800D01*
X030201Y013787D01*
X030196Y013775D01*
X030188Y013765D01*
X030178Y013757D01*
X030166Y013752D01*
X030153Y013750D01*
X029903Y013750D01*
X029890Y013752D01*
X029878Y013757D01*
X029868Y013765D01*
X029860Y013775D01*
X029855Y013787D01*
X029853Y013800D01*
X029853Y014400D01*
X029855Y014413D01*
X029860Y014425D01*
X029868Y014435D01*
X029878Y014443D01*
X029890Y014448D01*
X029903Y014450D01*
X030303Y014050D02*
X030553Y014050D01*
X030566Y014048D01*
X030578Y014043D01*
X030588Y014035D01*
X030596Y014025D01*
X030601Y014013D01*
X030603Y014000D01*
X030603Y013400D01*
X030601Y013387D01*
X030596Y013375D01*
X030588Y013365D01*
X030578Y013357D01*
X030566Y013352D01*
X030553Y013350D01*
X030303Y013350D01*
X030290Y013352D01*
X030278Y013357D01*
X030268Y013365D01*
X030260Y013375D01*
X030255Y013387D01*
X030253Y013400D01*
X030253Y014000D01*
X030255Y014013D01*
X030260Y014025D01*
X030268Y014035D01*
X030278Y014043D01*
X030290Y014048D01*
X030303Y014050D01*
X030353Y013250D02*
X030103Y013250D01*
X030090Y013248D01*
X030078Y013243D01*
X030068Y013235D01*
X030060Y013225D01*
X030055Y013213D01*
X030053Y013200D01*
X030053Y012600D01*
X030055Y012587D01*
X030060Y012575D01*
X030068Y012565D01*
X030078Y012557D01*
X030090Y012552D01*
X030103Y012550D01*
X030353Y012550D01*
X030366Y012552D01*
X030378Y012557D01*
X030388Y012565D01*
X030396Y012575D01*
X030401Y012587D01*
X030403Y012600D01*
X030403Y013200D01*
X030453Y013200D02*
X030453Y012600D01*
X030455Y012587D01*
X030460Y012575D01*
X030468Y012565D01*
X030478Y012557D01*
X030490Y012552D01*
X030503Y012550D01*
X030753Y012550D01*
X030766Y012552D01*
X030778Y012557D01*
X030788Y012565D01*
X030796Y012575D01*
X030801Y012587D01*
X030803Y012600D01*
X030803Y013200D01*
X030801Y013213D01*
X030796Y013225D01*
X030788Y013235D01*
X030778Y013243D01*
X030766Y013248D01*
X030753Y013250D01*
X030503Y013250D01*
X030490Y013248D01*
X030478Y013243D01*
X030468Y013235D01*
X030460Y013225D01*
X030455Y013213D01*
X030453Y013200D01*
X030403Y013200D02*
X030401Y013213D01*
X030396Y013225D01*
X030388Y013235D01*
X030378Y013243D01*
X030366Y013248D01*
X030353Y013250D01*
X027103Y012800D02*
X027103Y012200D01*
X027101Y012187D01*
X027096Y012175D01*
X027088Y012165D01*
X027078Y012157D01*
X027066Y012152D01*
X027053Y012150D01*
X026803Y012150D01*
X026790Y012152D01*
X026778Y012157D01*
X026768Y012165D01*
X026760Y012175D01*
X026755Y012187D01*
X026753Y012200D01*
X026753Y012800D01*
X026755Y012813D01*
X026760Y012825D01*
X026768Y012835D01*
X026778Y012843D01*
X026790Y012848D01*
X026803Y012850D01*
X027053Y012850D01*
X027066Y012848D01*
X027078Y012843D01*
X027088Y012835D01*
X027096Y012825D01*
X027101Y012813D01*
X027103Y012800D01*
X026328Y013725D02*
X025728Y013725D01*
X025715Y013727D01*
X025703Y013732D01*
X025693Y013740D01*
X025685Y013750D01*
X025680Y013762D01*
X025678Y013775D01*
X025678Y014025D01*
X025680Y014038D01*
X025685Y014050D01*
X025693Y014060D01*
X025703Y014068D01*
X025715Y014073D01*
X025728Y014075D01*
X026328Y014075D01*
X026341Y014073D01*
X026353Y014068D01*
X026363Y014060D01*
X026371Y014050D01*
X026376Y014038D01*
X026378Y014025D01*
X026378Y013775D01*
X026376Y013762D01*
X026371Y013750D01*
X026363Y013740D01*
X026353Y013732D01*
X026341Y013727D01*
X026328Y013725D01*
X026328Y014125D02*
X025728Y014125D01*
X025715Y014127D01*
X025703Y014132D01*
X025693Y014140D01*
X025685Y014150D01*
X025680Y014162D01*
X025678Y014175D01*
X025678Y014425D01*
X025680Y014438D01*
X025685Y014450D01*
X025693Y014460D01*
X025703Y014468D01*
X025715Y014473D01*
X025728Y014475D01*
X026328Y014475D01*
X026341Y014473D01*
X026353Y014468D01*
X026363Y014460D01*
X026371Y014450D01*
X026376Y014438D01*
X026378Y014425D01*
X026378Y014175D01*
X026376Y014162D01*
X026371Y014150D01*
X026363Y014140D01*
X026353Y014132D01*
X026341Y014127D01*
X026328Y014125D01*
X025078Y013525D02*
X025078Y013275D01*
X025076Y013262D01*
X025071Y013250D01*
X025063Y013240D01*
X025053Y013232D01*
X025041Y013227D01*
X025028Y013225D01*
X024428Y013225D01*
X024415Y013227D01*
X024403Y013232D01*
X024393Y013240D01*
X024385Y013250D01*
X024380Y013262D01*
X024378Y013275D01*
X024378Y013525D01*
X024380Y013538D01*
X024385Y013550D01*
X024393Y013560D01*
X024403Y013568D01*
X024415Y013573D01*
X024428Y013575D01*
X025028Y013575D01*
X025041Y013573D01*
X025053Y013568D01*
X025063Y013560D01*
X025071Y013550D01*
X025076Y013538D01*
X025078Y013525D01*
D12*
X013582Y006050D02*
X013475Y006157D01*
X013261Y006157D01*
X013155Y006050D01*
X013155Y005837D01*
X013261Y005730D01*
X013475Y005730D01*
X013582Y005837D01*
X013582Y006050D01*
X012937Y006050D02*
X012937Y005730D01*
X012937Y006050D02*
X012830Y006157D01*
X012510Y006157D01*
X012510Y005730D01*
X012294Y005730D02*
X012080Y005730D01*
X012187Y005730D02*
X012187Y006157D01*
X012080Y006157D01*
X011863Y006157D02*
X011863Y005730D01*
X011543Y005730D01*
X011436Y005837D01*
X011436Y006157D01*
X011218Y006157D02*
X010898Y006157D01*
X010791Y006050D01*
X010791Y005837D01*
X010898Y005730D01*
X011218Y005730D01*
X011218Y006371D01*
X010574Y006371D02*
X010147Y006371D01*
X010147Y005730D01*
X010574Y005730D01*
X010360Y006050D02*
X010147Y006050D01*
X009929Y005730D02*
X009502Y005730D01*
X009502Y006371D01*
X009285Y006264D02*
X009285Y006157D01*
X009178Y006050D01*
X008858Y006050D01*
X009178Y006050D02*
X009285Y005944D01*
X009285Y005837D01*
X009178Y005730D01*
X008858Y005730D01*
X008858Y006371D01*
X009178Y006371D01*
X009285Y006264D01*
X009409Y004877D02*
X009409Y004771D01*
X009409Y004557D02*
X009409Y004130D01*
X009302Y004130D02*
X009516Y004130D01*
X009732Y004237D02*
X009839Y004130D01*
X010159Y004130D01*
X010159Y004023D02*
X010159Y004557D01*
X009839Y004557D01*
X009732Y004450D01*
X009732Y004237D01*
X010052Y003916D02*
X010159Y004023D01*
X010052Y003916D02*
X009945Y003916D01*
X009409Y004557D02*
X009302Y004557D01*
X009085Y004557D02*
X009085Y004664D01*
X008978Y004771D01*
X008658Y004771D01*
X008658Y004130D01*
X008978Y004130D01*
X009085Y004237D01*
X009085Y004344D01*
X008978Y004450D01*
X008658Y004450D01*
X008978Y004450D02*
X009085Y004557D01*
X011021Y004450D02*
X011341Y004450D01*
X011448Y004344D01*
X011448Y004237D01*
X011341Y004130D01*
X011021Y004130D01*
X011021Y004771D01*
X011341Y004771D01*
X011448Y004664D01*
X011448Y004557D01*
X011341Y004450D01*
X011665Y004450D02*
X011665Y004237D01*
X011772Y004130D01*
X011986Y004130D01*
X012092Y004237D01*
X012092Y004450D01*
X011986Y004557D01*
X011772Y004557D01*
X011665Y004450D01*
X012310Y004237D02*
X012417Y004130D01*
X012737Y004130D01*
X012737Y004450D01*
X012630Y004557D01*
X012417Y004557D01*
X012417Y004344D02*
X012737Y004344D01*
X012955Y004344D02*
X013168Y004557D01*
X013275Y004557D01*
X013492Y004450D02*
X013598Y004557D01*
X013919Y004557D01*
X013919Y004771D02*
X013919Y004130D01*
X013598Y004130D01*
X013492Y004237D01*
X013492Y004450D01*
X012955Y004557D02*
X012955Y004130D01*
X012417Y004344D02*
X012310Y004237D01*
X012187Y006371D02*
X012187Y006477D01*
X005698Y003630D02*
X005698Y003330D01*
X004558Y003330D01*
X004558Y003630D01*
X005698Y003630D01*
X004197Y003799D02*
X004197Y003161D01*
X004160Y003161D01*
X003843Y003161D02*
X003432Y003161D01*
X003115Y003161D02*
X003078Y003161D01*
X003078Y003799D01*
X003115Y003799D01*
X003432Y003799D02*
X003469Y003799D01*
X003806Y003799D02*
X003843Y003799D01*
X004160Y003799D02*
X004197Y003799D01*
X004318Y001730D02*
X003178Y001730D01*
X003178Y001430D01*
X004318Y001430D01*
X004318Y001730D01*
X007978Y015200D02*
X009478Y015200D01*
X009728Y015450D01*
X009728Y015950D01*
X009478Y016200D01*
X007978Y016200D01*
X007728Y015950D01*
X007728Y015450D01*
X007978Y015200D01*
X007978Y016200D02*
X007728Y016450D01*
X007728Y016950D01*
X007978Y017200D01*
X009478Y017200D01*
X009728Y016950D01*
X009728Y016450D01*
X009478Y016200D01*
X009478Y017200D02*
X009728Y017450D01*
X009728Y017950D01*
X009478Y018200D01*
X007978Y018200D01*
X007728Y017950D01*
X007728Y017450D01*
X007978Y017200D01*
D13*
X007618Y017297D02*
X007337Y017297D01*
X007431Y017391D01*
X007337Y017484D01*
X007618Y017484D01*
X007618Y017573D02*
X007618Y017667D01*
X007618Y017620D02*
X007337Y017620D01*
X007337Y017573D02*
X007337Y017667D01*
X007384Y017758D02*
X007431Y017758D01*
X007477Y017804D01*
X007477Y017898D01*
X007524Y017944D01*
X007571Y017944D01*
X007618Y017898D01*
X007618Y017804D01*
X007571Y017758D01*
X007384Y017758D02*
X007337Y017804D01*
X007337Y017898D01*
X007384Y017944D01*
X007384Y018034D02*
X007571Y018034D01*
X007618Y018080D01*
X007618Y018174D01*
X007571Y018221D01*
X007384Y018221D01*
X007337Y018174D01*
X007337Y018080D01*
X007384Y018034D01*
X007337Y017021D02*
X007524Y016834D01*
X007477Y016880D02*
X007618Y017021D01*
X007618Y016834D02*
X007337Y016834D01*
X007384Y016744D02*
X007337Y016698D01*
X007337Y016604D01*
X007384Y016558D01*
X007571Y016558D01*
X007618Y016604D01*
X007618Y016698D01*
X007571Y016744D01*
X007571Y016468D02*
X007618Y016421D01*
X007618Y016328D01*
X007571Y016281D01*
X007477Y016328D02*
X007477Y016421D01*
X007524Y016468D01*
X007571Y016468D01*
X007477Y016328D02*
X007431Y016281D01*
X007384Y016281D01*
X007337Y016328D01*
X007337Y016421D01*
X007384Y016468D01*
X007337Y016049D02*
X007337Y015862D01*
X007337Y015956D02*
X007618Y015956D01*
X007571Y015773D02*
X007618Y015726D01*
X007618Y015633D01*
X007571Y015586D01*
X007618Y015497D02*
X007524Y015403D01*
X007524Y015450D02*
X007524Y015310D01*
X007618Y015310D02*
X007337Y015310D01*
X007337Y015450D01*
X007384Y015497D01*
X007477Y015497D01*
X007524Y015450D01*
X007431Y015586D02*
X007477Y015633D01*
X007477Y015726D01*
X007524Y015773D01*
X007571Y015773D01*
X007384Y015773D02*
X007337Y015726D01*
X007337Y015633D01*
X007384Y015586D01*
X007431Y015586D01*
X009837Y015586D02*
X010118Y015773D01*
X009837Y015773D01*
X009837Y015862D02*
X009837Y016003D01*
X009884Y016049D01*
X010071Y016049D01*
X010118Y016003D01*
X010118Y015862D01*
X009837Y015862D01*
X009837Y016210D02*
X009931Y016303D01*
X009837Y016397D01*
X010118Y016397D01*
X010071Y016486D02*
X009884Y016486D01*
X009837Y016533D01*
X009837Y016626D01*
X009884Y016673D01*
X010071Y016673D01*
X010118Y016626D01*
X010118Y016533D01*
X010071Y016486D01*
X010071Y016762D02*
X010118Y016809D01*
X010118Y016903D01*
X010071Y016949D01*
X010024Y016949D01*
X009977Y016903D01*
X009977Y016809D01*
X009931Y016762D01*
X009884Y016762D01*
X009837Y016809D01*
X009837Y016903D01*
X009884Y016949D01*
X009837Y017039D02*
X009837Y017132D01*
X009837Y017085D02*
X010118Y017085D01*
X010118Y017039D02*
X010118Y017132D01*
X010071Y017458D02*
X010118Y017504D01*
X010118Y017598D01*
X010071Y017644D01*
X009977Y017644D01*
X009931Y017598D01*
X009931Y017551D01*
X009977Y017458D01*
X009837Y017458D01*
X009837Y017644D01*
X009837Y017734D02*
X010024Y017734D01*
X010118Y017827D01*
X010024Y017921D01*
X009837Y017921D01*
X010548Y018000D02*
X010642Y018000D01*
X010595Y018000D02*
X010595Y018140D01*
X010548Y018093D01*
X010696Y018117D02*
X010719Y018140D01*
X010766Y018140D01*
X010789Y018117D01*
X010696Y018023D01*
X010719Y018000D01*
X010766Y018000D01*
X010789Y018023D01*
X010789Y018117D01*
X010843Y018117D02*
X010866Y018140D01*
X010913Y018140D01*
X010936Y018117D01*
X010843Y018023D01*
X010866Y018000D01*
X010913Y018000D01*
X010936Y018023D01*
X010936Y018117D01*
X010990Y018093D02*
X011060Y018093D01*
X011084Y018070D01*
X011084Y018000D01*
X010990Y018000D02*
X010990Y018093D01*
X010843Y018117D02*
X010843Y018023D01*
X010696Y018023D02*
X010696Y018117D01*
X010984Y017100D02*
X010984Y016960D01*
X010938Y016960D02*
X011031Y016960D01*
X011085Y016983D02*
X011108Y016960D01*
X011178Y016960D01*
X011178Y017053D01*
X011232Y017030D02*
X011279Y017030D01*
X011232Y017100D02*
X011326Y017100D01*
X011232Y017100D02*
X011232Y016960D01*
X011085Y016983D02*
X011085Y017053D01*
X010984Y017100D02*
X010938Y017053D01*
X010118Y016210D02*
X009837Y016210D01*
X009837Y015586D02*
X010118Y015586D01*
X010071Y015497D02*
X009977Y015497D01*
X009977Y015403D01*
X009884Y015310D02*
X010071Y015310D01*
X010118Y015357D01*
X010118Y015450D01*
X010071Y015497D01*
X009884Y015497D02*
X009837Y015450D01*
X009837Y015357D01*
X009884Y015310D01*
X010696Y015093D02*
X010742Y015140D01*
X010742Y015000D01*
X010696Y015000D02*
X010789Y015000D01*
X010843Y015023D02*
X010936Y015117D01*
X010936Y015023D01*
X010913Y015000D01*
X010866Y015000D01*
X010843Y015023D01*
X010843Y015117D01*
X010866Y015140D01*
X010913Y015140D01*
X010936Y015117D01*
X010990Y015140D02*
X010990Y015000D01*
X010990Y015047D02*
X011084Y015140D01*
X011014Y015070D02*
X011084Y015000D01*
X011084Y013340D02*
X010990Y013340D01*
X010990Y013200D01*
X010936Y013200D02*
X010936Y013293D01*
X010990Y013270D02*
X011037Y013270D01*
X010936Y013200D02*
X010866Y013200D01*
X010843Y013223D01*
X010843Y013293D01*
X010789Y013200D02*
X010696Y013200D01*
X010742Y013200D02*
X010742Y013340D01*
X010696Y013293D01*
X017527Y015557D02*
X017668Y015557D01*
X017668Y015603D02*
X017668Y015510D01*
X017574Y015510D02*
X017527Y015557D01*
X017551Y015657D02*
X017527Y015681D01*
X017527Y015727D01*
X017551Y015751D01*
X017644Y015657D01*
X017668Y015681D01*
X017668Y015727D01*
X017644Y015751D01*
X017551Y015751D01*
X017527Y015805D02*
X017668Y015805D01*
X017621Y015805D02*
X017527Y015898D01*
X017597Y015828D02*
X017668Y015898D01*
X017644Y015657D02*
X017551Y015657D01*
X018717Y015657D02*
X018858Y015657D01*
X018811Y015657D02*
X018717Y015751D01*
X018787Y015681D02*
X018858Y015751D01*
X018858Y015603D02*
X018858Y015510D01*
X018858Y015557D02*
X018717Y015557D01*
X018764Y015510D01*
X024448Y013143D02*
X024495Y013190D01*
X024495Y013050D01*
X024448Y013050D02*
X024542Y013050D01*
X024596Y013073D02*
X024619Y013050D01*
X024666Y013050D01*
X024689Y013073D01*
X024689Y013120D01*
X024666Y013143D01*
X024642Y013143D01*
X024596Y013120D01*
X024596Y013190D01*
X024689Y013190D01*
X024743Y013143D02*
X024813Y013143D01*
X024836Y013120D01*
X024836Y013073D01*
X024813Y013050D01*
X024743Y013050D01*
X024743Y013003D02*
X024743Y013143D01*
X024890Y013120D02*
X024937Y013120D01*
X024890Y013050D02*
X024890Y013190D01*
X024984Y013190D01*
X026513Y013883D02*
X026536Y013860D01*
X026583Y013860D01*
X026606Y013883D01*
X026606Y013907D01*
X026583Y013930D01*
X026559Y013930D01*
X026583Y013930D02*
X026606Y013953D01*
X026606Y013977D01*
X026583Y014000D01*
X026536Y014000D01*
X026513Y013977D01*
X026660Y013977D02*
X026683Y014000D01*
X026730Y014000D01*
X026753Y013977D01*
X026753Y013953D01*
X026730Y013930D01*
X026753Y013907D01*
X026753Y013883D01*
X026730Y013860D01*
X026683Y013860D01*
X026660Y013883D01*
X026707Y013930D02*
X026730Y013930D01*
X026807Y013953D02*
X026807Y013860D01*
X026807Y013953D02*
X026877Y013953D01*
X026901Y013930D01*
X026901Y013860D01*
X026955Y013860D02*
X026955Y014000D01*
X027048Y014000D01*
X027001Y013930D02*
X026955Y013930D01*
X026955Y014260D02*
X026955Y014353D01*
X027025Y014353D01*
X027048Y014330D01*
X027048Y014260D01*
X027102Y014260D02*
X027102Y014400D01*
X027195Y014400D01*
X027149Y014330D02*
X027102Y014330D01*
X026901Y014377D02*
X026901Y014283D01*
X026877Y014260D01*
X026831Y014260D01*
X026807Y014283D01*
X026901Y014377D01*
X026877Y014400D01*
X026831Y014400D01*
X026807Y014377D01*
X026807Y014283D01*
X026753Y014283D02*
X026730Y014260D01*
X026683Y014260D01*
X026660Y014283D01*
X026753Y014377D01*
X026753Y014283D01*
X026660Y014283D02*
X026660Y014377D01*
X026683Y014400D01*
X026730Y014400D01*
X026753Y014377D01*
X026606Y014260D02*
X026513Y014260D01*
X026559Y014260D02*
X026559Y014400D01*
X026513Y014353D01*
X026713Y014670D02*
X026806Y014670D01*
X026759Y014670D02*
X026759Y014810D01*
X026713Y014763D01*
X026860Y014763D02*
X026860Y014693D01*
X026883Y014670D01*
X026953Y014670D01*
X026953Y014763D01*
X027007Y014740D02*
X027054Y014740D01*
X027007Y014810D02*
X027101Y014810D01*
X027007Y014810D02*
X027007Y014670D01*
X027073Y015730D02*
X027167Y015730D01*
X027120Y015730D02*
X027120Y015870D01*
X027073Y015823D01*
X027221Y015847D02*
X027244Y015870D01*
X027291Y015870D01*
X027314Y015847D01*
X027221Y015753D01*
X027244Y015730D01*
X027291Y015730D01*
X027314Y015753D01*
X027314Y015847D01*
X027368Y015823D02*
X027368Y015753D01*
X027391Y015730D01*
X027461Y015730D01*
X027461Y015823D01*
X027515Y015800D02*
X027609Y015800D01*
X027609Y015870D02*
X027609Y015730D01*
X027515Y015730D02*
X027515Y015870D01*
X027221Y015847D02*
X027221Y015753D01*
X026409Y015730D02*
X026409Y015870D01*
X026409Y015800D02*
X026315Y015800D01*
X026261Y015800D02*
X026261Y015730D01*
X026315Y015730D02*
X026315Y015870D01*
X026261Y015800D02*
X026238Y015823D01*
X026168Y015823D01*
X026168Y015730D01*
X026114Y015753D02*
X026091Y015730D01*
X026044Y015730D01*
X026021Y015753D01*
X026021Y015800D02*
X026067Y015823D01*
X026091Y015823D01*
X026114Y015800D01*
X026114Y015753D01*
X026021Y015800D02*
X026021Y015870D01*
X026114Y015870D01*
X025920Y015870D02*
X025920Y015730D01*
X025873Y015730D02*
X025967Y015730D01*
X025873Y015823D02*
X025920Y015870D01*
X025484Y016090D02*
X025390Y016090D01*
X025390Y015950D01*
X025336Y015973D02*
X025313Y015950D01*
X025243Y015950D01*
X025243Y015903D02*
X025243Y016043D01*
X025313Y016043D01*
X025336Y016020D01*
X025336Y015973D01*
X025390Y016020D02*
X025437Y016020D01*
X025189Y016020D02*
X025189Y015973D01*
X025166Y015950D01*
X025119Y015950D01*
X025096Y015973D01*
X025096Y016020D02*
X025142Y016043D01*
X025166Y016043D01*
X025189Y016020D01*
X025189Y016090D02*
X025096Y016090D01*
X025096Y016020D01*
X025042Y015950D02*
X024948Y015950D01*
X024995Y015950D02*
X024995Y016090D01*
X024948Y016043D01*
X024962Y016835D02*
X024962Y016922D01*
X025014Y016900D02*
X025057Y016900D01*
X025014Y016835D02*
X025014Y016965D01*
X025101Y016965D01*
X024962Y016835D02*
X024897Y016835D01*
X024876Y016857D01*
X024876Y016922D01*
X024824Y016835D02*
X024738Y016835D01*
X024781Y016835D02*
X024781Y016965D01*
X024738Y016922D01*
X025885Y017460D02*
X025972Y017460D01*
X025928Y017460D02*
X025928Y017590D01*
X025885Y017547D01*
X026023Y017568D02*
X026045Y017590D01*
X026088Y017590D01*
X026110Y017568D01*
X026110Y017547D01*
X026023Y017460D01*
X026110Y017460D01*
X026161Y017460D02*
X026226Y017460D01*
X026248Y017482D01*
X026248Y017525D01*
X026226Y017547D01*
X026161Y017547D01*
X026161Y017417D01*
X026299Y017460D02*
X026299Y017590D01*
X026386Y017590D01*
X026343Y017525D02*
X026299Y017525D01*
X027885Y017447D02*
X027928Y017490D01*
X027928Y017360D01*
X027885Y017360D02*
X027972Y017360D01*
X028023Y017360D02*
X028110Y017447D01*
X028110Y017468D01*
X028088Y017490D01*
X028045Y017490D01*
X028023Y017468D01*
X028023Y017360D02*
X028110Y017360D01*
X028161Y017360D02*
X028226Y017360D01*
X028248Y017382D01*
X028248Y017425D01*
X028226Y017447D01*
X028161Y017447D01*
X028161Y017317D01*
X028299Y017360D02*
X028299Y017490D01*
X028386Y017490D01*
X028423Y017447D02*
X028467Y017490D01*
X028467Y017360D01*
X028510Y017360D02*
X028423Y017360D01*
X028343Y017425D02*
X028299Y017425D01*
X028561Y017447D02*
X028561Y017360D01*
X028561Y017447D02*
X028626Y017447D01*
X028648Y017425D01*
X028648Y017360D01*
X028699Y017360D02*
X028699Y017490D01*
X028786Y017490D01*
X028743Y017425D02*
X028699Y017425D01*
X028948Y017510D02*
X029035Y017597D01*
X029035Y017618D01*
X029013Y017640D01*
X028970Y017640D01*
X028948Y017618D01*
X028948Y017510D02*
X029035Y017510D01*
X029086Y017510D02*
X029173Y017597D01*
X029173Y017618D01*
X029151Y017640D01*
X029108Y017640D01*
X029086Y017618D01*
X029086Y017510D02*
X029173Y017510D01*
X029224Y017510D02*
X029224Y017640D01*
X029246Y017575D02*
X029311Y017510D01*
X029224Y017553D02*
X029311Y017640D01*
X030287Y016780D02*
X030287Y016693D01*
X030418Y016693D01*
X030396Y016642D02*
X030418Y016620D01*
X030418Y016555D01*
X030461Y016555D02*
X030331Y016555D01*
X030331Y016620D01*
X030352Y016642D01*
X030396Y016642D01*
X030352Y016693D02*
X030352Y016737D01*
X030331Y016504D02*
X030309Y016504D01*
X030287Y016482D01*
X030287Y016439D01*
X030309Y016417D01*
X030331Y016504D02*
X030418Y016417D01*
X030418Y016504D01*
X030418Y016370D02*
X030418Y016348D01*
X030396Y016348D01*
X030396Y016370D01*
X030418Y016370D01*
X030418Y016297D02*
X030418Y016210D01*
X030418Y016253D02*
X030287Y016253D01*
X030331Y016210D01*
X030287Y015980D02*
X030287Y015893D01*
X030418Y015893D01*
X030396Y015842D02*
X030418Y015820D01*
X030418Y015755D01*
X030461Y015755D02*
X030331Y015755D01*
X030331Y015820D01*
X030352Y015842D01*
X030396Y015842D01*
X030352Y015893D02*
X030352Y015937D01*
X030331Y015704D02*
X030352Y015682D01*
X030352Y015639D01*
X030331Y015617D01*
X030309Y015617D01*
X030287Y015639D01*
X030287Y015682D01*
X030309Y015704D01*
X030331Y015704D01*
X030352Y015682D02*
X030374Y015704D01*
X030396Y015704D01*
X030418Y015682D01*
X030418Y015639D01*
X030396Y015617D01*
X030374Y015617D01*
X030352Y015639D01*
X030396Y015570D02*
X030418Y015570D01*
X030418Y015548D01*
X030396Y015548D01*
X030396Y015570D01*
X030418Y015497D02*
X030418Y015410D01*
X030418Y015453D02*
X030287Y015453D01*
X030331Y015410D01*
X030352Y015180D02*
X030352Y015093D01*
X030352Y015042D02*
X030418Y015042D01*
X030418Y015093D02*
X030287Y015093D01*
X030352Y015042D02*
X030331Y015020D01*
X030331Y014955D01*
X030418Y014955D01*
X030396Y014904D02*
X030309Y014904D01*
X030287Y014882D01*
X030287Y014839D01*
X030309Y014817D01*
X030331Y014817D01*
X030352Y014839D01*
X030352Y014904D01*
X030396Y014904D02*
X030418Y014882D01*
X030418Y014839D01*
X030396Y014817D01*
X030396Y014770D02*
X030418Y014770D01*
X030418Y014748D01*
X030396Y014748D01*
X030396Y014770D01*
X030396Y014697D02*
X030418Y014675D01*
X030418Y014632D01*
X030396Y014610D01*
X030352Y014653D02*
X030352Y014675D01*
X030374Y014697D01*
X030396Y014697D01*
X030352Y014675D02*
X030331Y014697D01*
X030309Y014697D01*
X030287Y014675D01*
X030287Y014632D01*
X030309Y014610D01*
X029818Y014380D02*
X029687Y014380D01*
X029752Y014380D02*
X029752Y014293D01*
X029752Y014242D02*
X029818Y014242D01*
X029818Y014293D02*
X029687Y014293D01*
X029752Y014242D02*
X029731Y014220D01*
X029731Y014155D01*
X029818Y014155D01*
X029818Y014104D02*
X029818Y014017D01*
X029731Y014104D01*
X029709Y014104D01*
X029687Y014082D01*
X029687Y014039D01*
X029709Y014017D01*
X029796Y013970D02*
X029818Y013970D01*
X029818Y013948D01*
X029796Y013948D01*
X029796Y013970D01*
X029796Y013897D02*
X029774Y013897D01*
X029752Y013875D01*
X029752Y013832D01*
X029731Y013810D01*
X029709Y013810D01*
X029687Y013832D01*
X029687Y013875D01*
X029709Y013897D01*
X029731Y013897D01*
X029752Y013875D01*
X029752Y013832D02*
X029774Y013810D01*
X029796Y013810D01*
X029818Y013832D01*
X029818Y013875D01*
X029796Y013897D01*
X030637Y013872D02*
X030768Y013872D01*
X030768Y013821D02*
X030702Y013821D01*
X030681Y013799D01*
X030681Y013734D01*
X030768Y013734D01*
X030746Y013682D02*
X030724Y013682D01*
X030702Y013661D01*
X030702Y013596D01*
X030746Y013596D01*
X030768Y013617D01*
X030768Y013661D01*
X030746Y013682D01*
X030702Y013596D02*
X030659Y013639D01*
X030637Y013682D01*
X030746Y013548D02*
X030768Y013548D01*
X030768Y013527D01*
X030746Y013527D01*
X030746Y013548D01*
X030746Y013475D02*
X030768Y013454D01*
X030768Y013410D01*
X030746Y013388D01*
X030702Y013388D02*
X030681Y013432D01*
X030681Y013454D01*
X030702Y013475D01*
X030746Y013475D01*
X030702Y013388D02*
X030637Y013388D01*
X030637Y013475D01*
X030887Y013180D02*
X030887Y013093D01*
X031018Y013093D01*
X031018Y013042D02*
X030952Y013042D01*
X030931Y013020D01*
X030931Y012955D01*
X031018Y012955D01*
X031018Y012904D02*
X031018Y012817D01*
X030931Y012904D01*
X030909Y012904D01*
X030887Y012882D01*
X030887Y012839D01*
X030909Y012817D01*
X030996Y012770D02*
X031018Y012770D01*
X031018Y012748D01*
X030996Y012748D01*
X030996Y012770D01*
X031018Y012697D02*
X031018Y012610D01*
X030931Y012697D01*
X030909Y012697D01*
X030887Y012675D01*
X030887Y012632D01*
X030909Y012610D01*
X030952Y013093D02*
X030952Y013137D01*
X029968Y013073D02*
X029881Y013073D01*
X029837Y013030D01*
X029881Y012986D01*
X029968Y012986D01*
X029902Y012986D02*
X029902Y013073D01*
X029837Y012935D02*
X029968Y012848D01*
X029968Y012797D02*
X029837Y012797D01*
X029837Y012710D02*
X029968Y012797D01*
X029968Y012710D02*
X029837Y012710D01*
X029088Y013314D02*
X028937Y013314D01*
X029088Y013414D01*
X028937Y013414D01*
X028937Y013471D02*
X028937Y013546D01*
X028962Y013571D01*
X029012Y013571D01*
X029038Y013546D01*
X029038Y013471D01*
X029088Y013471D02*
X028937Y013471D01*
X029038Y013521D02*
X029088Y013571D01*
X029088Y013627D02*
X028937Y013627D01*
X028937Y013727D01*
X028962Y013784D02*
X028987Y013784D01*
X029012Y013809D01*
X029012Y013859D01*
X029038Y013884D01*
X029063Y013884D01*
X029088Y013859D01*
X029088Y013809D01*
X029063Y013784D01*
X029038Y013784D01*
X029012Y013809D01*
X029012Y013859D02*
X028987Y013884D01*
X028962Y013884D01*
X028937Y013859D01*
X028937Y013809D01*
X028962Y013784D01*
X029012Y013677D02*
X029012Y013627D01*
X028962Y013940D02*
X028937Y013965D01*
X028937Y014015D01*
X028962Y014040D01*
X029063Y013940D01*
X029088Y013965D01*
X029088Y014015D01*
X029063Y014040D01*
X028962Y014040D01*
X028962Y014097D02*
X028937Y014122D01*
X028937Y014172D01*
X028962Y014197D01*
X029063Y014097D01*
X029088Y014122D01*
X029088Y014172D01*
X029063Y014197D01*
X028962Y014197D01*
X028987Y014253D02*
X028937Y014304D01*
X029088Y014304D01*
X029088Y014354D02*
X029088Y014253D01*
X029063Y014097D02*
X028962Y014097D01*
X028962Y013940D02*
X029063Y013940D01*
X030637Y013959D02*
X030768Y013959D01*
X030702Y013959D02*
X030702Y013872D01*
X030418Y015180D02*
X030287Y015180D01*
X027252Y012806D02*
X027252Y012762D01*
X027252Y012711D02*
X027318Y012711D01*
X027318Y012762D02*
X027187Y012762D01*
X027187Y012849D01*
X027252Y012711D02*
X027231Y012689D01*
X027231Y012624D01*
X027318Y012624D01*
X027296Y012573D02*
X027318Y012551D01*
X027318Y012508D01*
X027296Y012486D01*
X027209Y012573D01*
X027296Y012573D01*
X027296Y012486D02*
X027209Y012486D01*
X027187Y012508D01*
X027187Y012551D01*
X027209Y012573D01*
X027209Y012435D02*
X027296Y012348D01*
X027318Y012370D01*
X027318Y012413D01*
X027296Y012435D01*
X027209Y012435D01*
X027187Y012413D01*
X027187Y012370D01*
X027209Y012348D01*
X027296Y012348D01*
X027318Y012297D02*
X027318Y012210D01*
X027318Y012253D02*
X027187Y012253D01*
X027231Y012210D01*
X027727Y011173D02*
X027821Y011080D01*
X027797Y011103D02*
X027868Y011173D01*
X027868Y011080D02*
X027727Y011080D01*
X027751Y011026D02*
X027844Y010932D01*
X027868Y010956D01*
X027868Y011002D01*
X027844Y011026D01*
X027751Y011026D01*
X027727Y011002D01*
X027727Y010956D01*
X027751Y010932D01*
X027844Y010932D01*
X027868Y010878D02*
X027868Y010785D01*
X027774Y010878D01*
X027751Y010878D01*
X027727Y010855D01*
X027727Y010808D01*
X027751Y010785D01*
X028127Y010832D02*
X028268Y010832D01*
X028268Y010878D02*
X028268Y010785D01*
X028174Y010785D02*
X028127Y010832D01*
X028151Y010932D02*
X028127Y010956D01*
X028127Y011002D01*
X028151Y011026D01*
X028244Y010932D01*
X028268Y010956D01*
X028268Y011002D01*
X028244Y011026D01*
X028151Y011026D01*
X028127Y011080D02*
X028268Y011080D01*
X028221Y011080D02*
X028127Y011173D01*
X028197Y011103D02*
X028268Y011173D01*
X028244Y010932D02*
X028151Y010932D01*
X029327Y010956D02*
X029327Y011002D01*
X029351Y011026D01*
X029444Y010932D01*
X029468Y010956D01*
X029468Y011002D01*
X029444Y011026D01*
X029351Y011026D01*
X029327Y011080D02*
X029468Y011080D01*
X029421Y011080D02*
X029327Y011173D01*
X029397Y011103D02*
X029468Y011173D01*
X029444Y010932D02*
X029351Y010932D01*
X029327Y010956D01*
X029351Y010878D02*
X029327Y010855D01*
X029327Y010808D01*
X029351Y010785D01*
X029351Y010878D02*
X029374Y010878D01*
X029468Y010785D01*
X029468Y010878D01*
X029537Y010549D02*
X029818Y010549D01*
X029537Y010362D01*
X029818Y010362D01*
X029771Y010273D02*
X029584Y010273D01*
X029537Y010226D01*
X029537Y010086D01*
X029818Y010086D01*
X029818Y010226D01*
X029771Y010273D01*
X029818Y009997D02*
X029724Y009903D01*
X029724Y009950D02*
X029724Y009810D01*
X029818Y009810D02*
X029537Y009810D01*
X029537Y009950D01*
X029584Y009997D01*
X029677Y009997D01*
X029724Y009950D01*
X029261Y009857D02*
X029261Y010044D01*
X029214Y010090D01*
X029121Y010090D01*
X029074Y010044D01*
X029074Y009857D01*
X029121Y009810D01*
X029214Y009810D01*
X029261Y009857D01*
X028985Y009857D02*
X028938Y009810D01*
X028845Y009810D01*
X028798Y009857D01*
X028707Y009810D02*
X028614Y009810D01*
X028660Y009810D02*
X028660Y010090D01*
X028614Y010090D02*
X028707Y010090D01*
X028798Y010044D02*
X028798Y009997D01*
X028845Y009950D01*
X028938Y009950D01*
X028985Y009903D01*
X028985Y009857D01*
X028985Y010044D02*
X028938Y010090D01*
X028845Y010090D01*
X028798Y010044D01*
X028524Y010090D02*
X028524Y009810D01*
X028338Y009810D02*
X028338Y010090D01*
X028431Y009997D01*
X028524Y010090D01*
X028260Y010090D02*
X028166Y010090D01*
X028213Y010090D02*
X028213Y009810D01*
X028166Y009810D02*
X028260Y009810D01*
X028077Y009857D02*
X028030Y009810D01*
X027937Y009810D01*
X027890Y009857D01*
X027801Y009857D02*
X027801Y010044D01*
X027754Y010090D01*
X027660Y010090D01*
X027614Y010044D01*
X027614Y009857D01*
X027660Y009810D01*
X027754Y009810D01*
X027801Y009857D01*
X027937Y009950D02*
X028030Y009950D01*
X028077Y009903D01*
X028077Y009857D01*
X027937Y009950D02*
X027890Y009997D01*
X027890Y010044D01*
X027937Y010090D01*
X028030Y010090D01*
X028077Y010044D01*
X027524Y010090D02*
X027524Y009810D01*
X027338Y009810D02*
X027338Y010090D01*
X027431Y009997D01*
X027524Y010090D01*
X027177Y010090D02*
X027177Y009810D01*
X026990Y010090D01*
X026990Y009810D01*
X026901Y009810D02*
X026807Y009903D01*
X026714Y009857D02*
X026760Y009810D01*
X026854Y009810D01*
X026901Y009857D01*
X026901Y010044D01*
X026854Y010090D01*
X026760Y010090D01*
X026714Y010044D01*
X026714Y009857D01*
X026624Y009810D02*
X026531Y009903D01*
X026578Y009903D02*
X026438Y009903D01*
X026438Y009810D02*
X026438Y010090D01*
X026578Y010090D01*
X026624Y010044D01*
X026624Y009950D01*
X026578Y009903D01*
X026077Y009810D02*
X025937Y009950D01*
X025890Y009903D02*
X026077Y010090D01*
X025890Y010090D02*
X025890Y009810D01*
X025801Y009857D02*
X025754Y009810D01*
X025660Y009810D01*
X025614Y009857D01*
X025614Y010044D01*
X025660Y010090D01*
X025754Y010090D01*
X025801Y010044D01*
X025524Y010044D02*
X025478Y010090D01*
X025384Y010090D01*
X025338Y010044D01*
X025338Y009997D01*
X025384Y009950D01*
X025478Y009950D01*
X025524Y009903D01*
X025524Y009857D01*
X025478Y009810D01*
X025384Y009810D01*
X025338Y009857D01*
X024818Y009857D02*
X024771Y009810D01*
X024818Y009857D02*
X024818Y009950D01*
X024771Y009997D01*
X024724Y009997D01*
X024677Y009950D01*
X024677Y009903D01*
X024677Y009950D02*
X024631Y009997D01*
X024584Y009997D01*
X024537Y009950D01*
X024537Y009857D01*
X024584Y009810D01*
X024537Y010086D02*
X024724Y010086D01*
X024818Y010180D01*
X024724Y010273D01*
X024537Y010273D01*
X024774Y010785D02*
X024727Y010832D01*
X024868Y010832D01*
X024868Y010878D02*
X024868Y010785D01*
X024844Y010932D02*
X024751Y011026D01*
X024844Y011026D01*
X024868Y011002D01*
X024868Y010956D01*
X024844Y010932D01*
X024751Y010932D01*
X024727Y010956D01*
X024727Y011002D01*
X024751Y011026D01*
X024727Y011080D02*
X024868Y011080D01*
X024821Y011080D02*
X024727Y011173D01*
X024797Y011103D02*
X024868Y011173D01*
X025927Y011173D02*
X026021Y011080D01*
X025997Y011103D02*
X026068Y011173D01*
X026068Y011080D02*
X025927Y011080D01*
X025951Y011026D02*
X026044Y010932D01*
X026068Y010956D01*
X026068Y011002D01*
X026044Y011026D01*
X025951Y011026D01*
X025927Y011002D01*
X025927Y010956D01*
X025951Y010932D01*
X026044Y010932D01*
X026068Y010878D02*
X026068Y010785D01*
X025974Y010878D01*
X025951Y010878D01*
X025927Y010855D01*
X025927Y010808D01*
X025951Y010785D01*
X026527Y010832D02*
X026668Y010832D01*
X026668Y010878D02*
X026668Y010785D01*
X026574Y010785D02*
X026527Y010832D01*
X026551Y010932D02*
X026527Y010956D01*
X026527Y011002D01*
X026551Y011026D01*
X026644Y010932D01*
X026668Y010956D01*
X026668Y011002D01*
X026644Y011026D01*
X026551Y011026D01*
X026527Y011080D02*
X026668Y011080D01*
X026621Y011080D02*
X026527Y011173D01*
X026597Y011103D02*
X026668Y011173D01*
X026644Y010932D02*
X026551Y010932D01*
X023818Y010916D02*
X023724Y010823D01*
X023537Y010823D01*
X023537Y010732D02*
X023537Y010639D01*
X023537Y010685D02*
X023818Y010685D01*
X023818Y010639D02*
X023818Y010732D01*
X023818Y010916D02*
X023724Y011010D01*
X023537Y011010D01*
X023537Y011099D02*
X023818Y011099D01*
X023818Y011286D01*
X023677Y011193D02*
X023677Y011099D01*
X023537Y011099D02*
X023537Y011286D01*
X023537Y010549D02*
X023537Y010362D01*
X023537Y010456D02*
X023818Y010456D01*
X023771Y010273D02*
X023818Y010226D01*
X023818Y010133D01*
X023771Y010086D01*
X023584Y010086D01*
X023537Y010133D01*
X023537Y010226D01*
X023584Y010273D01*
X023631Y009997D02*
X023818Y009997D01*
X023677Y009997D02*
X023677Y009810D01*
X023631Y009810D02*
X023537Y009903D01*
X023631Y009997D01*
X023631Y009810D02*
X023818Y009810D01*
X020701Y010010D02*
X020701Y010290D01*
X020514Y010290D02*
X020514Y010010D01*
X020424Y010057D02*
X020424Y010244D01*
X020378Y010290D01*
X020284Y010290D01*
X020238Y010244D01*
X020238Y010057D01*
X020284Y010010D01*
X020378Y010010D01*
X020424Y010057D01*
X020514Y010290D02*
X020701Y010010D01*
X020701Y010910D02*
X020514Y011190D01*
X020424Y011190D02*
X020238Y011190D01*
X020331Y011190D02*
X020331Y010910D01*
X020514Y010910D02*
X020701Y011190D01*
X020701Y011860D02*
X020514Y012140D01*
X020424Y012094D02*
X020424Y012000D01*
X020378Y011953D01*
X020238Y011953D01*
X020331Y011953D02*
X020424Y011860D01*
X020514Y011860D02*
X020701Y012140D01*
X020424Y012094D02*
X020378Y012140D01*
X020238Y012140D01*
X020238Y011860D01*
X017878Y011650D02*
X017785Y011557D01*
X017808Y011580D02*
X017878Y011510D01*
X017785Y011510D02*
X017785Y011650D01*
X017684Y011650D02*
X017684Y011510D01*
X017638Y011510D02*
X017731Y011510D01*
X017638Y011603D02*
X017684Y011650D01*
X017684Y010700D02*
X017684Y010560D01*
X017638Y010560D02*
X017731Y010560D01*
X017785Y010560D02*
X017785Y010700D01*
X017808Y010630D02*
X017878Y010560D01*
X017785Y010607D02*
X017878Y010700D01*
X017684Y010700D02*
X017638Y010653D01*
X017684Y009800D02*
X017684Y009660D01*
X017638Y009660D02*
X017731Y009660D01*
X017785Y009660D02*
X017785Y009800D01*
X017808Y009730D02*
X017878Y009660D01*
X017785Y009707D02*
X017878Y009800D01*
X017684Y009800D02*
X017638Y009753D01*
X016168Y008252D02*
X016027Y008252D01*
X016027Y008345D01*
X016097Y008299D02*
X016097Y008252D01*
X016097Y008198D02*
X016144Y008198D01*
X016168Y008175D01*
X016168Y008105D01*
X016214Y008105D02*
X016074Y008105D01*
X016074Y008175D01*
X016097Y008198D01*
X016074Y008051D02*
X016051Y008051D01*
X016027Y008027D01*
X016027Y007981D01*
X016051Y007957D01*
X016051Y007903D02*
X016027Y007880D01*
X016027Y007833D01*
X016051Y007810D01*
X016051Y007903D02*
X016074Y007903D01*
X016168Y007810D01*
X016168Y007903D01*
X016168Y007957D02*
X016074Y008051D01*
X016168Y008051D02*
X016168Y007957D01*
X012474Y008315D02*
X012334Y008315D01*
X012334Y008385D01*
X012357Y008409D01*
X012404Y008409D01*
X012428Y008385D01*
X012428Y008315D01*
X012428Y008261D02*
X012428Y008168D01*
X012334Y008261D01*
X012311Y008261D01*
X012287Y008238D01*
X012287Y008191D01*
X012311Y008168D01*
X012311Y008114D02*
X012287Y008091D01*
X012287Y008044D01*
X012311Y008021D01*
X012311Y008114D02*
X012334Y008114D01*
X012428Y008021D01*
X012428Y008114D01*
X012428Y008463D02*
X012287Y008463D01*
X012287Y008556D01*
X012357Y008509D02*
X012357Y008463D01*
X009873Y008760D02*
X009873Y008830D01*
X009850Y008853D01*
X009780Y008853D01*
X009780Y008760D01*
X009726Y008783D02*
X009702Y008760D01*
X009656Y008760D01*
X009632Y008783D01*
X009726Y008877D01*
X009726Y008783D01*
X009726Y008877D02*
X009702Y008900D01*
X009656Y008900D01*
X009632Y008877D01*
X009632Y008783D01*
X009578Y008783D02*
X009578Y008877D01*
X009485Y008783D01*
X009508Y008760D01*
X009555Y008760D01*
X009578Y008783D01*
X009485Y008783D02*
X009485Y008877D01*
X009508Y008900D01*
X009555Y008900D01*
X009578Y008877D01*
X009431Y008760D02*
X009338Y008760D01*
X009384Y008760D02*
X009384Y008900D01*
X009338Y008853D01*
X009384Y007900D02*
X009384Y007760D01*
X009338Y007760D02*
X009431Y007760D01*
X009485Y007783D02*
X009578Y007877D01*
X009578Y007783D01*
X009555Y007760D01*
X009508Y007760D01*
X009485Y007783D01*
X009485Y007877D01*
X009508Y007900D01*
X009555Y007900D01*
X009578Y007877D01*
X009632Y007877D02*
X009632Y007783D01*
X009726Y007877D01*
X009726Y007783D01*
X009702Y007760D01*
X009656Y007760D01*
X009632Y007783D01*
X009632Y007877D02*
X009656Y007900D01*
X009702Y007900D01*
X009726Y007877D01*
X009780Y007853D02*
X009850Y007853D01*
X009873Y007830D01*
X009873Y007760D01*
X009780Y007760D02*
X009780Y007853D01*
X009384Y007900D02*
X009338Y007853D01*
X003578Y008290D02*
X003578Y008383D01*
X003578Y008337D02*
X003437Y008337D01*
X003484Y008290D01*
X003461Y008437D02*
X003437Y008461D01*
X003437Y008507D01*
X003461Y008531D01*
X003554Y008437D01*
X003578Y008461D01*
X003578Y008507D01*
X003554Y008531D01*
X003461Y008531D01*
X003461Y008585D02*
X003437Y008608D01*
X003437Y008655D01*
X003461Y008678D01*
X003554Y008585D01*
X003578Y008608D01*
X003578Y008655D01*
X003554Y008678D01*
X003461Y008678D01*
X003484Y008732D02*
X003484Y008802D01*
X003507Y008825D01*
X003578Y008825D01*
X003578Y008732D02*
X003484Y008732D01*
X003461Y008585D02*
X003554Y008585D01*
X003554Y008437D02*
X003461Y008437D01*
X002666Y007850D02*
X002666Y007730D01*
X002576Y007730D01*
X002546Y007760D01*
X002546Y007850D01*
X002482Y007850D02*
X002482Y007880D01*
X002452Y007910D01*
X002392Y007910D01*
X002362Y007880D01*
X002298Y007880D02*
X002268Y007910D01*
X002208Y007910D01*
X002178Y007880D01*
X002298Y007880D02*
X002298Y007850D01*
X002178Y007730D01*
X002298Y007730D01*
X002362Y007730D02*
X002482Y007850D01*
X002482Y007730D02*
X002362Y007730D01*
X002337Y003478D02*
X002337Y003385D01*
X002478Y003385D01*
X002478Y003331D02*
X002384Y003331D01*
X002407Y003385D02*
X002407Y003431D01*
X002478Y003331D02*
X002478Y003261D01*
X002454Y003237D01*
X002384Y003237D01*
X002478Y003183D02*
X002478Y003090D01*
X002478Y003137D02*
X002337Y003137D01*
X002384Y003090D01*
X001188Y001936D02*
X001117Y001936D01*
X001094Y001913D01*
X001094Y001843D01*
X001188Y001843D01*
X001164Y001789D02*
X001188Y001765D01*
X001188Y001719D01*
X001164Y001695D01*
X001071Y001789D01*
X001164Y001789D01*
X001071Y001789D02*
X001047Y001765D01*
X001047Y001719D01*
X001071Y001695D01*
X001164Y001695D01*
X001164Y001641D02*
X001188Y001618D01*
X001188Y001571D01*
X001164Y001548D01*
X001071Y001641D01*
X001164Y001641D01*
X001164Y001548D02*
X001071Y001548D01*
X001047Y001571D01*
X001047Y001618D01*
X001071Y001641D01*
X001188Y001494D02*
X001188Y001401D01*
X001188Y001447D02*
X001047Y001447D01*
X001094Y001401D01*
X002837Y001407D02*
X002861Y001431D01*
X002954Y001337D01*
X002978Y001361D01*
X002978Y001407D01*
X002954Y001431D01*
X002861Y001431D01*
X002837Y001407D02*
X002837Y001361D01*
X002861Y001337D01*
X002954Y001337D01*
X002978Y001283D02*
X002978Y001190D01*
X002978Y001237D02*
X002837Y001237D01*
X002884Y001190D01*
X002837Y001485D02*
X002978Y001485D01*
X002931Y001485D02*
X002837Y001578D01*
X002907Y001508D02*
X002978Y001578D01*
X016238Y002460D02*
X016331Y002553D01*
X016331Y002577D01*
X016308Y002600D01*
X016261Y002600D01*
X016238Y002577D01*
X016238Y002460D02*
X016331Y002460D01*
X016385Y002460D02*
X016478Y002553D01*
X016478Y002577D01*
X016455Y002600D01*
X016408Y002600D01*
X016385Y002577D01*
X016385Y002460D02*
X016478Y002460D01*
X016532Y002460D02*
X016602Y002460D01*
X016626Y002483D01*
X016626Y002530D01*
X016602Y002553D01*
X016532Y002553D01*
X016532Y002413D01*
X016680Y002460D02*
X016680Y002600D01*
X016773Y002600D01*
X016726Y002530D02*
X016680Y002530D01*
X016532Y004313D02*
X016532Y004453D01*
X016602Y004453D01*
X016626Y004430D01*
X016626Y004383D01*
X016602Y004360D01*
X016532Y004360D01*
X016478Y004360D02*
X016385Y004360D01*
X016478Y004453D01*
X016478Y004477D01*
X016455Y004500D01*
X016408Y004500D01*
X016385Y004477D01*
X016331Y004477D02*
X016308Y004500D01*
X016261Y004500D01*
X016238Y004477D01*
X016331Y004477D02*
X016331Y004453D01*
X016238Y004360D01*
X016331Y004360D01*
X016680Y004360D02*
X016680Y004500D01*
X016773Y004500D01*
X016726Y004430D02*
X016680Y004430D01*
X019796Y005200D02*
X019889Y005200D01*
X019842Y005200D02*
X019842Y005340D01*
X019796Y005293D01*
X019943Y005317D02*
X019966Y005340D01*
X020013Y005340D01*
X020036Y005317D01*
X019943Y005223D01*
X019966Y005200D01*
X020013Y005200D01*
X020036Y005223D01*
X020036Y005317D01*
X020090Y005340D02*
X020090Y005200D01*
X020090Y005247D02*
X020184Y005340D01*
X020114Y005270D02*
X020184Y005200D01*
X019943Y005223D02*
X019943Y005317D01*
X020461Y002700D02*
X020438Y002677D01*
X020461Y002700D02*
X020508Y002700D01*
X020531Y002677D01*
X020531Y002653D01*
X020438Y002560D01*
X020531Y002560D01*
X020585Y002560D02*
X020678Y002653D01*
X020678Y002677D01*
X020655Y002700D01*
X020608Y002700D01*
X020585Y002677D01*
X020585Y002560D02*
X020678Y002560D01*
X020732Y002560D02*
X020802Y002560D01*
X020826Y002583D01*
X020826Y002630D01*
X020802Y002653D01*
X020732Y002653D01*
X020732Y002513D01*
X020880Y002560D02*
X020880Y002700D01*
X020973Y002700D01*
X020926Y002630D02*
X020880Y002630D01*
X026267Y007027D02*
X026408Y007027D01*
X026408Y007073D02*
X026408Y006980D01*
X026314Y006980D02*
X026267Y007027D01*
X026291Y007127D02*
X026267Y007151D01*
X026267Y007197D01*
X026291Y007221D01*
X026384Y007127D01*
X026408Y007151D01*
X026408Y007197D01*
X026384Y007221D01*
X026291Y007221D01*
X026267Y007275D02*
X026408Y007275D01*
X026361Y007275D02*
X026267Y007368D01*
X026337Y007298D02*
X026408Y007368D01*
X026384Y007127D02*
X026291Y007127D01*
X027267Y007097D02*
X027267Y007051D01*
X027291Y007027D01*
X027291Y006973D02*
X027267Y006950D01*
X027267Y006903D01*
X027291Y006880D01*
X027291Y006973D02*
X027314Y006973D01*
X027408Y006880D01*
X027408Y006973D01*
X027408Y007027D02*
X027314Y007121D01*
X027291Y007121D01*
X027267Y007097D01*
X027314Y007175D02*
X027314Y007245D01*
X027337Y007268D01*
X027384Y007268D01*
X027408Y007245D01*
X027408Y007175D01*
X027454Y007175D02*
X027314Y007175D01*
X027408Y007121D02*
X027408Y007027D01*
X027408Y007322D02*
X027267Y007322D01*
X027267Y007415D01*
X027337Y007369D02*
X027337Y007322D01*
X028788Y006063D02*
X028835Y006110D01*
X028835Y005970D01*
X028788Y005970D02*
X028882Y005970D01*
X028936Y005993D02*
X029029Y006087D01*
X029029Y005993D01*
X029006Y005970D01*
X028959Y005970D01*
X028936Y005993D01*
X028936Y006087D01*
X028959Y006110D01*
X029006Y006110D01*
X029029Y006087D01*
X029083Y006087D02*
X029106Y006110D01*
X029153Y006110D01*
X029176Y006087D01*
X029083Y005993D01*
X029106Y005970D01*
X029153Y005970D01*
X029176Y005993D01*
X029176Y006087D01*
X029230Y006063D02*
X029300Y006063D01*
X029324Y006040D01*
X029324Y005970D01*
X029230Y005970D02*
X029230Y006063D01*
X029083Y006087D02*
X029083Y005993D01*
X029551Y006991D02*
X029527Y007014D01*
X029527Y007061D01*
X029551Y007084D01*
X029574Y007084D01*
X029668Y006991D01*
X029668Y007084D01*
X029668Y007138D02*
X029574Y007231D01*
X029551Y007231D01*
X029527Y007208D01*
X029527Y007161D01*
X029551Y007138D01*
X029668Y007138D02*
X029668Y007231D01*
X029668Y007285D02*
X029668Y007355D01*
X029644Y007379D01*
X029597Y007379D01*
X029574Y007355D01*
X029574Y007285D01*
X029714Y007285D01*
X029668Y007433D02*
X029527Y007433D01*
X029527Y007526D01*
X029597Y007479D02*
X029597Y007433D01*
X030537Y009810D02*
X030537Y009950D01*
X030584Y009997D01*
X030677Y009997D01*
X030724Y009950D01*
X030724Y009810D01*
X030724Y009903D02*
X030818Y009997D01*
X030771Y010086D02*
X030818Y010133D01*
X030818Y010226D01*
X030771Y010273D01*
X030724Y010273D01*
X030677Y010226D01*
X030677Y010133D01*
X030631Y010086D01*
X030584Y010086D01*
X030537Y010133D01*
X030537Y010226D01*
X030584Y010273D01*
X030537Y010362D02*
X030537Y010549D01*
X030537Y010456D02*
X030818Y010456D01*
X031637Y010503D02*
X031637Y010362D01*
X031918Y010362D01*
X031918Y010503D01*
X031871Y010549D01*
X031684Y010549D01*
X031637Y010503D01*
X031637Y010273D02*
X031918Y010273D01*
X031637Y010086D01*
X031918Y010086D01*
X031871Y009997D02*
X031777Y009997D01*
X031777Y009903D01*
X031684Y009810D02*
X031871Y009810D01*
X031918Y009857D01*
X031918Y009950D01*
X031871Y009997D01*
X031684Y009997D02*
X031637Y009950D01*
X031637Y009857D01*
X031684Y009810D01*
X030818Y009810D02*
X030537Y009810D01*
X002868Y015010D02*
X002868Y015103D01*
X002868Y015057D02*
X002727Y015057D01*
X002774Y015010D01*
X002751Y015157D02*
X002727Y015181D01*
X002727Y015227D01*
X002751Y015251D01*
X002844Y015157D01*
X002868Y015181D01*
X002868Y015227D01*
X002844Y015251D01*
X002751Y015251D01*
X002727Y015305D02*
X002868Y015305D01*
X002821Y015305D02*
X002727Y015398D01*
X002797Y015328D02*
X002868Y015398D01*
X002844Y015157D02*
X002751Y015157D01*
X001128Y015221D02*
X001128Y015314D01*
X001128Y015267D02*
X000987Y015267D01*
X001034Y015221D01*
X001011Y015368D02*
X000987Y015391D01*
X000987Y015438D01*
X001011Y015461D01*
X001104Y015368D01*
X001128Y015391D01*
X001128Y015438D01*
X001104Y015461D01*
X001011Y015461D01*
X001011Y015515D02*
X000987Y015539D01*
X000987Y015585D01*
X001011Y015609D01*
X001104Y015515D01*
X001128Y015539D01*
X001128Y015585D01*
X001104Y015609D01*
X001011Y015609D01*
X001034Y015663D02*
X001034Y015733D01*
X001057Y015756D01*
X001128Y015756D01*
X001128Y015663D02*
X001034Y015663D01*
X001011Y015515D02*
X001104Y015515D01*
X001104Y015368D02*
X001011Y015368D01*
D14*
X001416Y015400D02*
X001440Y015400D01*
X010728Y016688D02*
X010728Y016712D01*
X010728Y017688D02*
X010728Y017712D01*
X010728Y012912D02*
X010728Y012888D01*
X009728Y009212D02*
X009728Y009188D01*
X009728Y008212D02*
X009728Y008188D01*
X012716Y008200D02*
X012740Y008200D01*
X015716Y008200D02*
X015740Y008200D01*
X016428Y004812D02*
X016428Y004788D01*
X016428Y002212D02*
X016428Y002188D01*
X020628Y002212D02*
X020628Y002188D01*
X028968Y005658D02*
X028968Y005682D01*
X029956Y007170D02*
X029980Y007170D01*
X026980Y007170D02*
X026956Y007170D01*
X003950Y008580D02*
X003926Y008580D01*
X002050Y003480D02*
X002026Y003480D01*
X001500Y001580D02*
X001476Y001580D01*
D15*
X018028Y010100D03*
X018028Y011000D03*
X018028Y011950D03*
X010728Y014700D03*
X004128Y013000D03*
X004128Y012100D03*
X020028Y005700D03*
D16*
X016920Y004130D02*
X016920Y002870D01*
X015935Y002870D01*
X015935Y004130D01*
X016920Y004130D01*
X014857Y007708D02*
X013598Y007708D01*
X013598Y008692D01*
X014857Y008692D01*
X014857Y007708D01*
X011579Y007773D02*
X010476Y007773D01*
X010476Y009427D01*
X011579Y009427D01*
X011579Y007773D01*
X011106Y008167D02*
X010949Y008167D01*
X010921Y008169D01*
X010893Y008174D01*
X010865Y008182D01*
X010839Y008194D01*
X010815Y008209D01*
X010793Y008226D01*
X010772Y008247D01*
X010755Y008269D01*
X010740Y008293D01*
X010728Y008319D01*
X010720Y008347D01*
X010715Y008375D01*
X010713Y008403D01*
X010713Y008797D01*
X010715Y008825D01*
X010720Y008853D01*
X010728Y008881D01*
X010740Y008907D01*
X010755Y008931D01*
X010772Y008953D01*
X010793Y008974D01*
X010815Y008991D01*
X010839Y009006D01*
X010865Y009018D01*
X010893Y009026D01*
X010921Y009031D01*
X010949Y009033D01*
X011106Y009033D01*
X011134Y009031D01*
X011162Y009026D01*
X011190Y009018D01*
X011216Y009006D01*
X011240Y008991D01*
X011262Y008974D01*
X011283Y008953D01*
X011300Y008931D01*
X011315Y008907D01*
X011327Y008881D01*
X011335Y008853D01*
X011340Y008825D01*
X011342Y008797D01*
X011343Y008797D02*
X011343Y008403D01*
X011342Y008403D02*
X011340Y008375D01*
X011335Y008347D01*
X011327Y008319D01*
X011315Y008293D01*
X011300Y008269D01*
X011283Y008247D01*
X011262Y008226D01*
X011240Y008209D01*
X011216Y008194D01*
X011190Y008182D01*
X011162Y008174D01*
X011134Y008169D01*
X011106Y008167D01*
X002468Y008220D02*
X002468Y009020D01*
X004678Y015000D02*
X004678Y015800D01*
X010216Y015700D02*
X011200Y015700D01*
X023978Y016250D02*
X023978Y016750D01*
X025078Y016750D01*
X025078Y016250D01*
X023978Y016250D01*
X024373Y015665D02*
X024373Y013735D01*
X025082Y013735D01*
X025082Y015665D01*
X024373Y015665D01*
X025478Y015140D02*
X026578Y015140D01*
X026578Y014640D01*
X025478Y014640D01*
X025478Y015140D01*
X027343Y014727D02*
X027501Y014884D01*
X027580Y014609D02*
X027582Y014621D01*
X027587Y014632D01*
X027596Y014641D01*
X027607Y014646D01*
X027619Y014648D01*
X027631Y014646D01*
X027642Y014641D01*
X027651Y014632D01*
X027656Y014621D01*
X027658Y014609D01*
X027656Y014597D01*
X027651Y014586D01*
X027642Y014577D01*
X027631Y014572D01*
X027619Y014570D01*
X027607Y014572D01*
X027596Y014577D01*
X027587Y014586D01*
X027582Y014597D01*
X027580Y014609D01*
X029154Y014884D02*
X029312Y014884D01*
X029312Y014727D01*
X029312Y013073D02*
X029312Y012916D01*
X029154Y012916D01*
X027501Y012916D02*
X027343Y012916D01*
X027343Y013073D01*
X027757Y016508D02*
X026498Y016508D01*
X026498Y017492D01*
X027757Y017492D01*
X027757Y016508D01*
X027838Y007662D02*
X029097Y007662D01*
X029097Y006678D01*
X027838Y006678D01*
X027838Y007662D01*
X027385Y004727D02*
X027094Y004727D01*
X027094Y004443D01*
X028389Y004719D02*
X028677Y004719D01*
X028677Y004439D01*
X028677Y003416D02*
X028677Y003140D01*
X028413Y003140D01*
X027342Y003140D02*
X027094Y003140D01*
X027094Y003412D01*
D17*
X011121Y015454D02*
X010334Y015454D01*
X010334Y015946D02*
X011121Y015946D01*
D18*
X010728Y015700D03*
D19*
X019278Y015861D03*
X019467Y011950D03*
X019467Y011000D03*
X019467Y010100D03*
D20*
X019848Y015770D02*
X020154Y015770D01*
X019848Y015770D02*
X019848Y016230D01*
X026518Y016134D02*
X026825Y016134D01*
X026671Y016134D02*
X026671Y016595D01*
X026518Y016441D01*
X026978Y016364D02*
X027208Y016364D01*
X027285Y016288D01*
X027285Y016211D01*
X027208Y016134D01*
X027055Y016134D01*
X026978Y016211D01*
X026978Y016364D01*
X027131Y016518D01*
X027285Y016595D01*
X027438Y016595D02*
X027592Y016441D01*
X027745Y016595D01*
X027745Y016134D01*
X027899Y016134D02*
X027899Y016595D01*
X027899Y016364D02*
X028206Y016364D01*
X028359Y016441D02*
X028666Y016441D01*
X028359Y016134D01*
X028666Y016134D01*
X028206Y016134D02*
X028206Y016595D01*
X027438Y016595D02*
X027438Y016134D01*
X029280Y016134D02*
X029280Y016595D01*
X029357Y016364D02*
X029587Y016134D01*
X029740Y016134D02*
X030047Y016595D01*
X030201Y016364D02*
X030508Y016364D01*
X030661Y016211D02*
X030661Y016134D01*
X030661Y016211D02*
X030968Y016518D01*
X030968Y016595D01*
X030661Y016595D01*
X030047Y016134D02*
X029740Y016595D01*
X029587Y016595D02*
X029280Y016288D01*
X027189Y017650D02*
X027189Y018110D01*
X026958Y017880D01*
X027265Y017880D01*
X026805Y018034D02*
X026651Y017880D01*
X026651Y017650D01*
X026651Y017880D02*
X026498Y018034D01*
X026498Y018110D01*
X026805Y018110D02*
X026805Y018034D01*
X004138Y005195D02*
X003857Y005195D01*
X003997Y005055D01*
X003997Y005242D01*
X001438Y005450D02*
X001391Y005403D01*
X001438Y005450D02*
X001438Y005544D01*
X001391Y005590D01*
X001344Y005590D01*
X001297Y005544D01*
X001297Y005497D01*
X001297Y005544D02*
X001251Y005590D01*
X001204Y005590D01*
X001157Y005544D01*
X001157Y005450D01*
X001204Y005403D01*
X001200Y006313D02*
X001154Y006360D01*
X001154Y006454D01*
X001200Y006500D01*
X001247Y006500D01*
X001434Y006313D01*
X001434Y006500D01*
X001438Y007165D02*
X001438Y007351D01*
X001438Y007258D02*
X001157Y007258D01*
X001251Y007165D01*
X027209Y002880D02*
X027516Y002880D01*
X027363Y002880D02*
X027363Y002420D01*
X027670Y002420D02*
X027823Y002420D01*
X027747Y002420D02*
X027747Y002880D01*
X027823Y002880D02*
X027670Y002880D01*
X027977Y002880D02*
X028284Y002420D01*
X028284Y002880D01*
X028437Y002880D02*
X028437Y002804D01*
X028591Y002650D01*
X028591Y002420D01*
X028591Y002650D02*
X028744Y002804D01*
X028744Y002880D01*
X027977Y002880D02*
X027977Y002420D01*
D21*
X025968Y007170D03*
X018418Y015900D03*
X017228Y015900D03*
X002428Y015400D03*
X002538Y001580D03*
D22*
X005388Y004380D02*
X005888Y004380D01*
X006138Y004630D01*
X006138Y005130D01*
X005888Y005380D01*
X006138Y005630D01*
X006138Y006130D01*
X005888Y006380D01*
X006138Y006630D01*
X006138Y007130D01*
X005888Y007380D01*
X006138Y007630D01*
X006138Y008130D01*
X005888Y008380D01*
X006138Y008630D01*
X006138Y009130D01*
X005888Y009380D01*
X005388Y009380D01*
X005138Y009130D01*
X005138Y008630D01*
X005388Y008380D01*
X005138Y008130D01*
X005138Y007630D01*
X005388Y007380D01*
X005138Y007130D01*
X005138Y006630D01*
X005388Y006380D01*
X005138Y006130D01*
X005138Y005630D01*
X005388Y005380D01*
X005138Y005130D01*
X005138Y004630D01*
X005388Y004380D01*
X003538Y004790D02*
X003538Y007370D01*
X002138Y007370D01*
X002138Y004790D01*
X003538Y004790D01*
X003144Y008148D02*
X002711Y008148D01*
X003144Y008148D02*
X003302Y008305D01*
X003302Y008935D01*
X003144Y009092D01*
X002711Y009092D01*
X001924Y009092D02*
X001333Y009092D01*
X001333Y008148D01*
X001924Y008148D01*
X001720Y011061D02*
X002350Y011061D01*
X002350Y011534D01*
X001798Y011534D01*
X001798Y013266D01*
X002350Y013266D01*
X002350Y013739D01*
X001720Y013739D01*
X000657Y013739D02*
X000657Y011061D01*
X005013Y011706D02*
X005643Y011706D01*
X005643Y011707D02*
X005659Y011712D01*
X005675Y011720D01*
X005689Y011730D01*
X005701Y011742D01*
X005711Y011757D01*
X005718Y011773D01*
X005722Y011790D01*
X005723Y011807D01*
X005721Y011825D01*
X005012Y011707D02*
X004996Y011712D01*
X004980Y011720D01*
X004966Y011730D01*
X004954Y011742D01*
X004944Y011757D01*
X004937Y011773D01*
X004933Y011790D01*
X004932Y011807D01*
X004934Y011825D01*
X004934Y012375D02*
X004932Y012393D01*
X004933Y012410D01*
X004937Y012427D01*
X004944Y012443D01*
X004954Y012458D01*
X004966Y012470D01*
X004980Y012480D01*
X004996Y012488D01*
X005012Y012493D01*
X005013Y012494D02*
X005643Y012494D01*
X005643Y012493D02*
X005659Y012488D01*
X005675Y012480D01*
X005689Y012470D01*
X005701Y012458D01*
X005711Y012443D01*
X005718Y012427D01*
X005722Y012410D01*
X005723Y012393D01*
X005721Y012375D01*
X005643Y012606D02*
X005013Y012606D01*
X005012Y012607D02*
X004996Y012612D01*
X004980Y012620D01*
X004966Y012630D01*
X004954Y012642D01*
X004944Y012657D01*
X004937Y012673D01*
X004933Y012690D01*
X004932Y012707D01*
X004934Y012725D01*
X005643Y012607D02*
X005659Y012612D01*
X005675Y012620D01*
X005689Y012630D01*
X005701Y012642D01*
X005711Y012657D01*
X005718Y012673D01*
X005722Y012690D01*
X005723Y012707D01*
X005721Y012725D01*
X005721Y013275D02*
X005723Y013293D01*
X005722Y013310D01*
X005718Y013327D01*
X005711Y013343D01*
X005701Y013358D01*
X005689Y013370D01*
X005675Y013380D01*
X005659Y013388D01*
X005643Y013393D01*
X005643Y013394D02*
X005013Y013394D01*
X005012Y013393D02*
X004996Y013388D01*
X004980Y013380D01*
X004966Y013370D01*
X004954Y013358D01*
X004944Y013343D01*
X004937Y013327D01*
X004933Y013310D01*
X004932Y013293D01*
X004934Y013275D01*
X004921Y014928D02*
X005354Y014928D01*
X005512Y015085D01*
X005512Y015715D01*
X005354Y015872D01*
X004921Y015872D01*
X004134Y015872D02*
X003543Y015872D01*
X003543Y014928D01*
X004134Y014928D01*
X002778Y016600D02*
X002278Y016600D01*
X002028Y016850D01*
X001778Y016600D01*
X001278Y016600D01*
X001028Y016850D01*
X001028Y017350D01*
X001278Y017600D01*
X001778Y017600D01*
X002028Y017350D01*
X002278Y017600D01*
X002778Y017600D01*
X003028Y017350D01*
X003028Y016850D01*
X002778Y016600D01*
X011728Y017550D02*
X011978Y017300D01*
X012478Y017300D01*
X012728Y017550D01*
X012978Y017300D01*
X013478Y017300D01*
X013728Y017550D01*
X013978Y017300D01*
X014478Y017300D01*
X014728Y017550D01*
X014978Y017300D01*
X015478Y017300D01*
X015728Y017550D01*
X015978Y017300D01*
X016478Y017300D01*
X016728Y017550D01*
X016978Y017300D01*
X017478Y017300D01*
X017728Y017550D01*
X017978Y017300D01*
X018478Y017300D01*
X018728Y017550D01*
X018728Y018050D01*
X018478Y018300D01*
X017978Y018300D01*
X017728Y018050D01*
X017478Y018300D01*
X016978Y018300D01*
X016728Y018050D01*
X016478Y018300D01*
X015978Y018300D01*
X015728Y018050D01*
X015478Y018300D01*
X014978Y018300D01*
X014728Y018050D01*
X014478Y018300D01*
X013978Y018300D01*
X013728Y018050D01*
X013478Y018300D01*
X012978Y018300D01*
X012728Y018050D01*
X012478Y018300D01*
X011978Y018300D01*
X011728Y018050D01*
X011728Y017550D01*
X016913Y014994D02*
X017543Y014994D01*
X017543Y014993D02*
X017559Y014988D01*
X017575Y014980D01*
X017589Y014970D01*
X017601Y014958D01*
X017611Y014943D01*
X017618Y014927D01*
X017622Y014910D01*
X017623Y014893D01*
X017621Y014875D01*
X016912Y014993D02*
X016896Y014988D01*
X016880Y014980D01*
X016866Y014970D01*
X016854Y014958D01*
X016844Y014943D01*
X016837Y014927D01*
X016833Y014910D01*
X016832Y014893D01*
X016834Y014875D01*
X016834Y014325D02*
X016832Y014307D01*
X016833Y014290D01*
X016837Y014273D01*
X016844Y014257D01*
X016854Y014242D01*
X016866Y014230D01*
X016880Y014220D01*
X016896Y014212D01*
X016912Y014207D01*
X016913Y014206D02*
X017543Y014206D01*
X017543Y014207D02*
X017559Y014212D01*
X017575Y014220D01*
X017589Y014230D01*
X017601Y014242D01*
X017611Y014257D01*
X017618Y014273D01*
X017622Y014290D01*
X017623Y014307D01*
X017621Y014325D01*
X021528Y014350D02*
X021778Y014100D01*
X021528Y013850D01*
X021528Y013350D01*
X021778Y013100D01*
X021528Y012850D01*
X021528Y012350D01*
X021778Y012100D01*
X021528Y011850D01*
X021528Y011350D01*
X021778Y011100D01*
X021528Y010850D01*
X021528Y010350D01*
X021778Y010100D01*
X021528Y009850D01*
X021528Y009350D01*
X021778Y009100D01*
X022278Y009100D01*
X022528Y009350D01*
X022528Y009850D01*
X022278Y010100D01*
X022528Y010350D01*
X022528Y010850D01*
X022278Y011100D01*
X022528Y011350D01*
X022528Y011850D01*
X022278Y012100D01*
X022528Y012350D01*
X022528Y012850D01*
X022278Y013100D01*
X022528Y013350D01*
X022528Y013850D01*
X022278Y014100D01*
X022528Y014350D01*
X022528Y014850D01*
X022278Y015100D01*
X022528Y015350D01*
X022528Y015850D01*
X022278Y016100D01*
X022528Y016350D01*
X022528Y016850D01*
X022278Y017100D01*
X022528Y017350D01*
X022528Y017850D01*
X022278Y018100D01*
X021778Y018100D01*
X021528Y017850D01*
X021528Y017350D01*
X021778Y017100D01*
X021528Y016850D01*
X021528Y016350D01*
X021778Y016100D01*
X021528Y015850D01*
X021528Y015350D01*
X021778Y015100D01*
X021528Y014850D01*
X021528Y014350D01*
X017143Y011594D02*
X016513Y011594D01*
X016512Y011593D02*
X016496Y011588D01*
X016480Y011580D01*
X016466Y011570D01*
X016454Y011558D01*
X016444Y011543D01*
X016437Y011527D01*
X016433Y011510D01*
X016432Y011493D01*
X016434Y011475D01*
X017143Y011593D02*
X017159Y011588D01*
X017175Y011580D01*
X017189Y011570D01*
X017201Y011558D01*
X017211Y011543D01*
X017218Y011527D01*
X017222Y011510D01*
X017223Y011493D01*
X017221Y011475D01*
X017221Y010925D02*
X017223Y010907D01*
X017222Y010890D01*
X017218Y010873D01*
X017211Y010857D01*
X017201Y010842D01*
X017189Y010830D01*
X017175Y010820D01*
X017159Y010812D01*
X017143Y010807D01*
X017143Y010806D02*
X016513Y010806D01*
X016512Y010807D02*
X016496Y010812D01*
X016480Y010820D01*
X016466Y010830D01*
X016454Y010842D01*
X016444Y010857D01*
X016437Y010873D01*
X016433Y010890D01*
X016432Y010907D01*
X016434Y010925D01*
X012493Y010844D02*
X011863Y010844D01*
X011862Y010843D02*
X011846Y010838D01*
X011830Y010830D01*
X011816Y010820D01*
X011804Y010808D01*
X011794Y010793D01*
X011787Y010777D01*
X011783Y010760D01*
X011782Y010743D01*
X011784Y010725D01*
X012493Y010843D02*
X012509Y010838D01*
X012525Y010830D01*
X012539Y010820D01*
X012551Y010808D01*
X012561Y010793D01*
X012568Y010777D01*
X012572Y010760D01*
X012573Y010743D01*
X012571Y010725D01*
X012571Y010175D02*
X012573Y010157D01*
X012572Y010140D01*
X012568Y010123D01*
X012561Y010107D01*
X012551Y010092D01*
X012539Y010080D01*
X012525Y010070D01*
X012509Y010062D01*
X012493Y010057D01*
X012493Y010056D02*
X011863Y010056D01*
X011862Y010057D02*
X011846Y010062D01*
X011830Y010070D01*
X011816Y010080D01*
X011804Y010092D01*
X011794Y010107D01*
X011787Y010123D01*
X011783Y010140D01*
X011782Y010157D01*
X011784Y010175D01*
X010324Y010003D02*
X010324Y010397D01*
X009931Y010200D01*
X010324Y010003D01*
X016528Y008250D02*
X016528Y007750D01*
X016778Y007500D01*
X017278Y007500D01*
X017528Y007750D01*
X017778Y007500D01*
X018278Y007500D01*
X018528Y007750D01*
X018778Y007500D01*
X019278Y007500D01*
X019528Y007750D01*
X019778Y007500D01*
X020278Y007500D01*
X020528Y007750D01*
X020778Y007500D01*
X021278Y007500D01*
X021528Y007750D01*
X021528Y008250D01*
X021278Y008500D01*
X020778Y008500D01*
X020528Y008250D01*
X020278Y008500D01*
X019778Y008500D01*
X019528Y008250D01*
X019278Y008500D01*
X018778Y008500D01*
X018528Y008250D01*
X018278Y008500D01*
X017778Y008500D01*
X017528Y008250D01*
X017278Y008500D01*
X016778Y008500D01*
X016528Y008250D01*
X016678Y006500D02*
X016178Y006500D01*
X015928Y006250D01*
X015928Y005750D01*
X016178Y005500D01*
X016678Y005500D01*
X016928Y005750D01*
X017178Y005500D01*
X017678Y005500D01*
X017928Y005750D01*
X018178Y005500D01*
X018678Y005500D01*
X018928Y005750D01*
X018928Y006250D01*
X018678Y006500D01*
X018178Y006500D01*
X017928Y006250D01*
X017678Y006500D01*
X017178Y006500D01*
X016928Y006250D01*
X016678Y006500D01*
X017997Y004584D02*
X017855Y004443D01*
X019639Y004580D02*
X019776Y004443D01*
X021528Y004250D02*
X021528Y003750D01*
X021778Y003500D01*
X021528Y003250D01*
X021528Y002750D01*
X021778Y002500D01*
X021528Y002250D01*
X021528Y001750D01*
X021778Y001500D01*
X022278Y001500D01*
X022528Y001750D01*
X022528Y002250D01*
X022278Y002500D01*
X022528Y002750D01*
X022528Y003250D01*
X022278Y003500D01*
X022528Y003750D01*
X022528Y004250D01*
X022278Y004500D01*
X022528Y004750D01*
X022528Y005250D01*
X022278Y005500D01*
X022528Y005750D01*
X022528Y006250D01*
X022278Y006500D01*
X021778Y006500D01*
X021528Y006250D01*
X021528Y005750D01*
X021778Y005500D01*
X021528Y005250D01*
X021528Y004750D01*
X021778Y004500D01*
X021528Y004250D01*
X023378Y004150D02*
X023378Y003650D01*
X023628Y003400D01*
X023378Y003150D01*
X023378Y002650D01*
X023628Y002400D01*
X023378Y002150D01*
X023378Y001650D01*
X023628Y001400D01*
X023378Y001150D01*
X023378Y000650D01*
X023628Y000400D01*
X024128Y000400D01*
X024378Y000650D01*
X024378Y001150D01*
X024128Y001400D01*
X024378Y001650D01*
X024378Y002150D01*
X024128Y002400D01*
X024378Y002650D01*
X024378Y003150D01*
X024128Y003400D01*
X024378Y003650D01*
X024378Y004150D01*
X024128Y004400D01*
X024378Y004650D01*
X024378Y005150D01*
X024128Y005400D01*
X024378Y005650D01*
X024378Y006150D01*
X024128Y006400D01*
X024378Y006650D01*
X024378Y007150D01*
X024128Y007400D01*
X023628Y007400D01*
X023378Y007150D01*
X023378Y006650D01*
X023628Y006400D01*
X023378Y006150D01*
X023378Y005650D01*
X023628Y005400D01*
X023378Y005150D01*
X023378Y004650D01*
X023628Y004400D01*
X023378Y004150D01*
X026324Y005355D02*
X026324Y005985D01*
X026330Y006003D01*
X026339Y006021D01*
X026351Y006036D01*
X026367Y006048D01*
X026384Y006057D01*
X026403Y006063D01*
X026422Y006065D01*
X026442Y006063D01*
X026993Y006063D02*
X027011Y006065D01*
X027028Y006064D01*
X027045Y006060D01*
X027061Y006053D01*
X027076Y006043D01*
X027088Y006031D01*
X027098Y006017D01*
X027106Y006001D01*
X027111Y005985D01*
X027111Y005355D01*
X027106Y005339D01*
X027098Y005323D01*
X027088Y005309D01*
X027076Y005297D01*
X027061Y005287D01*
X027045Y005280D01*
X027028Y005276D01*
X027011Y005275D01*
X026993Y005277D01*
X027324Y005355D02*
X027324Y005985D01*
X027330Y006003D01*
X027339Y006021D01*
X027351Y006036D01*
X027367Y006048D01*
X027384Y006057D01*
X027403Y006063D01*
X027422Y006065D01*
X027442Y006063D01*
X027993Y006063D02*
X028011Y006065D01*
X028028Y006064D01*
X028045Y006060D01*
X028061Y006053D01*
X028076Y006043D01*
X028088Y006031D01*
X028098Y006017D01*
X028106Y006001D01*
X028111Y005985D01*
X028111Y005355D01*
X028106Y005339D01*
X028098Y005323D01*
X028088Y005309D01*
X028076Y005297D01*
X028061Y005287D01*
X028045Y005280D01*
X028028Y005276D01*
X028011Y005275D01*
X027993Y005277D01*
X027442Y005277D02*
X027422Y005275D01*
X027403Y005277D01*
X027384Y005283D01*
X027367Y005292D01*
X027351Y005304D01*
X027339Y005319D01*
X027330Y005337D01*
X027324Y005355D01*
X026442Y005277D02*
X026422Y005275D01*
X026403Y005277D01*
X026384Y005283D01*
X026367Y005292D01*
X026351Y005304D01*
X026339Y005319D01*
X026330Y005337D01*
X026324Y005355D01*
X031378Y005150D02*
X031378Y004650D01*
X031628Y004400D01*
X031378Y004150D01*
X031378Y003650D01*
X031628Y003400D01*
X031378Y003150D01*
X031378Y002650D01*
X031628Y002400D01*
X031378Y002150D01*
X031378Y001650D01*
X031628Y001400D01*
X031378Y001150D01*
X031378Y000650D01*
X031628Y000400D01*
X032128Y000400D01*
X032378Y000650D01*
X032378Y001150D01*
X032128Y001400D01*
X032378Y001650D01*
X032378Y002150D01*
X032128Y002400D01*
X032378Y002650D01*
X032378Y003150D01*
X032128Y003400D01*
X032378Y003650D01*
X032378Y004150D01*
X032128Y004400D01*
X032378Y004650D01*
X032378Y005150D01*
X032128Y005400D01*
X032378Y005650D01*
X032378Y006150D01*
X032128Y006400D01*
X032378Y006650D01*
X032378Y007150D01*
X032128Y007400D01*
X031628Y007400D01*
X031378Y007150D01*
X031378Y006650D01*
X031628Y006400D01*
X031378Y006150D01*
X031378Y005650D01*
X031628Y005400D01*
X031378Y005150D01*
X031478Y008700D02*
X031978Y008700D01*
X032228Y008950D01*
X032228Y009450D01*
X031978Y009700D01*
X031478Y009700D01*
X031228Y009450D01*
X030978Y009700D01*
X030478Y009700D01*
X030228Y009450D01*
X029978Y009700D01*
X029478Y009700D01*
X029228Y009450D01*
X028978Y009700D01*
X028478Y009700D01*
X028228Y009450D01*
X027978Y009700D01*
X027478Y009700D01*
X027228Y009450D01*
X026978Y009700D01*
X026478Y009700D01*
X026228Y009450D01*
X025978Y009700D01*
X025478Y009700D01*
X025228Y009450D01*
X024978Y009700D01*
X024478Y009700D01*
X024228Y009450D01*
X023978Y009700D01*
X023478Y009700D01*
X023228Y009450D01*
X023228Y008950D01*
X023478Y008700D01*
X023978Y008700D01*
X024228Y008950D01*
X024478Y008700D01*
X024978Y008700D01*
X025228Y008950D01*
X025478Y008700D01*
X025978Y008700D01*
X026228Y008950D01*
X026478Y008700D01*
X026978Y008700D01*
X027228Y008950D01*
X027478Y008700D01*
X027978Y008700D01*
X028228Y008950D01*
X028478Y008700D01*
X028978Y008700D01*
X029228Y008950D01*
X029478Y008700D01*
X029978Y008700D01*
X030228Y008950D01*
X030478Y008700D01*
X030978Y008700D01*
X031228Y008950D01*
X031478Y008700D01*
X019765Y002801D02*
X019627Y002663D01*
X018005Y002663D02*
X017871Y002797D01*
X017678Y001500D02*
X017178Y001500D01*
X016928Y001250D01*
X016678Y001500D01*
X016178Y001500D01*
X015928Y001250D01*
X015928Y000750D01*
X016178Y000500D01*
X016678Y000500D01*
X016928Y000750D01*
X017178Y000500D01*
X017678Y000500D01*
X017928Y000750D01*
X018178Y000500D01*
X018678Y000500D01*
X018928Y000750D01*
X019178Y000500D01*
X019678Y000500D01*
X019928Y000750D01*
X020178Y000500D01*
X020678Y000500D01*
X020928Y000750D01*
X020928Y001250D01*
X020678Y001500D01*
X020178Y001500D01*
X019928Y001250D01*
X019678Y001500D01*
X019178Y001500D01*
X018928Y001250D01*
X018678Y001500D01*
X018178Y001500D01*
X017928Y001250D01*
X017678Y001500D01*
X031138Y016200D02*
X031138Y018100D01*
X031438Y017850D02*
X031588Y018000D01*
X031738Y017850D01*
X031588Y018000D02*
X031588Y017650D01*
X032038Y018100D02*
X032038Y016200D01*
D23*
X009908Y010200D03*
D24*
X025128Y010900D03*
X025628Y010900D03*
X026928Y010900D03*
X027428Y010900D03*
X028528Y010900D03*
X029028Y010900D03*
X029128Y016900D03*
M02*
