G75*
G70*
%OFA0B0*%
%FSLAX24Y24*%
%IPPOS*%
%LPD*%
%AMOC8*
5,1,8,0,0,1.08239X$1,22.5*
%
%ADD10C,0.0000*%
%ADD11OC8,0.0610*%
%ADD12C,0.0740*%
%ADD13C,0.0270*%
%ADD14C,0.0100*%
%ADD15C,0.0500*%
%ADD16C,0.0080*%
%ADD17C,0.0400*%
%ADD18C,0.0090*%
%ADD19C,0.0160*%
%ADD20C,0.0320*%
D10*
X000628Y000100D02*
X000628Y018996D01*
X032998Y018996D01*
X032998Y000100D01*
X000628Y000100D01*
D11*
X008228Y015700D03*
X009228Y015700D03*
X009228Y016700D03*
X008228Y016700D03*
X008228Y017700D03*
X009228Y017700D03*
D12*
X012228Y017850D03*
X013228Y017750D03*
X014228Y017850D03*
X015228Y017750D03*
X016228Y017850D03*
X017228Y017750D03*
X018228Y017850D03*
X022078Y017600D03*
X021978Y016600D03*
X022078Y015600D03*
X021978Y014600D03*
X022078Y013600D03*
X021978Y012600D03*
X022078Y011600D03*
X021978Y010600D03*
X022078Y009600D03*
X023728Y009250D03*
X024728Y009150D03*
X025728Y009250D03*
X026728Y009150D03*
X027728Y009250D03*
X028728Y009150D03*
X029728Y009250D03*
X030728Y009150D03*
X031728Y009250D03*
X031928Y006900D03*
X031828Y005900D03*
X031928Y004900D03*
X031828Y003900D03*
X031928Y002900D03*
X031828Y001900D03*
X031928Y000900D03*
X023928Y000900D03*
X023828Y001900D03*
X022078Y002000D03*
X021978Y003000D03*
X022078Y004000D03*
X023828Y003900D03*
X023928Y002900D03*
X023928Y004900D03*
X023828Y005900D03*
X022078Y006000D03*
X021978Y005000D03*
X023928Y006900D03*
X021028Y008050D03*
X020028Y007950D03*
X019028Y008050D03*
X018028Y007950D03*
X017028Y008050D03*
X016428Y006050D03*
X017428Y005950D03*
X018428Y006050D03*
X019428Y001050D03*
X020428Y000950D03*
X018428Y000950D03*
X017428Y001050D03*
X016428Y000950D03*
X005688Y004880D03*
X005588Y005880D03*
X005688Y006880D03*
X005588Y007880D03*
X005688Y008880D03*
X002598Y017100D03*
X001458Y017100D03*
D13*
X001928Y018100D03*
X004728Y016900D03*
X003128Y015900D03*
X005428Y014300D03*
X006998Y014440D03*
X006998Y014950D03*
X006988Y015460D03*
X006988Y015950D03*
X006988Y016450D03*
X006978Y016950D03*
X007428Y017100D03*
X006978Y017960D03*
X007408Y018250D03*
X013478Y015200D03*
X013028Y014400D03*
X013978Y013950D03*
X014478Y013950D03*
X014978Y013950D03*
X015478Y013950D03*
X015478Y013450D03*
X014978Y013450D03*
X014478Y013450D03*
X013978Y013450D03*
X013978Y012950D03*
X014478Y012950D03*
X014978Y012950D03*
X015478Y012950D03*
X015478Y012450D03*
X014978Y012450D03*
X014478Y012450D03*
X013978Y012450D03*
X013128Y011400D03*
X012628Y011400D03*
X014128Y010600D03*
X013728Y009800D03*
X013128Y009600D03*
X011828Y009400D03*
X008728Y009200D03*
X008228Y009200D03*
X007728Y009200D03*
X007728Y009700D03*
X007228Y009700D03*
X007228Y009200D03*
X007228Y008700D03*
X007728Y008700D03*
X008228Y008700D03*
X008728Y008700D03*
X008728Y008200D03*
X008728Y007700D03*
X008228Y007700D03*
X007728Y007700D03*
X007728Y008200D03*
X008228Y008200D03*
X007228Y008200D03*
X007228Y007700D03*
X004838Y007330D03*
X003638Y007480D03*
X002838Y007480D03*
X002038Y007480D03*
X004838Y008330D03*
X004938Y006380D03*
X003238Y005580D03*
X002438Y005580D03*
X002438Y004880D03*
X001938Y004480D03*
X002738Y004280D03*
X003238Y004880D03*
X002738Y003080D03*
X004138Y002480D03*
X004738Y002580D03*
X006038Y002780D03*
X006038Y002180D03*
X006038Y001580D03*
X005438Y001580D03*
X004738Y001580D03*
X004838Y000980D03*
X005438Y000980D03*
X006038Y000980D03*
X006038Y003380D03*
X006038Y003980D03*
X001238Y000780D03*
X015828Y001600D03*
X016328Y001600D03*
X018328Y003100D03*
X018828Y003100D03*
X019328Y003100D03*
X019328Y003600D03*
X018828Y003600D03*
X018328Y003600D03*
X018328Y004100D03*
X018828Y004100D03*
X019328Y004100D03*
X020228Y003500D03*
X021128Y002800D03*
X021128Y001600D03*
X021128Y001200D03*
X021128Y000800D03*
X021628Y000800D03*
X022128Y000800D03*
X022128Y001200D03*
X021628Y001200D03*
X025028Y003300D03*
X025028Y004100D03*
X026028Y005000D03*
X027128Y005000D03*
X027528Y004300D03*
X027878Y003900D03*
X027528Y003560D03*
X028228Y003550D03*
X028228Y004300D03*
X028728Y005000D03*
X026028Y006000D03*
X025528Y006300D03*
X025328Y007200D03*
X022228Y007700D03*
X022228Y008200D03*
X022228Y008700D03*
X021728Y008700D03*
X020288Y008960D03*
X019408Y008640D03*
X017128Y010500D03*
X015758Y009190D03*
X015188Y009190D03*
X015158Y009830D03*
X016328Y011800D03*
X016928Y012200D03*
X020228Y013950D03*
X020728Y013950D03*
X021228Y013950D03*
X021108Y015080D03*
X020008Y015580D03*
X020428Y016010D03*
X021128Y016070D03*
X020548Y016540D03*
X019968Y016540D03*
X019978Y017450D03*
X019228Y017450D03*
X019228Y018200D03*
X019978Y018200D03*
X020728Y018200D03*
X021478Y018200D03*
X023528Y018300D03*
X024028Y018300D03*
X024028Y017900D03*
X023528Y017900D03*
X023528Y017400D03*
X024028Y017400D03*
X024528Y017400D03*
X025028Y017400D03*
X025528Y017400D03*
X025528Y017900D03*
X026028Y017900D03*
X026028Y018300D03*
X025528Y018300D03*
X025028Y018300D03*
X024528Y018300D03*
X024528Y017900D03*
X025028Y017900D03*
X025528Y016900D03*
X026528Y017900D03*
X027028Y017900D03*
X027028Y018300D03*
X026528Y018300D03*
X027528Y018300D03*
X028028Y018300D03*
X028028Y017900D03*
X027528Y017900D03*
X028528Y017900D03*
X029028Y017900D03*
X029028Y018300D03*
X028528Y018300D03*
X029528Y018300D03*
X029528Y017900D03*
X029528Y017200D03*
X029528Y016300D03*
X029328Y015900D03*
X028623Y016065D03*
X028018Y015420D03*
X026942Y014990D03*
X027828Y014400D03*
X028328Y014400D03*
X028828Y014400D03*
X028828Y013900D03*
X028828Y013400D03*
X028328Y013400D03*
X027828Y013400D03*
X027828Y013900D03*
X028328Y013900D03*
X026328Y012700D03*
X025728Y012600D03*
X023528Y012900D03*
X023528Y013400D03*
X023528Y013900D03*
X023528Y014400D03*
X024228Y014700D03*
X024728Y014700D03*
X025228Y014700D03*
X023528Y014900D03*
X023528Y015400D03*
X023528Y015900D03*
X023528Y016400D03*
X023528Y016900D03*
X024028Y016900D03*
X018988Y014720D03*
X018538Y014280D03*
X016228Y015200D03*
X016228Y015950D03*
X013818Y016590D03*
X009258Y014240D03*
X008228Y014500D03*
X009258Y013040D03*
X009628Y012500D03*
X009488Y011920D03*
X010138Y011920D03*
X008728Y011800D03*
X007428Y011600D03*
X007228Y010700D03*
X007228Y010200D03*
X005828Y010600D03*
X005228Y011200D03*
X004628Y010600D03*
X003428Y010600D03*
X002828Y011100D03*
X003028Y011800D03*
X001228Y012400D03*
X001238Y009380D03*
X008828Y010300D03*
X011528Y012300D03*
X011628Y012800D03*
X020928Y005700D03*
X020328Y004600D03*
X017328Y003800D03*
X015828Y005500D03*
X026128Y010400D03*
X026428Y010100D03*
X027328Y010100D03*
X027928Y010200D03*
X027928Y010700D03*
X028028Y011300D03*
X026428Y011200D03*
X026428Y010700D03*
X028928Y010200D03*
X031028Y010000D03*
X031528Y010000D03*
X032028Y010000D03*
X032028Y010500D03*
X031528Y010500D03*
X031028Y010500D03*
X031028Y011000D03*
X031528Y011000D03*
X032028Y011000D03*
X032028Y011500D03*
X031528Y011500D03*
X031528Y012000D03*
X032028Y012000D03*
X032028Y012500D03*
X031528Y012500D03*
X031528Y013000D03*
X032028Y013000D03*
X032028Y013500D03*
X031528Y013500D03*
X031028Y013500D03*
X031028Y014000D03*
X031528Y014000D03*
X032028Y014000D03*
X032028Y014500D03*
X031528Y014500D03*
X031028Y014500D03*
X031028Y015000D03*
X031528Y015000D03*
X032028Y015000D03*
X029428Y012600D03*
X031028Y011500D03*
D14*
X032328Y011526D02*
X023228Y011526D01*
X023228Y011428D02*
X032328Y011428D01*
X032328Y011329D02*
X023228Y011329D01*
X023228Y011231D02*
X032328Y011231D01*
X032328Y011132D02*
X023228Y011132D01*
X023228Y011034D02*
X032328Y011034D01*
X032328Y010935D02*
X023228Y010935D01*
X023228Y010837D02*
X032328Y010837D01*
X032328Y010738D02*
X023228Y010738D01*
X023228Y010640D02*
X032328Y010640D01*
X032328Y010541D02*
X023228Y010541D01*
X023228Y010443D02*
X032328Y010443D01*
X032328Y010344D02*
X023228Y010344D01*
X023228Y010246D02*
X032328Y010246D01*
X032328Y010147D02*
X023228Y010147D01*
X023228Y010049D02*
X032328Y010049D01*
X032328Y009950D02*
X023228Y009950D01*
X023228Y009852D02*
X032328Y009852D01*
X032328Y009753D02*
X031862Y009753D01*
X031849Y009757D02*
X031778Y009769D01*
X031778Y009300D01*
X032246Y009300D01*
X032235Y009372D01*
X032209Y009450D01*
X032172Y009523D01*
X032124Y009589D01*
X032066Y009647D01*
X032000Y009695D01*
X031927Y009732D01*
X031849Y009757D01*
X031778Y009753D02*
X031678Y009753D01*
X031678Y009769D02*
X031606Y009757D01*
X031528Y009732D01*
X031455Y009695D01*
X031389Y009647D01*
X031331Y009589D01*
X031283Y009523D01*
X031246Y009450D01*
X031220Y009372D01*
X031214Y009334D01*
X031168Y009445D01*
X031022Y009591D01*
X030831Y009670D01*
X030624Y009670D01*
X030433Y009591D01*
X030287Y009445D01*
X030248Y009350D01*
X030248Y009353D01*
X030168Y009545D01*
X030022Y009691D01*
X029831Y009770D01*
X029624Y009770D01*
X029433Y009691D01*
X029287Y009545D01*
X029208Y009353D01*
X029208Y009350D01*
X029168Y009445D01*
X029022Y009591D01*
X028831Y009670D01*
X028624Y009670D01*
X028433Y009591D01*
X028287Y009445D01*
X028248Y009350D01*
X028248Y009353D01*
X028168Y009545D01*
X028022Y009691D01*
X027831Y009770D01*
X027624Y009770D01*
X027433Y009691D01*
X027287Y009545D01*
X027208Y009353D01*
X027208Y009350D01*
X027168Y009445D01*
X027022Y009591D01*
X026831Y009670D01*
X026624Y009670D01*
X026433Y009591D01*
X026287Y009445D01*
X026248Y009350D01*
X026248Y009353D01*
X026168Y009545D01*
X026022Y009691D01*
X025831Y009770D01*
X025624Y009770D01*
X025433Y009691D01*
X025287Y009545D01*
X025208Y009353D01*
X025208Y009350D01*
X025168Y009445D01*
X025022Y009591D01*
X024831Y009670D01*
X024624Y009670D01*
X024433Y009591D01*
X024287Y009445D01*
X024248Y009350D01*
X024248Y009353D01*
X024168Y009545D01*
X024022Y009691D01*
X023831Y009770D01*
X023624Y009770D01*
X023433Y009691D01*
X023287Y009545D01*
X023228Y009402D01*
X023228Y018500D01*
X030428Y018500D01*
X030428Y015300D01*
X032328Y015300D01*
X032328Y008700D01*
X031000Y008700D01*
X031022Y008709D01*
X031168Y008855D01*
X031248Y009047D01*
X031283Y008977D01*
X031331Y008911D01*
X031389Y008853D01*
X031455Y008805D01*
X031528Y008768D01*
X031606Y008743D01*
X031678Y008731D01*
X031678Y009200D01*
X031778Y009200D01*
X031778Y009300D01*
X031678Y009300D01*
X031678Y009769D01*
X031593Y009753D02*
X029872Y009753D01*
X030058Y009655D02*
X030587Y009655D01*
X030398Y009556D02*
X030157Y009556D01*
X030204Y009458D02*
X030300Y009458D01*
X030251Y009359D02*
X030245Y009359D01*
X030868Y009655D02*
X031400Y009655D01*
X031307Y009556D02*
X031057Y009556D01*
X031155Y009458D02*
X031250Y009458D01*
X031218Y009359D02*
X031204Y009359D01*
X031678Y009359D02*
X031778Y009359D01*
X031778Y009261D02*
X032328Y009261D01*
X032328Y009359D02*
X032237Y009359D01*
X032205Y009458D02*
X032328Y009458D01*
X032328Y009556D02*
X032148Y009556D01*
X032055Y009655D02*
X032328Y009655D01*
X031778Y009655D02*
X031678Y009655D01*
X031678Y009556D02*
X031778Y009556D01*
X031778Y009458D02*
X031678Y009458D01*
X031778Y009200D02*
X032246Y009200D01*
X032235Y009128D01*
X032209Y009050D01*
X032172Y008977D01*
X032124Y008911D01*
X032066Y008853D01*
X032000Y008805D01*
X031927Y008768D01*
X032328Y008768D01*
X032328Y008867D02*
X032079Y008867D01*
X032163Y008965D02*
X032328Y008965D01*
X032328Y009064D02*
X032214Y009064D01*
X032240Y009162D02*
X032328Y009162D01*
X031778Y009162D02*
X031678Y009162D01*
X031678Y009064D02*
X031778Y009064D01*
X031778Y008965D02*
X031678Y008965D01*
X031678Y008867D02*
X031778Y008867D01*
X031778Y008768D02*
X031678Y008768D01*
X031778Y008731D02*
X031849Y008743D01*
X031927Y008768D01*
X031778Y008731D02*
X031778Y009200D01*
X031376Y008867D02*
X031173Y008867D01*
X031214Y008965D02*
X031292Y008965D01*
X031248Y009047D02*
X031248Y009047D01*
X031081Y008768D02*
X031528Y008768D01*
X032328Y008000D02*
X032317Y007190D01*
X032199Y007307D01*
X032023Y007380D01*
X031832Y007380D01*
X031656Y007307D01*
X031521Y007172D01*
X031448Y006995D01*
X026988Y006995D01*
X026988Y006897D02*
X031448Y006897D01*
X031448Y006805D02*
X031448Y006995D01*
X031488Y007094D02*
X026988Y007094D01*
X026988Y007192D02*
X031541Y007192D01*
X031639Y007291D02*
X026963Y007291D01*
X026988Y007266D02*
X026688Y007566D01*
X026594Y007660D01*
X025561Y007660D01*
X025346Y007445D01*
X025279Y007445D01*
X025189Y007408D01*
X025120Y007339D01*
X025083Y007249D01*
X025083Y007151D01*
X025120Y007061D01*
X025189Y006992D01*
X025279Y006955D01*
X025376Y006955D01*
X025466Y006992D01*
X025535Y007061D01*
X025573Y007151D01*
X025573Y007219D01*
X025694Y007340D01*
X026461Y007340D01*
X026668Y007134D01*
X026668Y005734D01*
X026761Y005640D01*
X027061Y005340D01*
X027361Y005340D01*
X027861Y004840D01*
X028541Y004840D01*
X028589Y004792D01*
X028679Y004755D01*
X028776Y004755D01*
X028866Y004792D01*
X028935Y004861D01*
X028973Y004951D01*
X028973Y005049D01*
X028935Y005139D01*
X028866Y005208D01*
X028776Y005245D01*
X028679Y005245D01*
X028589Y005208D01*
X028541Y005160D01*
X027994Y005160D01*
X027588Y005566D01*
X027494Y005660D01*
X027194Y005660D01*
X026988Y005866D01*
X026988Y007266D01*
X026828Y007200D02*
X026528Y007500D01*
X025628Y007500D01*
X025328Y007200D01*
X025573Y007192D02*
X026609Y007192D01*
X026668Y007094D02*
X025549Y007094D01*
X025469Y006995D02*
X026668Y006995D01*
X026668Y006897D02*
X024408Y006897D01*
X024408Y006805D02*
X024408Y006995D01*
X025186Y006995D01*
X025106Y007094D02*
X024367Y007094D01*
X024334Y007172D02*
X024199Y007307D01*
X024023Y007380D01*
X023832Y007380D01*
X023656Y007307D01*
X023521Y007172D01*
X023448Y006995D01*
X023328Y006995D01*
X023328Y006897D02*
X023448Y006897D01*
X023448Y006805D02*
X023448Y006995D01*
X023488Y007094D02*
X023328Y007094D01*
X023328Y007192D02*
X023541Y007192D01*
X023639Y007291D02*
X023328Y007291D01*
X023328Y007389D02*
X025170Y007389D01*
X025100Y007291D02*
X024216Y007291D01*
X024314Y007192D02*
X025083Y007192D01*
X025389Y007488D02*
X023328Y007488D01*
X023328Y007586D02*
X025487Y007586D01*
X025644Y007291D02*
X026511Y007291D01*
X026766Y007488D02*
X032321Y007488D01*
X032322Y007586D02*
X026668Y007586D01*
X026865Y007389D02*
X032319Y007389D01*
X032318Y007291D02*
X032216Y007291D01*
X032314Y007192D02*
X032317Y007192D01*
X031448Y006805D02*
X031521Y006628D01*
X031656Y006493D01*
X031832Y006420D01*
X032023Y006420D01*
X032199Y006493D01*
X032309Y006603D01*
X032301Y006011D01*
X032234Y006172D01*
X032099Y006307D01*
X031923Y006380D01*
X031732Y006380D01*
X031556Y006307D01*
X031421Y006172D01*
X031348Y005995D01*
X031348Y005805D01*
X031421Y005628D01*
X031556Y005493D01*
X031732Y005420D01*
X031923Y005420D01*
X032099Y005493D01*
X032234Y005628D01*
X032298Y005781D01*
X032290Y005216D01*
X032199Y005307D01*
X032023Y005380D01*
X031832Y005380D01*
X031656Y005307D01*
X031521Y005172D01*
X031448Y004995D01*
X031448Y004805D01*
X031521Y004628D01*
X031656Y004493D01*
X031832Y004420D01*
X032023Y004420D01*
X032199Y004493D01*
X032282Y004576D01*
X032275Y004074D01*
X032234Y004172D01*
X032099Y004307D01*
X031923Y004380D01*
X031732Y004380D01*
X031556Y004307D01*
X031421Y004172D01*
X031348Y003995D01*
X031348Y003805D01*
X031421Y003628D01*
X031556Y003493D01*
X031732Y003420D01*
X031923Y003420D01*
X032099Y003493D01*
X032234Y003628D01*
X032270Y003715D01*
X032264Y003242D01*
X032199Y003307D01*
X032023Y003380D01*
X031832Y003380D01*
X031656Y003307D01*
X031521Y003172D01*
X031448Y002995D01*
X031448Y002805D01*
X031521Y002628D01*
X031656Y002493D01*
X031832Y002420D01*
X032023Y002420D01*
X032199Y002493D01*
X032255Y002548D01*
X032249Y002136D01*
X032234Y002172D01*
X032099Y002307D01*
X031923Y002380D01*
X031732Y002380D01*
X031556Y002307D01*
X031421Y002172D01*
X031348Y001995D01*
X031348Y001805D01*
X031421Y001628D01*
X031556Y001493D01*
X031732Y001420D01*
X031923Y001420D01*
X032099Y001493D01*
X032234Y001628D01*
X032243Y001648D01*
X032238Y001269D01*
X032199Y001307D01*
X032023Y001380D01*
X031832Y001380D01*
X031656Y001307D01*
X031521Y001172D01*
X031448Y000995D01*
X031448Y000805D01*
X031521Y000628D01*
X031649Y000500D01*
X024262Y000500D01*
X024266Y000503D01*
X024324Y000561D01*
X024372Y000627D01*
X024409Y000700D01*
X024435Y000778D01*
X024446Y000850D01*
X023978Y000850D01*
X023978Y000950D01*
X024446Y000950D01*
X024435Y001022D01*
X024409Y001100D01*
X024372Y001173D01*
X024324Y001239D01*
X024266Y001297D01*
X024200Y001345D01*
X024127Y001382D01*
X024049Y001407D01*
X023978Y001419D01*
X023978Y000950D01*
X023878Y000950D01*
X023878Y001419D01*
X023806Y001407D01*
X023728Y001382D01*
X023655Y001345D01*
X023589Y001297D01*
X023531Y001239D01*
X023483Y001173D01*
X023446Y001100D01*
X023420Y001022D01*
X023409Y000950D01*
X023878Y000950D01*
X023878Y000850D01*
X023409Y000850D01*
X023420Y000778D01*
X023446Y000700D01*
X023483Y000627D01*
X023531Y000561D01*
X023589Y000503D01*
X023593Y000500D01*
X023328Y000500D01*
X023328Y008000D01*
X032328Y008000D01*
X032327Y007980D02*
X023328Y007980D01*
X023328Y007882D02*
X032326Y007882D01*
X032325Y007783D02*
X023328Y007783D01*
X023328Y007685D02*
X032323Y007685D01*
X031450Y006798D02*
X026988Y006798D01*
X026988Y006700D02*
X031491Y006700D01*
X031548Y006601D02*
X026988Y006601D01*
X026988Y006503D02*
X031646Y006503D01*
X031554Y006306D02*
X026988Y006306D01*
X026988Y006404D02*
X032306Y006404D01*
X032305Y006306D02*
X032101Y006306D01*
X032199Y006207D02*
X032304Y006207D01*
X032302Y006109D02*
X032261Y006109D01*
X032270Y005715D02*
X032297Y005715D01*
X032296Y005616D02*
X032222Y005616D01*
X032294Y005518D02*
X032124Y005518D01*
X032293Y005419D02*
X027735Y005419D01*
X027833Y005321D02*
X031688Y005321D01*
X031571Y005222D02*
X028832Y005222D01*
X028942Y005124D02*
X031501Y005124D01*
X031460Y005025D02*
X028973Y005025D01*
X028962Y004927D02*
X031448Y004927D01*
X031448Y004828D02*
X028902Y004828D01*
X028728Y005000D02*
X027928Y005000D01*
X027428Y005500D01*
X027128Y005500D01*
X026828Y005800D01*
X026828Y007200D01*
X026668Y006798D02*
X024405Y006798D01*
X024408Y006805D02*
X024334Y006628D01*
X024199Y006493D01*
X024023Y006420D01*
X023832Y006420D01*
X023656Y006493D01*
X023521Y006628D01*
X023448Y006805D01*
X023450Y006798D02*
X023328Y006798D01*
X023328Y006700D02*
X023491Y006700D01*
X023548Y006601D02*
X023328Y006601D01*
X023328Y006503D02*
X023646Y006503D01*
X023732Y006380D02*
X023556Y006307D01*
X023421Y006172D01*
X023348Y005995D01*
X023348Y005805D01*
X023421Y005628D01*
X023556Y005493D01*
X023732Y005420D01*
X023923Y005420D01*
X024099Y005493D01*
X024234Y005628D01*
X024308Y005805D01*
X024308Y005995D01*
X024234Y006172D01*
X024099Y006307D01*
X023923Y006380D01*
X023732Y006380D01*
X023554Y006306D02*
X023328Y006306D01*
X023328Y006404D02*
X025305Y006404D01*
X025320Y006439D02*
X025283Y006349D01*
X025283Y006251D01*
X025320Y006161D01*
X025389Y006092D01*
X025479Y006055D01*
X025576Y006055D01*
X025666Y006092D01*
X025735Y006161D01*
X025768Y006240D01*
X025967Y006240D01*
X025889Y006208D01*
X025820Y006139D01*
X025783Y006049D01*
X025783Y005951D01*
X025820Y005861D01*
X025868Y005814D01*
X025868Y005186D01*
X025820Y005139D01*
X025783Y005049D01*
X025783Y004951D01*
X025820Y004861D01*
X025889Y004792D01*
X025979Y004755D01*
X026076Y004755D01*
X026166Y004792D01*
X026235Y004861D01*
X026273Y004951D01*
X026273Y005049D01*
X026235Y005139D01*
X026188Y005186D01*
X026188Y005814D01*
X026235Y005861D01*
X026268Y005939D01*
X026268Y005234D01*
X026361Y005140D01*
X026661Y004840D01*
X026941Y004840D01*
X026989Y004792D01*
X027079Y004755D01*
X027176Y004755D01*
X027266Y004792D01*
X027335Y004861D01*
X027373Y004951D01*
X027373Y005049D01*
X027335Y005139D01*
X027266Y005208D01*
X027176Y005245D01*
X027079Y005245D01*
X026989Y005208D01*
X026941Y005160D01*
X026794Y005160D01*
X026588Y005366D01*
X026588Y006266D01*
X026388Y006466D01*
X026294Y006560D01*
X025561Y006560D01*
X025546Y006545D01*
X025479Y006545D01*
X025389Y006508D01*
X025320Y006439D01*
X025384Y006503D02*
X024209Y006503D01*
X024307Y006601D02*
X026668Y006601D01*
X026668Y006503D02*
X026351Y006503D01*
X026450Y006404D02*
X026668Y006404D01*
X026668Y006306D02*
X026548Y006306D01*
X026588Y006207D02*
X026668Y006207D01*
X026668Y006109D02*
X026588Y006109D01*
X026588Y006010D02*
X026668Y006010D01*
X026668Y005912D02*
X026588Y005912D01*
X026588Y005813D02*
X026668Y005813D01*
X026687Y005715D02*
X026588Y005715D01*
X026588Y005616D02*
X026785Y005616D01*
X026884Y005518D02*
X026588Y005518D01*
X026588Y005419D02*
X026982Y005419D01*
X027023Y005222D02*
X026732Y005222D01*
X026633Y005321D02*
X027381Y005321D01*
X027479Y005222D02*
X027232Y005222D01*
X027342Y005124D02*
X027578Y005124D01*
X027676Y005025D02*
X027373Y005025D01*
X027362Y004927D02*
X027775Y004927D01*
X027302Y004828D02*
X028553Y004828D01*
X028623Y005222D02*
X027932Y005222D01*
X027636Y005518D02*
X031531Y005518D01*
X031433Y005616D02*
X027538Y005616D01*
X027139Y005715D02*
X031385Y005715D01*
X031348Y005813D02*
X027041Y005813D01*
X026988Y005912D02*
X031348Y005912D01*
X031354Y006010D02*
X026988Y006010D01*
X026988Y006109D02*
X031394Y006109D01*
X031456Y006207D02*
X026988Y006207D01*
X026428Y006200D02*
X026228Y006400D01*
X025628Y006400D01*
X025528Y006300D01*
X025754Y006207D02*
X025888Y006207D01*
X025807Y006109D02*
X025683Y006109D01*
X025783Y006010D02*
X024302Y006010D01*
X024308Y005912D02*
X025799Y005912D01*
X025868Y005813D02*
X024308Y005813D01*
X024270Y005715D02*
X025868Y005715D01*
X025868Y005616D02*
X024222Y005616D01*
X024124Y005518D02*
X025868Y005518D01*
X025868Y005419D02*
X023328Y005419D01*
X023328Y005321D02*
X023688Y005321D01*
X023656Y005307D02*
X023521Y005172D01*
X023448Y004995D01*
X023448Y004805D01*
X023521Y004628D01*
X023656Y004493D01*
X023832Y004420D01*
X024023Y004420D01*
X024199Y004493D01*
X024334Y004628D01*
X024408Y004805D01*
X024408Y004995D01*
X024334Y005172D01*
X024199Y005307D01*
X024023Y005380D01*
X023832Y005380D01*
X023656Y005307D01*
X023571Y005222D02*
X023328Y005222D01*
X023328Y005124D02*
X023501Y005124D01*
X023460Y005025D02*
X023328Y005025D01*
X023328Y004927D02*
X023448Y004927D01*
X023448Y004828D02*
X023328Y004828D01*
X023328Y004730D02*
X023479Y004730D01*
X023519Y004631D02*
X023328Y004631D01*
X023328Y004533D02*
X023616Y004533D01*
X023732Y004380D02*
X023556Y004307D01*
X023421Y004172D01*
X023348Y003995D01*
X023348Y003805D01*
X023421Y003628D01*
X023556Y003493D01*
X023732Y003420D01*
X023923Y003420D01*
X024099Y003493D01*
X024234Y003628D01*
X024308Y003805D01*
X024308Y003995D01*
X024234Y004172D01*
X024099Y004307D01*
X023923Y004380D01*
X023732Y004380D01*
X023798Y004434D02*
X023328Y004434D01*
X023328Y004336D02*
X023625Y004336D01*
X023486Y004237D02*
X023328Y004237D01*
X023328Y004139D02*
X023407Y004139D01*
X023366Y004040D02*
X023328Y004040D01*
X023328Y003942D02*
X023348Y003942D01*
X023348Y003843D02*
X023328Y003843D01*
X023328Y003745D02*
X023372Y003745D01*
X023413Y003646D02*
X023328Y003646D01*
X023328Y003548D02*
X023501Y003548D01*
X023662Y003449D02*
X023328Y003449D01*
X023328Y003351D02*
X023761Y003351D01*
X023832Y003380D02*
X023656Y003307D01*
X023521Y003172D01*
X023448Y002995D01*
X023448Y002805D01*
X023521Y002628D01*
X023656Y002493D01*
X023832Y002420D01*
X024023Y002420D01*
X024199Y002493D01*
X024334Y002628D01*
X024408Y002805D01*
X024408Y002995D01*
X024334Y003172D01*
X024199Y003307D01*
X024023Y003380D01*
X023832Y003380D01*
X023993Y003449D02*
X024830Y003449D01*
X024820Y003439D02*
X024868Y003486D01*
X024868Y003914D01*
X024820Y003961D01*
X024783Y004051D01*
X024783Y004149D01*
X024820Y004239D01*
X024889Y004308D01*
X024979Y004345D01*
X025076Y004345D01*
X025166Y004308D01*
X025235Y004239D01*
X025273Y004149D01*
X025273Y004051D01*
X025235Y003961D01*
X025188Y003914D01*
X025188Y003486D01*
X025235Y003439D01*
X025273Y003349D01*
X025273Y003251D01*
X025235Y003161D01*
X025166Y003092D01*
X025076Y003055D01*
X024979Y003055D01*
X024889Y003092D01*
X024820Y003161D01*
X024783Y003251D01*
X024783Y003349D01*
X024820Y003439D01*
X024783Y003351D02*
X024094Y003351D01*
X024254Y003252D02*
X024783Y003252D01*
X024828Y003154D02*
X024342Y003154D01*
X024383Y003055D02*
X024979Y003055D01*
X025076Y003055D02*
X031472Y003055D01*
X031448Y002957D02*
X024408Y002957D01*
X024408Y002858D02*
X031448Y002858D01*
X031466Y002760D02*
X024389Y002760D01*
X024348Y002661D02*
X031507Y002661D01*
X031586Y002563D02*
X024269Y002563D01*
X024129Y002464D02*
X031726Y002464D01*
X031697Y002366D02*
X023958Y002366D01*
X023923Y002380D02*
X023732Y002380D01*
X023556Y002307D01*
X023421Y002172D01*
X023348Y001995D01*
X023348Y001805D01*
X023421Y001628D01*
X023556Y001493D01*
X023732Y001420D01*
X023923Y001420D01*
X024099Y001493D01*
X024234Y001628D01*
X024308Y001805D01*
X024308Y001995D01*
X024234Y002172D01*
X024099Y002307D01*
X023923Y002380D01*
X023726Y002464D02*
X023328Y002464D01*
X023328Y002366D02*
X023697Y002366D01*
X023516Y002267D02*
X023328Y002267D01*
X023328Y002169D02*
X023419Y002169D01*
X023378Y002070D02*
X023328Y002070D01*
X023328Y001972D02*
X023348Y001972D01*
X023348Y001873D02*
X023328Y001873D01*
X023328Y001775D02*
X023360Y001775D01*
X023328Y001676D02*
X023401Y001676D01*
X023471Y001578D02*
X023328Y001578D01*
X023328Y001479D02*
X023590Y001479D01*
X023725Y001381D02*
X023328Y001381D01*
X023328Y001282D02*
X023574Y001282D01*
X023491Y001184D02*
X023328Y001184D01*
X023328Y001085D02*
X023441Y001085D01*
X023415Y000987D02*
X023328Y000987D01*
X023328Y000888D02*
X023878Y000888D01*
X023878Y000987D02*
X023978Y000987D01*
X023978Y001085D02*
X023878Y001085D01*
X023878Y001184D02*
X023978Y001184D01*
X023978Y001282D02*
X023878Y001282D01*
X023878Y001381D02*
X023978Y001381D01*
X024065Y001479D02*
X031590Y001479D01*
X031471Y001578D02*
X024184Y001578D01*
X024254Y001676D02*
X031401Y001676D01*
X031360Y001775D02*
X024295Y001775D01*
X024308Y001873D02*
X031348Y001873D01*
X031348Y001972D02*
X024308Y001972D01*
X024277Y002070D02*
X031378Y002070D01*
X031419Y002169D02*
X024236Y002169D01*
X024139Y002267D02*
X031516Y002267D01*
X031958Y002366D02*
X032252Y002366D01*
X032254Y002464D02*
X032129Y002464D01*
X032139Y002267D02*
X032251Y002267D01*
X032250Y002169D02*
X032236Y002169D01*
X032242Y001578D02*
X032184Y001578D01*
X032241Y001479D02*
X032065Y001479D01*
X032239Y001381D02*
X024130Y001381D01*
X024281Y001282D02*
X031631Y001282D01*
X031532Y001184D02*
X024364Y001184D01*
X024414Y001085D02*
X031485Y001085D01*
X031448Y000987D02*
X024440Y000987D01*
X024437Y000790D02*
X031454Y000790D01*
X031448Y000888D02*
X023978Y000888D01*
X024405Y000691D02*
X031495Y000691D01*
X031556Y000593D02*
X024347Y000593D01*
X023508Y000593D02*
X023328Y000593D01*
X023328Y000691D02*
X023450Y000691D01*
X023419Y000790D02*
X023328Y000790D01*
X023328Y002563D02*
X023586Y002563D01*
X023507Y002661D02*
X023328Y002661D01*
X023328Y002760D02*
X023466Y002760D01*
X023448Y002858D02*
X023328Y002858D01*
X023328Y002957D02*
X023448Y002957D01*
X023472Y003055D02*
X023328Y003055D01*
X023328Y003154D02*
X023513Y003154D01*
X023601Y003252D02*
X023328Y003252D01*
X024154Y003548D02*
X024868Y003548D01*
X024868Y003646D02*
X024242Y003646D01*
X024283Y003745D02*
X024868Y003745D01*
X024868Y003843D02*
X024308Y003843D01*
X024308Y003942D02*
X024840Y003942D01*
X024787Y004040D02*
X024289Y004040D01*
X024248Y004139D02*
X024783Y004139D01*
X024819Y004237D02*
X024169Y004237D01*
X024030Y004336D02*
X024956Y004336D01*
X025099Y004336D02*
X031625Y004336D01*
X031486Y004237D02*
X025236Y004237D01*
X025273Y004139D02*
X031407Y004139D01*
X031366Y004040D02*
X025268Y004040D01*
X025216Y003942D02*
X031348Y003942D01*
X031348Y003843D02*
X025188Y003843D01*
X025188Y003745D02*
X031372Y003745D01*
X031413Y003646D02*
X025188Y003646D01*
X025188Y003548D02*
X031501Y003548D01*
X031662Y003449D02*
X025225Y003449D01*
X025272Y003351D02*
X031761Y003351D01*
X031601Y003252D02*
X025273Y003252D01*
X025228Y003154D02*
X031513Y003154D01*
X032094Y003351D02*
X032266Y003351D01*
X032267Y003449D02*
X031993Y003449D01*
X032154Y003548D02*
X032268Y003548D01*
X032269Y003646D02*
X032242Y003646D01*
X032254Y003252D02*
X032264Y003252D01*
X032248Y004139D02*
X032276Y004139D01*
X032277Y004237D02*
X032169Y004237D01*
X032279Y004336D02*
X032030Y004336D01*
X032057Y004434D02*
X032280Y004434D01*
X032281Y004533D02*
X032239Y004533D01*
X031798Y004434D02*
X024057Y004434D01*
X024239Y004533D02*
X031616Y004533D01*
X031519Y004631D02*
X024336Y004631D01*
X024376Y004730D02*
X031479Y004730D01*
X032167Y005321D02*
X032292Y005321D01*
X032284Y005222D02*
X032291Y005222D01*
X032308Y006503D02*
X032209Y006503D01*
X032307Y006601D02*
X032309Y006601D01*
X029210Y009359D02*
X029204Y009359D01*
X029251Y009458D02*
X029155Y009458D01*
X029057Y009556D02*
X029298Y009556D01*
X029397Y009655D02*
X028868Y009655D01*
X028587Y009655D02*
X028058Y009655D01*
X028157Y009556D02*
X028398Y009556D01*
X028300Y009458D02*
X028204Y009458D01*
X028245Y009359D02*
X028251Y009359D01*
X027872Y009753D02*
X029583Y009753D01*
X027583Y009753D02*
X025872Y009753D01*
X026058Y009655D02*
X026587Y009655D01*
X026398Y009556D02*
X026157Y009556D01*
X026204Y009458D02*
X026300Y009458D01*
X026251Y009359D02*
X026245Y009359D01*
X026868Y009655D02*
X027397Y009655D01*
X027298Y009556D02*
X027057Y009556D01*
X027155Y009458D02*
X027251Y009458D01*
X027210Y009359D02*
X027204Y009359D01*
X025583Y009753D02*
X023872Y009753D01*
X024058Y009655D02*
X024587Y009655D01*
X024398Y009556D02*
X024157Y009556D01*
X024204Y009458D02*
X024300Y009458D01*
X024251Y009359D02*
X024245Y009359D01*
X024868Y009655D02*
X025397Y009655D01*
X025298Y009556D02*
X025057Y009556D01*
X025155Y009458D02*
X025251Y009458D01*
X025210Y009359D02*
X025204Y009359D01*
X023583Y009753D02*
X023228Y009753D01*
X023228Y009655D02*
X023397Y009655D01*
X023298Y009556D02*
X023228Y009556D01*
X023228Y009458D02*
X023251Y009458D01*
X022628Y009458D02*
X022581Y009458D01*
X022598Y009497D02*
X022598Y009703D01*
X022518Y009895D01*
X022372Y010041D01*
X022181Y010120D01*
X022178Y010120D01*
X022272Y010159D01*
X022418Y010305D01*
X022498Y010497D01*
X022498Y010703D01*
X022418Y010895D01*
X022272Y011041D01*
X022178Y011080D01*
X022181Y011080D01*
X022372Y011159D01*
X022518Y011305D01*
X022598Y011497D01*
X022598Y011703D01*
X022518Y011895D01*
X022372Y012041D01*
X022181Y012120D01*
X022178Y012120D01*
X022272Y012159D01*
X022418Y012305D01*
X022498Y012497D01*
X022498Y012703D01*
X022418Y012895D01*
X022272Y013041D01*
X022178Y013080D01*
X022181Y013080D01*
X022372Y013159D01*
X022518Y013305D01*
X022598Y013497D01*
X022598Y013703D01*
X022518Y013895D01*
X022372Y014041D01*
X022181Y014120D01*
X022178Y014120D01*
X022272Y014159D01*
X022418Y014305D01*
X022498Y014497D01*
X022498Y014703D01*
X022418Y014895D01*
X022272Y015041D01*
X022178Y015080D01*
X022181Y015080D01*
X022372Y015159D01*
X022518Y015305D01*
X022598Y015497D01*
X022598Y015703D01*
X022518Y015895D01*
X022372Y016041D01*
X022181Y016120D01*
X022178Y016120D01*
X022272Y016159D01*
X022418Y016305D01*
X022498Y016497D01*
X022498Y016703D01*
X022418Y016895D01*
X022272Y017041D01*
X022178Y017080D01*
X022181Y017080D01*
X022372Y017159D01*
X022518Y017305D01*
X022598Y017497D01*
X022598Y017703D01*
X022518Y017895D01*
X022372Y018041D01*
X022181Y018120D01*
X021974Y018120D01*
X021783Y018041D01*
X021637Y017895D01*
X021598Y017800D01*
X021245Y017800D01*
X021128Y017683D01*
X020645Y017200D01*
X013345Y017200D01*
X013228Y017083D01*
X012828Y016683D01*
X012828Y014603D01*
X012786Y014561D01*
X012743Y014457D01*
X012743Y014343D01*
X012786Y014239D01*
X012866Y014158D01*
X012971Y014115D01*
X013084Y014115D01*
X013189Y014158D01*
X013269Y014239D01*
X013313Y014343D01*
X013313Y014457D01*
X013269Y014561D01*
X013228Y014603D01*
X013228Y016517D01*
X013510Y016800D01*
X020810Y016800D01*
X021410Y017400D01*
X021598Y017400D01*
X021637Y017305D01*
X021783Y017159D01*
X021878Y017120D01*
X021874Y017120D01*
X021683Y017041D01*
X021537Y016895D01*
X021458Y016703D01*
X021458Y016497D01*
X021537Y016305D01*
X021683Y016159D01*
X021874Y016080D01*
X021878Y016080D01*
X021783Y016041D01*
X021637Y015895D01*
X021558Y015703D01*
X021558Y015497D01*
X021637Y015305D01*
X021783Y015159D01*
X021878Y015120D01*
X021874Y015120D01*
X021683Y015041D01*
X021537Y014895D01*
X021458Y014703D01*
X021458Y014497D01*
X021537Y014305D01*
X021683Y014159D01*
X021874Y014080D01*
X021878Y014080D01*
X021783Y014041D01*
X021637Y013895D01*
X021558Y013703D01*
X021558Y013497D01*
X021637Y013305D01*
X021783Y013159D01*
X021878Y013120D01*
X021874Y013120D01*
X021683Y013041D01*
X021537Y012895D01*
X021458Y012703D01*
X021458Y012497D01*
X021537Y012305D01*
X021683Y012159D01*
X021874Y012080D01*
X021878Y012080D01*
X021783Y012041D01*
X021637Y011895D01*
X021558Y011703D01*
X021558Y011497D01*
X021637Y011305D01*
X021783Y011159D01*
X021878Y011120D01*
X021874Y011120D01*
X021683Y011041D01*
X021537Y010895D01*
X021458Y010703D01*
X021458Y010497D01*
X021537Y010305D01*
X021683Y010159D01*
X021874Y010080D01*
X021878Y010080D01*
X021783Y010041D01*
X021637Y009895D01*
X021558Y009703D01*
X021558Y009497D01*
X021637Y009305D01*
X021783Y009159D01*
X021974Y009080D01*
X022181Y009080D01*
X022372Y009159D01*
X022518Y009305D01*
X022598Y009497D01*
X022598Y009556D02*
X022628Y009556D01*
X022628Y009655D02*
X022598Y009655D01*
X022577Y009753D02*
X022628Y009753D01*
X022628Y009852D02*
X022536Y009852D01*
X022463Y009950D02*
X022628Y009950D01*
X022628Y010049D02*
X022354Y010049D01*
X022243Y010147D02*
X022628Y010147D01*
X022628Y010246D02*
X022358Y010246D01*
X022434Y010344D02*
X022628Y010344D01*
X022628Y010443D02*
X022475Y010443D01*
X022498Y010541D02*
X022628Y010541D01*
X022628Y010640D02*
X022498Y010640D01*
X022483Y010738D02*
X022628Y010738D01*
X022628Y010837D02*
X022442Y010837D01*
X022378Y010935D02*
X022628Y010935D01*
X022628Y011034D02*
X022279Y011034D01*
X022307Y011132D02*
X022628Y011132D01*
X022628Y011231D02*
X022443Y011231D01*
X022528Y011329D02*
X022628Y011329D01*
X022628Y011428D02*
X022569Y011428D01*
X022598Y011526D02*
X022628Y011526D01*
X022628Y011625D02*
X022598Y011625D01*
X022589Y011723D02*
X022628Y011723D01*
X022628Y011822D02*
X022549Y011822D01*
X022493Y011920D02*
X022628Y011920D01*
X022628Y012019D02*
X022394Y012019D01*
X022328Y012216D02*
X022628Y012216D01*
X022628Y012314D02*
X022422Y012314D01*
X022463Y012413D02*
X022628Y012413D01*
X022628Y012511D02*
X022498Y012511D01*
X022498Y012610D02*
X022628Y012610D01*
X022628Y012708D02*
X022496Y012708D01*
X022455Y012807D02*
X022628Y012807D01*
X022628Y012905D02*
X022408Y012905D01*
X022309Y013004D02*
X022628Y013004D01*
X022628Y013102D02*
X022234Y013102D01*
X022413Y013201D02*
X022628Y013201D01*
X022628Y013299D02*
X022512Y013299D01*
X022557Y013398D02*
X022628Y013398D01*
X022628Y013496D02*
X022597Y013496D01*
X022598Y013595D02*
X022628Y013595D01*
X022628Y013693D02*
X022598Y013693D01*
X022628Y013792D02*
X022561Y013792D01*
X022520Y013890D02*
X022628Y013890D01*
X022628Y013989D02*
X022424Y013989D01*
X022261Y014087D02*
X022628Y014087D01*
X022628Y014186D02*
X022298Y014186D01*
X022397Y014284D02*
X022628Y014284D01*
X022628Y014383D02*
X022450Y014383D01*
X022491Y014481D02*
X022628Y014481D01*
X022628Y014580D02*
X022498Y014580D01*
X022498Y014678D02*
X022628Y014678D01*
X022628Y014777D02*
X022467Y014777D01*
X022426Y014875D02*
X022628Y014875D01*
X022628Y014974D02*
X022339Y014974D01*
X022197Y015072D02*
X022628Y015072D01*
X022628Y015171D02*
X022383Y015171D01*
X022482Y015269D02*
X022628Y015269D01*
X022628Y015368D02*
X022544Y015368D01*
X022585Y015466D02*
X022628Y015466D01*
X022628Y015565D02*
X022598Y015565D01*
X022598Y015663D02*
X022628Y015663D01*
X022628Y015762D02*
X022573Y015762D01*
X022533Y015860D02*
X022628Y015860D01*
X022628Y015959D02*
X022454Y015959D01*
X022333Y016057D02*
X022628Y016057D01*
X022628Y016156D02*
X022263Y016156D01*
X022367Y016254D02*
X022628Y016254D01*
X022628Y016353D02*
X022438Y016353D01*
X022479Y016451D02*
X022628Y016451D01*
X022628Y016550D02*
X022498Y016550D01*
X022498Y016648D02*
X022628Y016648D01*
X022628Y016747D02*
X022480Y016747D01*
X022439Y016845D02*
X022628Y016845D01*
X022628Y016944D02*
X022369Y016944D01*
X022269Y017042D02*
X022628Y017042D01*
X022628Y017141D02*
X022327Y017141D01*
X022452Y017239D02*
X022628Y017239D01*
X022628Y017338D02*
X022532Y017338D01*
X022572Y017436D02*
X022628Y017436D01*
X022628Y017535D02*
X022598Y017535D01*
X022598Y017633D02*
X022628Y017633D01*
X022628Y017732D02*
X022586Y017732D01*
X022545Y017830D02*
X022628Y017830D01*
X022628Y017929D02*
X022484Y017929D01*
X022386Y018027D02*
X022628Y018027D01*
X022628Y018126D02*
X018676Y018126D01*
X018668Y018145D02*
X018748Y017953D01*
X018748Y017747D01*
X018668Y017555D01*
X018522Y017409D01*
X018331Y017330D01*
X018124Y017330D01*
X017933Y017409D01*
X017787Y017555D01*
X017748Y017650D01*
X017748Y017647D01*
X017668Y017455D01*
X017522Y017309D01*
X017331Y017230D01*
X017124Y017230D01*
X016933Y017309D01*
X016787Y017455D01*
X016708Y017647D01*
X016708Y017650D01*
X016668Y017555D01*
X016522Y017409D01*
X016331Y017330D01*
X016124Y017330D01*
X015933Y017409D01*
X015787Y017555D01*
X015748Y017650D01*
X015748Y017647D01*
X015668Y017455D01*
X015522Y017309D01*
X015331Y017230D01*
X015124Y017230D01*
X014933Y017309D01*
X014787Y017455D01*
X014708Y017647D01*
X014708Y017650D01*
X014668Y017555D01*
X014522Y017409D01*
X014331Y017330D01*
X014124Y017330D01*
X013933Y017409D01*
X013787Y017555D01*
X013748Y017650D01*
X013748Y017647D01*
X013668Y017455D01*
X013522Y017309D01*
X013331Y017230D01*
X013124Y017230D01*
X012933Y017309D01*
X012787Y017455D01*
X012708Y017647D01*
X012708Y017650D01*
X012668Y017555D01*
X012538Y017425D01*
X012538Y014638D01*
X012490Y014524D01*
X011903Y013937D01*
X011828Y013906D01*
X011828Y013003D01*
X011869Y012961D01*
X011913Y012857D01*
X011913Y012743D01*
X011869Y012639D01*
X011789Y012558D01*
X011706Y012524D01*
X011731Y012500D01*
X012010Y012500D01*
X012828Y011683D01*
X012828Y011603D01*
X012869Y011561D01*
X012878Y011541D01*
X012886Y011561D01*
X012966Y011642D01*
X013071Y011685D01*
X013184Y011685D01*
X013289Y011642D01*
X013331Y011600D01*
X015845Y011600D01*
X016043Y011798D01*
X016043Y011857D01*
X016086Y011961D01*
X016166Y012042D01*
X016271Y012085D01*
X016384Y012085D01*
X016489Y012042D01*
X016528Y012003D01*
X016528Y014634D01*
X016362Y014800D01*
X016148Y014800D01*
X016001Y014861D01*
X015888Y014973D01*
X015828Y015120D01*
X015828Y015280D01*
X015888Y015427D01*
X016001Y015539D01*
X016148Y015600D01*
X016607Y015600D01*
X016754Y015539D01*
X017154Y015139D01*
X017154Y015139D01*
X017267Y015027D01*
X017328Y014880D01*
X017328Y010866D01*
X017467Y010727D01*
X017528Y010580D01*
X017528Y010420D01*
X017467Y010273D01*
X017354Y010161D01*
X017207Y010100D01*
X017048Y010100D01*
X016901Y010161D01*
X016817Y010245D01*
X016707Y010200D01*
X011648Y010200D01*
X011501Y010261D01*
X011086Y010676D01*
X010628Y010217D01*
X010510Y010100D01*
X009031Y010100D01*
X008989Y010058D01*
X008884Y010015D01*
X008771Y010015D01*
X008666Y010058D01*
X008586Y010139D01*
X008543Y010243D01*
X008543Y010357D01*
X008586Y010461D01*
X008666Y010542D01*
X008771Y010585D01*
X008884Y010585D01*
X008989Y010542D01*
X009031Y010500D01*
X010345Y010500D01*
X010728Y010883D01*
X010728Y011034D01*
X010701Y011061D01*
X010588Y011173D01*
X010528Y011320D01*
X010528Y016834D01*
X010062Y017300D01*
X009471Y017300D01*
X009416Y017245D01*
X009039Y017245D01*
X008772Y017511D01*
X008772Y017889D01*
X009039Y018155D01*
X009416Y018155D01*
X009471Y018100D01*
X010307Y018100D01*
X010454Y018039D01*
X010567Y017927D01*
X011267Y017227D01*
X011328Y017080D01*
X011328Y012503D01*
X011366Y012542D01*
X011449Y012576D01*
X011386Y012639D01*
X011343Y012743D01*
X011343Y012857D01*
X011386Y012961D01*
X011428Y013003D01*
X011428Y014114D01*
X011418Y014138D01*
X011418Y014262D01*
X011465Y014376D01*
X011918Y014828D01*
X011918Y017425D01*
X011787Y017555D01*
X011708Y017747D01*
X011708Y017953D01*
X011787Y018145D01*
X011933Y018291D01*
X012124Y018370D01*
X012331Y018370D01*
X012522Y018291D01*
X012668Y018145D01*
X012748Y017953D01*
X012748Y017950D01*
X012787Y018045D01*
X012933Y018191D01*
X013124Y018270D01*
X013331Y018270D01*
X013522Y018191D01*
X013668Y018045D01*
X013708Y017950D01*
X013708Y017953D01*
X013787Y018145D01*
X013933Y018291D01*
X014124Y018370D01*
X014331Y018370D01*
X014522Y018291D01*
X014668Y018145D01*
X014748Y017953D01*
X014748Y017950D01*
X014787Y018045D01*
X014933Y018191D01*
X015124Y018270D01*
X015331Y018270D01*
X015522Y018191D01*
X015668Y018045D01*
X015708Y017950D01*
X015708Y017953D01*
X015787Y018145D01*
X015933Y018291D01*
X016124Y018370D01*
X016331Y018370D01*
X016522Y018291D01*
X016668Y018145D01*
X016748Y017953D01*
X016748Y017950D01*
X016787Y018045D01*
X016933Y018191D01*
X017124Y018270D01*
X017331Y018270D01*
X017522Y018191D01*
X017668Y018045D01*
X017708Y017950D01*
X017708Y017953D01*
X017787Y018145D01*
X017933Y018291D01*
X018124Y018370D01*
X018331Y018370D01*
X018522Y018291D01*
X018668Y018145D01*
X018589Y018224D02*
X022628Y018224D01*
X022628Y018323D02*
X018446Y018323D01*
X018717Y018027D02*
X021769Y018027D01*
X021671Y017929D02*
X018748Y017929D01*
X018748Y017830D02*
X021610Y017830D01*
X021328Y017600D02*
X022078Y017600D01*
X021703Y017239D02*
X021249Y017239D01*
X021151Y017141D02*
X021828Y017141D01*
X021686Y017042D02*
X021052Y017042D01*
X020954Y016944D02*
X021586Y016944D01*
X021516Y016845D02*
X020855Y016845D01*
X020728Y017000D02*
X021328Y017600D01*
X021176Y017732D02*
X018741Y017732D01*
X018701Y017633D02*
X021078Y017633D01*
X020979Y017535D02*
X018647Y017535D01*
X018549Y017436D02*
X020881Y017436D01*
X020782Y017338D02*
X018349Y017338D01*
X018106Y017338D02*
X017550Y017338D01*
X017649Y017436D02*
X017906Y017436D01*
X017808Y017535D02*
X017701Y017535D01*
X017742Y017633D02*
X017755Y017633D01*
X017738Y018027D02*
X017676Y018027D01*
X017587Y018126D02*
X017779Y018126D01*
X017866Y018224D02*
X017442Y018224D01*
X017013Y018224D02*
X016589Y018224D01*
X016676Y018126D02*
X016868Y018126D01*
X016779Y018027D02*
X016717Y018027D01*
X016446Y018323D02*
X018010Y018323D01*
X016713Y017633D02*
X016701Y017633D01*
X016647Y017535D02*
X016754Y017535D01*
X016806Y017436D02*
X016549Y017436D01*
X016349Y017338D02*
X016905Y017338D01*
X017102Y017239D02*
X015353Y017239D01*
X015550Y017338D02*
X016106Y017338D01*
X015906Y017436D02*
X015649Y017436D01*
X015701Y017535D02*
X015808Y017535D01*
X015755Y017633D02*
X015742Y017633D01*
X015738Y018027D02*
X015676Y018027D01*
X015587Y018126D02*
X015779Y018126D01*
X015866Y018224D02*
X015442Y018224D01*
X015013Y018224D02*
X014589Y018224D01*
X014676Y018126D02*
X014868Y018126D01*
X014779Y018027D02*
X014717Y018027D01*
X014446Y018323D02*
X016010Y018323D01*
X014713Y017633D02*
X014701Y017633D01*
X014647Y017535D02*
X014754Y017535D01*
X014806Y017436D02*
X014549Y017436D01*
X014349Y017338D02*
X014905Y017338D01*
X015102Y017239D02*
X013353Y017239D01*
X013285Y017141D02*
X012538Y017141D01*
X012538Y017239D02*
X013102Y017239D01*
X013187Y017042D02*
X012538Y017042D01*
X012538Y016944D02*
X013088Y016944D01*
X012990Y016845D02*
X012538Y016845D01*
X012538Y016747D02*
X012891Y016747D01*
X012828Y016648D02*
X012538Y016648D01*
X012538Y016550D02*
X012828Y016550D01*
X012828Y016451D02*
X012538Y016451D01*
X012538Y016353D02*
X012828Y016353D01*
X012828Y016254D02*
X012538Y016254D01*
X012538Y016156D02*
X012828Y016156D01*
X012828Y016057D02*
X012538Y016057D01*
X012538Y015959D02*
X012828Y015959D01*
X012828Y015860D02*
X012538Y015860D01*
X012538Y015762D02*
X012828Y015762D01*
X012828Y015663D02*
X012538Y015663D01*
X012538Y015565D02*
X012828Y015565D01*
X012828Y015466D02*
X012538Y015466D01*
X012538Y015368D02*
X012828Y015368D01*
X012828Y015269D02*
X012538Y015269D01*
X012538Y015171D02*
X012828Y015171D01*
X012828Y015072D02*
X012538Y015072D01*
X012538Y014974D02*
X012828Y014974D01*
X012828Y014875D02*
X012538Y014875D01*
X012538Y014777D02*
X012828Y014777D01*
X012828Y014678D02*
X012538Y014678D01*
X012513Y014580D02*
X012804Y014580D01*
X012753Y014481D02*
X012447Y014481D01*
X012348Y014383D02*
X012743Y014383D01*
X012767Y014284D02*
X012250Y014284D01*
X012151Y014186D02*
X012839Y014186D01*
X013028Y014400D02*
X013028Y016600D01*
X013428Y017000D01*
X020728Y017000D01*
X020684Y017239D02*
X017353Y017239D01*
X016693Y015565D02*
X021558Y015565D01*
X021558Y015663D02*
X013228Y015663D01*
X013228Y015565D02*
X016062Y015565D01*
X015928Y015466D02*
X013228Y015466D01*
X013228Y015368D02*
X015864Y015368D01*
X015828Y015269D02*
X013228Y015269D01*
X013228Y015171D02*
X015828Y015171D01*
X015848Y015072D02*
X013228Y015072D01*
X013228Y014974D02*
X015888Y014974D01*
X015987Y014875D02*
X013228Y014875D01*
X013228Y014777D02*
X016385Y014777D01*
X016484Y014678D02*
X013228Y014678D01*
X013251Y014580D02*
X016528Y014580D01*
X016528Y014481D02*
X013302Y014481D01*
X013313Y014383D02*
X016528Y014383D01*
X016528Y014284D02*
X013288Y014284D01*
X013216Y014186D02*
X016528Y014186D01*
X016528Y014087D02*
X012053Y014087D01*
X011954Y013989D02*
X016528Y013989D01*
X016528Y013890D02*
X011828Y013890D01*
X011828Y013792D02*
X016528Y013792D01*
X016528Y013693D02*
X011828Y013693D01*
X011828Y013595D02*
X016528Y013595D01*
X016528Y013496D02*
X011828Y013496D01*
X011828Y013398D02*
X016528Y013398D01*
X016528Y013299D02*
X011828Y013299D01*
X011828Y013201D02*
X016528Y013201D01*
X016528Y013102D02*
X011828Y013102D01*
X011828Y013004D02*
X016528Y013004D01*
X016528Y012905D02*
X011893Y012905D01*
X011913Y012807D02*
X016528Y012807D01*
X016528Y012708D02*
X011898Y012708D01*
X011840Y012610D02*
X016528Y012610D01*
X016528Y012511D02*
X011720Y012511D01*
X011528Y012300D02*
X011928Y012300D01*
X012628Y011600D01*
X012628Y011400D01*
X012828Y011625D02*
X012949Y011625D01*
X012787Y011723D02*
X015968Y011723D01*
X016043Y011822D02*
X012689Y011822D01*
X012590Y011920D02*
X016069Y011920D01*
X016143Y012019D02*
X012492Y012019D01*
X012393Y012117D02*
X016528Y012117D01*
X016528Y012019D02*
X016512Y012019D01*
X016528Y012216D02*
X012295Y012216D01*
X012196Y012314D02*
X016528Y012314D01*
X016528Y012413D02*
X012098Y012413D01*
X011628Y012800D02*
X011628Y014100D01*
X011728Y014200D01*
X011418Y014186D02*
X011328Y014186D01*
X011328Y014284D02*
X011427Y014284D01*
X011472Y014383D02*
X011328Y014383D01*
X011328Y014481D02*
X011570Y014481D01*
X011669Y014580D02*
X011328Y014580D01*
X011328Y014678D02*
X011767Y014678D01*
X011866Y014777D02*
X011328Y014777D01*
X011328Y014875D02*
X011918Y014875D01*
X011918Y014974D02*
X011328Y014974D01*
X011328Y015072D02*
X011918Y015072D01*
X011918Y015171D02*
X011328Y015171D01*
X011328Y015269D02*
X011918Y015269D01*
X011918Y015368D02*
X011328Y015368D01*
X011328Y015466D02*
X011918Y015466D01*
X011918Y015565D02*
X011328Y015565D01*
X011328Y015663D02*
X011918Y015663D01*
X011918Y015762D02*
X011328Y015762D01*
X011328Y015860D02*
X011918Y015860D01*
X011918Y015959D02*
X011328Y015959D01*
X011328Y016057D02*
X011918Y016057D01*
X011918Y016156D02*
X011328Y016156D01*
X011328Y016254D02*
X011918Y016254D01*
X011918Y016353D02*
X011328Y016353D01*
X011328Y016451D02*
X011918Y016451D01*
X011918Y016550D02*
X011328Y016550D01*
X011328Y016648D02*
X011918Y016648D01*
X011918Y016747D02*
X011328Y016747D01*
X011328Y016845D02*
X011918Y016845D01*
X011918Y016944D02*
X011328Y016944D01*
X011328Y017042D02*
X011918Y017042D01*
X011918Y017141D02*
X011302Y017141D01*
X011254Y017239D02*
X011918Y017239D01*
X011918Y017338D02*
X011156Y017338D01*
X011057Y017436D02*
X011906Y017436D01*
X011808Y017535D02*
X010959Y017535D01*
X010860Y017633D02*
X011755Y017633D01*
X011714Y017732D02*
X010762Y017732D01*
X010663Y017830D02*
X011708Y017830D01*
X011708Y017929D02*
X010565Y017929D01*
X010466Y018027D02*
X011738Y018027D01*
X011779Y018126D02*
X009446Y018126D01*
X009009Y018126D02*
X008446Y018126D01*
X008416Y018155D02*
X008039Y018155D01*
X007772Y017889D01*
X007772Y017511D01*
X008039Y017245D01*
X008416Y017245D01*
X008683Y017511D01*
X008683Y017889D01*
X008416Y018155D01*
X008544Y018027D02*
X008911Y018027D01*
X008812Y017929D02*
X008643Y017929D01*
X008683Y017830D02*
X008772Y017830D01*
X008772Y017732D02*
X008683Y017732D01*
X008683Y017633D02*
X008772Y017633D01*
X008772Y017535D02*
X008683Y017535D01*
X008607Y017436D02*
X008848Y017436D01*
X008946Y017338D02*
X008509Y017338D01*
X008416Y017155D02*
X008039Y017155D01*
X007772Y016889D01*
X007772Y016511D01*
X008039Y016245D01*
X008416Y016245D01*
X008683Y016511D01*
X008683Y016889D01*
X008416Y017155D01*
X008431Y017141D02*
X009024Y017141D01*
X009039Y017155D02*
X008772Y016889D01*
X008772Y016511D01*
X009039Y016245D01*
X009416Y016245D01*
X009658Y016487D01*
X009728Y016417D01*
X009728Y012883D01*
X009630Y012785D01*
X009571Y012785D01*
X009466Y012742D01*
X009386Y012661D01*
X009343Y012557D01*
X009343Y012443D01*
X009386Y012339D01*
X009466Y012258D01*
X009571Y012215D01*
X009684Y012215D01*
X009789Y012258D01*
X009869Y012339D01*
X009913Y012443D01*
X009913Y012502D01*
X010128Y012717D01*
X010128Y016583D01*
X010010Y016700D01*
X009810Y016900D01*
X009671Y016900D01*
X009416Y017155D01*
X009039Y017155D01*
X008926Y017042D02*
X008529Y017042D01*
X008628Y016944D02*
X008827Y016944D01*
X008772Y016845D02*
X008683Y016845D01*
X008683Y016747D02*
X008772Y016747D01*
X008772Y016648D02*
X008683Y016648D01*
X008683Y016550D02*
X008772Y016550D01*
X008833Y016451D02*
X008622Y016451D01*
X008524Y016353D02*
X008931Y016353D01*
X009030Y016254D02*
X008425Y016254D01*
X008416Y016155D02*
X008039Y016155D01*
X007772Y015889D01*
X007772Y015511D01*
X008014Y015270D01*
X007745Y015000D01*
X007628Y014883D01*
X007628Y011803D01*
X007628Y011803D01*
X007628Y016897D01*
X007669Y016939D01*
X007713Y017043D01*
X007713Y017157D01*
X007669Y017261D01*
X007589Y017342D01*
X007484Y017385D01*
X007371Y017385D01*
X007266Y017342D01*
X007186Y017261D01*
X007143Y017157D01*
X007143Y017043D01*
X007186Y016939D01*
X007228Y016897D01*
X007228Y011803D01*
X007186Y011761D01*
X007143Y011657D01*
X007143Y011543D01*
X007186Y011439D01*
X007266Y011358D01*
X007371Y011315D01*
X007484Y011315D01*
X007589Y011358D01*
X007628Y011397D01*
X007628Y010517D01*
X008428Y009717D01*
X008545Y009600D01*
X011624Y009600D01*
X011586Y009561D01*
X011543Y009457D01*
X011543Y009458D02*
X006728Y009458D01*
X006728Y009556D02*
X011584Y009556D01*
X011543Y009457D02*
X011543Y009343D01*
X011586Y009239D01*
X011666Y009158D01*
X011771Y009115D01*
X011884Y009115D01*
X011989Y009158D01*
X012069Y009239D01*
X012113Y009343D01*
X012113Y009402D01*
X012310Y009600D01*
X012410Y009600D01*
X012528Y009717D01*
X012610Y009800D01*
X012924Y009800D01*
X012886Y009761D01*
X012843Y009657D01*
X012843Y009543D01*
X012886Y009439D01*
X012928Y009397D01*
X012928Y009217D01*
X013045Y009100D01*
X014145Y008000D01*
X016508Y008000D01*
X016508Y007947D01*
X016587Y007755D01*
X016733Y007609D01*
X016924Y007530D01*
X017131Y007530D01*
X017322Y007609D01*
X017468Y007755D01*
X017508Y007850D01*
X017508Y007847D01*
X017587Y007655D01*
X017733Y007509D01*
X017924Y007430D01*
X018131Y007430D01*
X018322Y007509D01*
X018468Y007655D01*
X018548Y007847D01*
X018548Y007850D01*
X018587Y007755D01*
X018733Y007609D01*
X018924Y007530D01*
X019131Y007530D01*
X019322Y007609D01*
X019468Y007755D01*
X019508Y007850D01*
X019508Y007847D01*
X019587Y007655D01*
X019733Y007509D01*
X019924Y007430D01*
X020131Y007430D01*
X020322Y007509D01*
X020468Y007655D01*
X020548Y007847D01*
X020548Y007850D01*
X020587Y007755D01*
X020733Y007609D01*
X020924Y007530D01*
X021131Y007530D01*
X021322Y007609D01*
X021468Y007755D01*
X021548Y007947D01*
X021548Y008153D01*
X021468Y008345D01*
X021322Y008491D01*
X021131Y008570D01*
X020924Y008570D01*
X020733Y008491D01*
X020587Y008345D01*
X020508Y008153D01*
X020508Y008150D01*
X020468Y008245D01*
X020322Y008391D01*
X020131Y008470D01*
X019924Y008470D01*
X019733Y008391D01*
X019587Y008245D01*
X019548Y008150D01*
X019548Y008153D01*
X019468Y008345D01*
X019322Y008491D01*
X019131Y008570D01*
X018924Y008570D01*
X018733Y008491D01*
X018587Y008345D01*
X018508Y008153D01*
X018508Y008150D01*
X018468Y008245D01*
X018322Y008391D01*
X018131Y008470D01*
X017924Y008470D01*
X017733Y008391D01*
X017587Y008245D01*
X017548Y008150D01*
X017548Y008153D01*
X017468Y008345D01*
X017322Y008491D01*
X017131Y008570D01*
X016924Y008570D01*
X016733Y008491D01*
X016642Y008400D01*
X014310Y008400D01*
X013328Y009383D01*
X013328Y009397D01*
X013369Y009439D01*
X013413Y009543D01*
X013413Y009657D01*
X013369Y009761D01*
X013331Y009800D01*
X013443Y009800D01*
X013443Y009743D01*
X013486Y009639D01*
X013566Y009558D01*
X013671Y009515D01*
X013784Y009515D01*
X013889Y009558D01*
X013969Y009639D01*
X014013Y009743D01*
X014013Y009857D01*
X013969Y009961D01*
X013889Y010042D01*
X013784Y010085D01*
X013725Y010085D01*
X013610Y010200D01*
X012445Y010200D01*
X012328Y010083D01*
X012245Y010000D01*
X008710Y010000D01*
X008028Y010683D01*
X008028Y014297D01*
X008066Y014258D01*
X008171Y014215D01*
X008230Y014215D01*
X008428Y014017D01*
X008428Y012032D01*
X008412Y011985D01*
X008428Y011953D01*
X008428Y011917D01*
X008456Y011889D01*
X008443Y011857D01*
X008443Y011743D01*
X008486Y011639D01*
X008566Y011558D01*
X008671Y011515D01*
X008784Y011515D01*
X008889Y011558D01*
X008969Y011639D01*
X009013Y011743D01*
X009013Y011857D01*
X008969Y011961D01*
X008889Y012042D01*
X008828Y012067D01*
X008828Y014183D01*
X008513Y014498D01*
X008513Y014557D01*
X008469Y014661D01*
X008389Y014742D01*
X008284Y014785D01*
X008171Y014785D01*
X008066Y014742D01*
X008028Y014703D01*
X008028Y014717D01*
X008428Y015117D01*
X008428Y015256D01*
X008683Y015511D01*
X008683Y015889D01*
X008416Y016155D01*
X008514Y016057D02*
X008941Y016057D01*
X009039Y016155D02*
X008772Y015889D01*
X008772Y015744D01*
X009184Y015744D01*
X009184Y016155D01*
X009039Y016155D01*
X009184Y016057D02*
X009271Y016057D01*
X009271Y016155D02*
X009271Y015744D01*
X009184Y015744D01*
X009184Y015656D01*
X009271Y015656D01*
X009271Y015245D01*
X009416Y015245D01*
X009683Y015511D01*
X009683Y015656D01*
X009271Y015656D01*
X009271Y015744D01*
X009683Y015744D01*
X009683Y015889D01*
X009416Y016155D01*
X009271Y016155D01*
X009425Y016254D02*
X009728Y016254D01*
X009728Y016156D02*
X007628Y016156D01*
X007628Y016254D02*
X008030Y016254D01*
X007931Y016353D02*
X007628Y016353D01*
X007628Y016451D02*
X007833Y016451D01*
X007772Y016550D02*
X007628Y016550D01*
X007628Y016648D02*
X007772Y016648D01*
X007772Y016747D02*
X007628Y016747D01*
X007628Y016845D02*
X007772Y016845D01*
X007827Y016944D02*
X007671Y016944D01*
X007712Y017042D02*
X007926Y017042D01*
X008024Y017141D02*
X007713Y017141D01*
X007678Y017239D02*
X010123Y017239D01*
X010221Y017141D02*
X009431Y017141D01*
X009529Y017042D02*
X010320Y017042D01*
X010418Y016944D02*
X009628Y016944D01*
X009865Y016845D02*
X010517Y016845D01*
X010528Y016747D02*
X009964Y016747D01*
X010062Y016648D02*
X010528Y016648D01*
X010528Y016550D02*
X010128Y016550D01*
X010128Y016451D02*
X010528Y016451D01*
X010528Y016353D02*
X010128Y016353D01*
X010128Y016254D02*
X010528Y016254D01*
X010528Y016156D02*
X010128Y016156D01*
X010128Y016057D02*
X010528Y016057D01*
X010528Y015959D02*
X010128Y015959D01*
X010128Y015860D02*
X010528Y015860D01*
X010528Y015762D02*
X010128Y015762D01*
X010128Y015663D02*
X010528Y015663D01*
X010528Y015565D02*
X010128Y015565D01*
X010128Y015466D02*
X010528Y015466D01*
X010528Y015368D02*
X010128Y015368D01*
X010128Y015269D02*
X010528Y015269D01*
X010528Y015171D02*
X010128Y015171D01*
X010128Y015072D02*
X010528Y015072D01*
X010528Y014974D02*
X010128Y014974D01*
X010128Y014875D02*
X010528Y014875D01*
X010528Y014777D02*
X010128Y014777D01*
X010128Y014678D02*
X010528Y014678D01*
X010528Y014580D02*
X010128Y014580D01*
X010128Y014481D02*
X010528Y014481D01*
X010528Y014383D02*
X010128Y014383D01*
X010128Y014284D02*
X010528Y014284D01*
X010528Y014186D02*
X010128Y014186D01*
X010128Y014087D02*
X010528Y014087D01*
X010528Y013989D02*
X010128Y013989D01*
X010128Y013890D02*
X010528Y013890D01*
X010528Y013792D02*
X010128Y013792D01*
X010128Y013693D02*
X010528Y013693D01*
X010528Y013595D02*
X010128Y013595D01*
X010128Y013496D02*
X010528Y013496D01*
X010528Y013398D02*
X010128Y013398D01*
X010128Y013299D02*
X010528Y013299D01*
X010528Y013201D02*
X010128Y013201D01*
X010128Y013102D02*
X010528Y013102D01*
X010528Y013004D02*
X010128Y013004D01*
X010128Y012905D02*
X010528Y012905D01*
X010528Y012807D02*
X010128Y012807D01*
X010118Y012708D02*
X010528Y012708D01*
X010528Y012610D02*
X010020Y012610D01*
X009921Y012511D02*
X010528Y012511D01*
X010528Y012413D02*
X009900Y012413D01*
X009845Y012314D02*
X010528Y012314D01*
X010528Y012216D02*
X009686Y012216D01*
X009570Y012216D02*
X008828Y012216D01*
X008828Y012314D02*
X009410Y012314D01*
X009355Y012413D02*
X008828Y012413D01*
X008828Y012511D02*
X009343Y012511D01*
X009364Y012610D02*
X008828Y012610D01*
X008828Y012708D02*
X009433Y012708D01*
X009651Y012807D02*
X008828Y012807D01*
X008828Y012905D02*
X009728Y012905D01*
X009728Y013004D02*
X008828Y013004D01*
X008828Y013102D02*
X009728Y013102D01*
X009728Y013201D02*
X008828Y013201D01*
X008828Y013299D02*
X009728Y013299D01*
X009728Y013398D02*
X008828Y013398D01*
X008828Y013496D02*
X009728Y013496D01*
X009728Y013595D02*
X008828Y013595D01*
X008828Y013693D02*
X009728Y013693D01*
X009728Y013792D02*
X008828Y013792D01*
X008828Y013890D02*
X009728Y013890D01*
X009728Y013989D02*
X008828Y013989D01*
X008828Y014087D02*
X009728Y014087D01*
X009728Y014186D02*
X008825Y014186D01*
X008726Y014284D02*
X009728Y014284D01*
X009728Y014383D02*
X008628Y014383D01*
X008529Y014481D02*
X009728Y014481D01*
X009728Y014580D02*
X008503Y014580D01*
X008453Y014678D02*
X009728Y014678D01*
X009728Y014777D02*
X008305Y014777D01*
X008150Y014777D02*
X008087Y014777D01*
X008185Y014875D02*
X009728Y014875D01*
X009728Y014974D02*
X008284Y014974D01*
X008382Y015072D02*
X009728Y015072D01*
X009728Y015171D02*
X008428Y015171D01*
X008440Y015269D02*
X009015Y015269D01*
X009039Y015245D02*
X008772Y015511D01*
X008772Y015656D01*
X009184Y015656D01*
X009184Y015245D01*
X009039Y015245D01*
X009184Y015269D02*
X009271Y015269D01*
X009271Y015368D02*
X009184Y015368D01*
X009184Y015466D02*
X009271Y015466D01*
X009271Y015565D02*
X009184Y015565D01*
X009184Y015663D02*
X008683Y015663D01*
X008683Y015565D02*
X008772Y015565D01*
X008818Y015466D02*
X008637Y015466D01*
X008539Y015368D02*
X008916Y015368D01*
X008772Y015762D02*
X008683Y015762D01*
X008683Y015860D02*
X008772Y015860D01*
X008842Y015959D02*
X008613Y015959D01*
X009184Y015959D02*
X009271Y015959D01*
X009271Y015860D02*
X009184Y015860D01*
X009184Y015762D02*
X009271Y015762D01*
X009271Y015663D02*
X009728Y015663D01*
X009728Y015565D02*
X009683Y015565D01*
X009728Y015466D02*
X009637Y015466D01*
X009728Y015368D02*
X009539Y015368D01*
X009440Y015269D02*
X009728Y015269D01*
X009728Y015762D02*
X009683Y015762D01*
X009683Y015860D02*
X009728Y015860D01*
X009728Y015959D02*
X009613Y015959D01*
X009514Y016057D02*
X009728Y016057D01*
X009728Y016353D02*
X009524Y016353D01*
X009622Y016451D02*
X009694Y016451D01*
X009928Y016500D02*
X009928Y012800D01*
X009628Y012500D01*
X008828Y012117D02*
X010528Y012117D01*
X010528Y012019D02*
X008912Y012019D01*
X008986Y011920D02*
X010528Y011920D01*
X010528Y011822D02*
X009013Y011822D01*
X009004Y011723D02*
X010528Y011723D01*
X010528Y011625D02*
X008955Y011625D01*
X008811Y011526D02*
X010528Y011526D01*
X010528Y011428D02*
X008028Y011428D01*
X008028Y011526D02*
X008644Y011526D01*
X008500Y011625D02*
X008028Y011625D01*
X008028Y011723D02*
X008451Y011723D01*
X008443Y011822D02*
X008028Y011822D01*
X008028Y011920D02*
X008428Y011920D01*
X008423Y012019D02*
X008028Y012019D01*
X008028Y012117D02*
X008428Y012117D01*
X008428Y012216D02*
X008028Y012216D01*
X008028Y012314D02*
X008428Y012314D01*
X008428Y012413D02*
X008028Y012413D01*
X008028Y012511D02*
X008428Y012511D01*
X008428Y012610D02*
X008028Y012610D01*
X008028Y012708D02*
X008428Y012708D01*
X008428Y012807D02*
X008028Y012807D01*
X008028Y012905D02*
X008428Y012905D01*
X008428Y013004D02*
X008028Y013004D01*
X008028Y013102D02*
X008428Y013102D01*
X008428Y013201D02*
X008028Y013201D01*
X008028Y013299D02*
X008428Y013299D01*
X008428Y013398D02*
X008028Y013398D01*
X008028Y013496D02*
X008428Y013496D01*
X008428Y013595D02*
X008028Y013595D01*
X008028Y013693D02*
X008428Y013693D01*
X008428Y013792D02*
X008028Y013792D01*
X008028Y013890D02*
X008428Y013890D01*
X008428Y013989D02*
X008028Y013989D01*
X008028Y014087D02*
X008358Y014087D01*
X008259Y014186D02*
X008028Y014186D01*
X008028Y014284D02*
X008040Y014284D01*
X008228Y014500D02*
X008628Y014100D01*
X008628Y012000D01*
X008728Y011800D01*
X008028Y011329D02*
X010528Y011329D01*
X010565Y011231D02*
X008028Y011231D01*
X008028Y011132D02*
X010630Y011132D01*
X010728Y011034D02*
X008028Y011034D01*
X008028Y010935D02*
X010728Y010935D01*
X010681Y010837D02*
X008028Y010837D01*
X008028Y010738D02*
X010583Y010738D01*
X010484Y010640D02*
X008071Y010640D01*
X008169Y010541D02*
X008666Y010541D01*
X008578Y010443D02*
X008268Y010443D01*
X008366Y010344D02*
X008543Y010344D01*
X008543Y010246D02*
X008465Y010246D01*
X008563Y010147D02*
X008582Y010147D01*
X008662Y010049D02*
X008690Y010049D01*
X008628Y009800D02*
X012228Y009800D01*
X011828Y009400D01*
X012078Y009261D02*
X012928Y009261D01*
X012928Y009359D02*
X012113Y009359D01*
X012168Y009458D02*
X012878Y009458D01*
X012843Y009556D02*
X012266Y009556D01*
X012465Y009655D02*
X012843Y009655D01*
X012882Y009753D02*
X012563Y009753D01*
X012328Y009800D02*
X012228Y009800D01*
X012328Y009800D02*
X012528Y010000D01*
X013528Y010000D01*
X013728Y009800D01*
X013976Y009655D02*
X021558Y009655D01*
X021558Y009556D02*
X013883Y009556D01*
X014013Y009753D02*
X021578Y009753D01*
X021619Y009852D02*
X014013Y009852D01*
X013974Y009950D02*
X021692Y009950D01*
X021802Y010049D02*
X013872Y010049D01*
X013663Y010147D02*
X016934Y010147D01*
X017321Y010147D02*
X021712Y010147D01*
X021597Y010246D02*
X017439Y010246D01*
X017496Y010344D02*
X021521Y010344D01*
X021480Y010443D02*
X017528Y010443D01*
X017528Y010541D02*
X021458Y010541D01*
X021458Y010640D02*
X017503Y010640D01*
X017455Y010738D02*
X021472Y010738D01*
X021513Y010837D02*
X017357Y010837D01*
X017328Y010935D02*
X021577Y010935D01*
X021676Y011034D02*
X017328Y011034D01*
X017328Y011132D02*
X021849Y011132D01*
X021712Y011231D02*
X017328Y011231D01*
X017328Y011329D02*
X021627Y011329D01*
X021586Y011428D02*
X017328Y011428D01*
X017328Y011526D02*
X021558Y011526D01*
X021558Y011625D02*
X017328Y011625D01*
X017328Y011723D02*
X021566Y011723D01*
X021606Y011822D02*
X017328Y011822D01*
X017328Y011920D02*
X021662Y011920D01*
X021761Y012019D02*
X017328Y012019D01*
X017328Y012117D02*
X021785Y012117D01*
X021627Y012216D02*
X017328Y012216D01*
X017328Y012314D02*
X021533Y012314D01*
X021492Y012413D02*
X017328Y012413D01*
X017328Y012511D02*
X021458Y012511D01*
X021458Y012610D02*
X017328Y012610D01*
X017328Y012708D02*
X021459Y012708D01*
X021500Y012807D02*
X017328Y012807D01*
X017328Y012905D02*
X021547Y012905D01*
X021646Y013004D02*
X017328Y013004D01*
X017328Y013102D02*
X021831Y013102D01*
X021742Y013201D02*
X017328Y013201D01*
X017328Y013299D02*
X021643Y013299D01*
X021599Y013398D02*
X017328Y013398D01*
X017328Y013496D02*
X021558Y013496D01*
X021558Y013595D02*
X017328Y013595D01*
X017328Y013693D02*
X021558Y013693D01*
X021594Y013792D02*
X017328Y013792D01*
X017328Y013890D02*
X021635Y013890D01*
X021731Y013989D02*
X017328Y013989D01*
X017328Y014087D02*
X021857Y014087D01*
X021657Y014186D02*
X017328Y014186D01*
X017328Y014284D02*
X021558Y014284D01*
X021505Y014383D02*
X017328Y014383D01*
X017328Y014481D02*
X021464Y014481D01*
X021458Y014580D02*
X017328Y014580D01*
X017328Y014678D02*
X021458Y014678D01*
X021488Y014777D02*
X017328Y014777D01*
X017328Y014875D02*
X021529Y014875D01*
X021616Y014974D02*
X017289Y014974D01*
X017221Y015072D02*
X021758Y015072D01*
X021772Y015171D02*
X017123Y015171D01*
X017024Y015269D02*
X021673Y015269D01*
X021611Y015368D02*
X016926Y015368D01*
X016827Y015466D02*
X021570Y015466D01*
X021582Y015762D02*
X013228Y015762D01*
X013228Y015860D02*
X021622Y015860D01*
X021701Y015959D02*
X013228Y015959D01*
X013228Y016057D02*
X021822Y016057D01*
X021692Y016156D02*
X013228Y016156D01*
X013228Y016254D02*
X021588Y016254D01*
X021517Y016353D02*
X013228Y016353D01*
X013228Y016451D02*
X021476Y016451D01*
X021458Y016550D02*
X013260Y016550D01*
X013358Y016648D02*
X021458Y016648D01*
X021475Y016747D02*
X013457Y016747D01*
X013550Y017338D02*
X014106Y017338D01*
X013906Y017436D02*
X013649Y017436D01*
X013701Y017535D02*
X013808Y017535D01*
X013755Y017633D02*
X013742Y017633D01*
X013738Y018027D02*
X013676Y018027D01*
X013587Y018126D02*
X013779Y018126D01*
X013866Y018224D02*
X013442Y018224D01*
X013013Y018224D02*
X012589Y018224D01*
X012676Y018126D02*
X012868Y018126D01*
X012779Y018027D02*
X012717Y018027D01*
X012446Y018323D02*
X014010Y018323D01*
X012713Y017633D02*
X012701Y017633D01*
X012647Y017535D02*
X012754Y017535D01*
X012806Y017436D02*
X012549Y017436D01*
X012538Y017338D02*
X012905Y017338D01*
X012010Y018323D02*
X006728Y018323D01*
X006728Y018421D02*
X022628Y018421D01*
X022628Y018500D02*
X006728Y018500D01*
X006728Y007400D01*
X022628Y007400D01*
X022628Y018500D01*
X023228Y018421D02*
X030428Y018421D01*
X030428Y018323D02*
X023228Y018323D01*
X023228Y018224D02*
X030428Y018224D01*
X030428Y018126D02*
X023228Y018126D01*
X023228Y018027D02*
X030428Y018027D01*
X030428Y017929D02*
X023228Y017929D01*
X023228Y017830D02*
X030428Y017830D01*
X030428Y017732D02*
X023228Y017732D01*
X023228Y017633D02*
X030428Y017633D01*
X030428Y017535D02*
X023228Y017535D01*
X023228Y017436D02*
X030428Y017436D01*
X030428Y017338D02*
X023228Y017338D01*
X023228Y017239D02*
X030428Y017239D01*
X030428Y017141D02*
X023228Y017141D01*
X023228Y017042D02*
X030428Y017042D01*
X030428Y016944D02*
X023228Y016944D01*
X023228Y016845D02*
X030428Y016845D01*
X030428Y016747D02*
X023228Y016747D01*
X023228Y016648D02*
X030428Y016648D01*
X030428Y016550D02*
X023228Y016550D01*
X023228Y016451D02*
X030428Y016451D01*
X030428Y016353D02*
X028738Y016353D01*
X028684Y016375D02*
X028561Y016375D01*
X028447Y016328D01*
X028360Y016241D01*
X028353Y016224D01*
X027869Y015740D01*
X027321Y015740D01*
X027207Y015693D01*
X026814Y015300D01*
X026056Y015300D01*
X025942Y015253D01*
X025855Y015166D01*
X025452Y014763D01*
X025365Y014676D01*
X025318Y014562D01*
X025318Y012638D01*
X025365Y012524D01*
X025552Y012337D01*
X025666Y012290D01*
X025789Y012290D01*
X025903Y012337D01*
X025990Y012424D01*
X026038Y012538D01*
X026038Y012662D01*
X025990Y012776D01*
X025938Y012828D01*
X025938Y014372D01*
X026246Y014680D01*
X027004Y014680D01*
X027118Y014727D01*
X027205Y014814D01*
X027511Y015120D01*
X027893Y015120D01*
X027966Y015090D01*
X028089Y015090D01*
X028203Y015137D01*
X028290Y015224D01*
X028333Y015327D01*
X028634Y015628D01*
X028726Y015590D01*
X028849Y015590D01*
X029389Y015590D01*
X029503Y015637D01*
X029590Y015724D01*
X029638Y015838D01*
X029638Y015962D01*
X029590Y016076D01*
X029503Y016163D01*
X029389Y016210D01*
X028916Y016210D01*
X028890Y016236D01*
X028803Y016323D01*
X028798Y016328D01*
X028684Y016375D01*
X028507Y016353D02*
X023228Y016353D01*
X023228Y016254D02*
X028373Y016254D01*
X028285Y016156D02*
X023228Y016156D01*
X023228Y016057D02*
X028186Y016057D01*
X028088Y015959D02*
X023228Y015959D01*
X023228Y015860D02*
X027989Y015860D01*
X027891Y015762D02*
X023228Y015762D01*
X023228Y015663D02*
X027177Y015663D01*
X027078Y015565D02*
X023228Y015565D01*
X023228Y015466D02*
X026980Y015466D01*
X026881Y015368D02*
X023228Y015368D01*
X023228Y015269D02*
X025981Y015269D01*
X025860Y015171D02*
X023228Y015171D01*
X023228Y015072D02*
X025761Y015072D01*
X025663Y014974D02*
X023228Y014974D01*
X023228Y014875D02*
X025564Y014875D01*
X025466Y014777D02*
X023228Y014777D01*
X023228Y014678D02*
X025367Y014678D01*
X025325Y014580D02*
X023228Y014580D01*
X023228Y014481D02*
X025318Y014481D01*
X025318Y014383D02*
X023228Y014383D01*
X023228Y014284D02*
X025318Y014284D01*
X025318Y014186D02*
X023228Y014186D01*
X023228Y014087D02*
X025318Y014087D01*
X025318Y013989D02*
X023228Y013989D01*
X023228Y013890D02*
X025318Y013890D01*
X025318Y013792D02*
X023228Y013792D01*
X023228Y013693D02*
X025318Y013693D01*
X025318Y013595D02*
X023228Y013595D01*
X023228Y013496D02*
X025318Y013496D01*
X025318Y013398D02*
X023228Y013398D01*
X023228Y013299D02*
X025318Y013299D01*
X025318Y013201D02*
X023228Y013201D01*
X023228Y013102D02*
X025318Y013102D01*
X025318Y013004D02*
X023228Y013004D01*
X023228Y012905D02*
X025318Y012905D01*
X025318Y012807D02*
X023228Y012807D01*
X023228Y012708D02*
X025318Y012708D01*
X025329Y012610D02*
X023228Y012610D01*
X023228Y012511D02*
X025378Y012511D01*
X025477Y012413D02*
X023228Y012413D01*
X023228Y012314D02*
X025608Y012314D01*
X025847Y012314D02*
X032328Y012314D01*
X032328Y012216D02*
X023228Y012216D01*
X023228Y012117D02*
X032328Y012117D01*
X032328Y012019D02*
X023228Y012019D01*
X023228Y011920D02*
X032328Y011920D01*
X032328Y011822D02*
X023228Y011822D01*
X023228Y011723D02*
X032328Y011723D01*
X032328Y011625D02*
X023228Y011625D01*
X022628Y012117D02*
X022188Y012117D01*
X025978Y012413D02*
X032328Y012413D01*
X032328Y012511D02*
X026026Y012511D01*
X026038Y012610D02*
X032328Y012610D01*
X032328Y012708D02*
X026018Y012708D01*
X025959Y012807D02*
X032328Y012807D01*
X032328Y012905D02*
X025938Y012905D01*
X025938Y013004D02*
X032328Y013004D01*
X032328Y013102D02*
X025938Y013102D01*
X025938Y013201D02*
X032328Y013201D01*
X032328Y013299D02*
X025938Y013299D01*
X025938Y013398D02*
X032328Y013398D01*
X032328Y013496D02*
X025938Y013496D01*
X025938Y013595D02*
X032328Y013595D01*
X032328Y013693D02*
X025938Y013693D01*
X025938Y013792D02*
X032328Y013792D01*
X032328Y013890D02*
X025938Y013890D01*
X025938Y013989D02*
X032328Y013989D01*
X032328Y014087D02*
X025938Y014087D01*
X025938Y014186D02*
X032328Y014186D01*
X032328Y014284D02*
X025938Y014284D01*
X025948Y014383D02*
X032328Y014383D01*
X032328Y014481D02*
X026047Y014481D01*
X026145Y014580D02*
X032328Y014580D01*
X032328Y014678D02*
X026244Y014678D01*
X027167Y014777D02*
X032328Y014777D01*
X032328Y014875D02*
X027266Y014875D01*
X027364Y014974D02*
X032328Y014974D01*
X032328Y015072D02*
X027463Y015072D01*
X028018Y015410D02*
X028028Y015400D01*
X028018Y015410D02*
X028018Y015420D01*
X028309Y015269D02*
X032328Y015269D01*
X032328Y015171D02*
X028236Y015171D01*
X028373Y015368D02*
X030428Y015368D01*
X030428Y015466D02*
X028472Y015466D01*
X028570Y015565D02*
X030428Y015565D01*
X030428Y015663D02*
X029529Y015663D01*
X029606Y015762D02*
X030428Y015762D01*
X030428Y015860D02*
X029638Y015860D01*
X029638Y015959D02*
X030428Y015959D01*
X030428Y016057D02*
X029598Y016057D01*
X029510Y016156D02*
X030428Y016156D01*
X030428Y016254D02*
X028872Y016254D01*
X028628Y016070D02*
X028623Y016065D01*
X021623Y017338D02*
X021348Y017338D01*
X016328Y011800D02*
X015928Y011400D01*
X013128Y011400D01*
X013306Y011625D02*
X015869Y011625D01*
X013443Y009753D02*
X013373Y009753D01*
X013413Y009655D02*
X013479Y009655D01*
X013413Y009556D02*
X013572Y009556D01*
X013377Y009458D02*
X021574Y009458D01*
X021615Y009359D02*
X013351Y009359D01*
X013450Y009261D02*
X021682Y009261D01*
X021780Y009162D02*
X013548Y009162D01*
X013647Y009064D02*
X022628Y009064D01*
X022628Y009162D02*
X022375Y009162D01*
X022473Y009261D02*
X022628Y009261D01*
X022628Y009359D02*
X022541Y009359D01*
X022628Y008965D02*
X013745Y008965D01*
X013844Y008867D02*
X022628Y008867D01*
X022628Y008768D02*
X013942Y008768D01*
X014041Y008670D02*
X022628Y008670D01*
X022628Y008571D02*
X014139Y008571D01*
X014238Y008473D02*
X016715Y008473D01*
X016878Y008200D02*
X017028Y008050D01*
X016878Y008200D02*
X014228Y008200D01*
X013128Y009300D01*
X013128Y009600D01*
X012293Y010049D02*
X008965Y010049D01*
X008828Y010300D02*
X010428Y010300D01*
X010928Y010800D01*
X010928Y011400D01*
X011050Y010640D02*
X011122Y010640D01*
X011221Y010541D02*
X010951Y010541D01*
X010853Y010443D02*
X011319Y010443D01*
X011418Y010344D02*
X010754Y010344D01*
X010656Y010246D02*
X011538Y010246D01*
X012392Y010147D02*
X010557Y010147D01*
X010386Y010541D02*
X008990Y010541D01*
X008195Y009950D02*
X006728Y009950D01*
X006728Y009852D02*
X008293Y009852D01*
X008392Y009753D02*
X006728Y009753D01*
X006728Y009655D02*
X008490Y009655D01*
X008628Y009800D02*
X007828Y010600D01*
X007828Y014800D01*
X008228Y015200D01*
X008228Y015700D01*
X007772Y015663D02*
X007628Y015663D01*
X007628Y015565D02*
X007772Y015565D01*
X007818Y015466D02*
X007628Y015466D01*
X007628Y015368D02*
X007916Y015368D01*
X008014Y015269D02*
X007628Y015269D01*
X007628Y015171D02*
X007915Y015171D01*
X007817Y015072D02*
X007628Y015072D01*
X007628Y014974D02*
X007718Y014974D01*
X007628Y014875D02*
X007628Y014875D01*
X007628Y014777D02*
X007628Y014777D01*
X007628Y014678D02*
X007628Y014678D01*
X007628Y014580D02*
X007628Y014580D01*
X007628Y014481D02*
X007628Y014481D01*
X007628Y014383D02*
X007628Y014383D01*
X007628Y014284D02*
X007628Y014284D01*
X007628Y014186D02*
X007628Y014186D01*
X007628Y014087D02*
X007628Y014087D01*
X007628Y013989D02*
X007628Y013989D01*
X007628Y013890D02*
X007628Y013890D01*
X007628Y013792D02*
X007628Y013792D01*
X007628Y013693D02*
X007628Y013693D01*
X007628Y013595D02*
X007628Y013595D01*
X007628Y013496D02*
X007628Y013496D01*
X007628Y013398D02*
X007628Y013398D01*
X007628Y013299D02*
X007628Y013299D01*
X007628Y013201D02*
X007628Y013201D01*
X007628Y013102D02*
X007628Y013102D01*
X007628Y013004D02*
X007628Y013004D01*
X007628Y012905D02*
X007628Y012905D01*
X007628Y012807D02*
X007628Y012807D01*
X007628Y012708D02*
X007628Y012708D01*
X007628Y012610D02*
X007628Y012610D01*
X007628Y012511D02*
X007628Y012511D01*
X007628Y012413D02*
X007628Y012413D01*
X007628Y012314D02*
X007628Y012314D01*
X007628Y012216D02*
X007628Y012216D01*
X007628Y012117D02*
X007628Y012117D01*
X007628Y012019D02*
X007628Y012019D01*
X007628Y011920D02*
X007628Y011920D01*
X007628Y011822D02*
X007628Y011822D01*
X007428Y011600D02*
X007428Y017100D01*
X007177Y017239D02*
X006728Y017239D01*
X006728Y017141D02*
X007143Y017141D01*
X007143Y017042D02*
X006728Y017042D01*
X006728Y016944D02*
X007184Y016944D01*
X007228Y016845D02*
X006728Y016845D01*
X006728Y016747D02*
X007228Y016747D01*
X007228Y016648D02*
X006728Y016648D01*
X006728Y016550D02*
X007228Y016550D01*
X007228Y016451D02*
X006728Y016451D01*
X006728Y016353D02*
X007228Y016353D01*
X007228Y016254D02*
X006728Y016254D01*
X006728Y016156D02*
X007228Y016156D01*
X007228Y016057D02*
X006728Y016057D01*
X006728Y015959D02*
X007228Y015959D01*
X007228Y015860D02*
X006728Y015860D01*
X006728Y015762D02*
X007228Y015762D01*
X007228Y015663D02*
X006728Y015663D01*
X006728Y015565D02*
X007228Y015565D01*
X007228Y015466D02*
X006728Y015466D01*
X006728Y015368D02*
X007228Y015368D01*
X007228Y015269D02*
X006728Y015269D01*
X006728Y015171D02*
X007228Y015171D01*
X007228Y015072D02*
X006728Y015072D01*
X006728Y014974D02*
X007228Y014974D01*
X007228Y014875D02*
X006728Y014875D01*
X006728Y014777D02*
X007228Y014777D01*
X007228Y014678D02*
X006728Y014678D01*
X006728Y014580D02*
X007228Y014580D01*
X007228Y014481D02*
X006728Y014481D01*
X006728Y014383D02*
X007228Y014383D01*
X007228Y014284D02*
X006728Y014284D01*
X006728Y014186D02*
X007228Y014186D01*
X007228Y014087D02*
X006728Y014087D01*
X006728Y013989D02*
X007228Y013989D01*
X007228Y013890D02*
X006728Y013890D01*
X006728Y013792D02*
X007228Y013792D01*
X007228Y013693D02*
X006728Y013693D01*
X006728Y013595D02*
X007228Y013595D01*
X007228Y013496D02*
X006728Y013496D01*
X006728Y013398D02*
X007228Y013398D01*
X007228Y013299D02*
X006728Y013299D01*
X006728Y013201D02*
X007228Y013201D01*
X007228Y013102D02*
X006728Y013102D01*
X006728Y013004D02*
X007228Y013004D01*
X007228Y012905D02*
X006728Y012905D01*
X006728Y012807D02*
X007228Y012807D01*
X007228Y012708D02*
X006728Y012708D01*
X006728Y012610D02*
X007228Y012610D01*
X007228Y012511D02*
X006728Y012511D01*
X006728Y012413D02*
X007228Y012413D01*
X007228Y012314D02*
X006728Y012314D01*
X006728Y012216D02*
X007228Y012216D01*
X007228Y012117D02*
X006728Y012117D01*
X006728Y012019D02*
X007228Y012019D01*
X007228Y011920D02*
X006728Y011920D01*
X006728Y011822D02*
X007228Y011822D01*
X007170Y011723D02*
X006728Y011723D01*
X006728Y011625D02*
X007143Y011625D01*
X007150Y011526D02*
X006728Y011526D01*
X006728Y011428D02*
X007197Y011428D01*
X007337Y011329D02*
X006728Y011329D01*
X006728Y011231D02*
X007628Y011231D01*
X007628Y011329D02*
X007518Y011329D01*
X007628Y011132D02*
X006728Y011132D01*
X006728Y011034D02*
X007628Y011034D01*
X007628Y010935D02*
X006728Y010935D01*
X006728Y010837D02*
X007628Y010837D01*
X007628Y010738D02*
X006728Y010738D01*
X006728Y010640D02*
X007628Y010640D01*
X007628Y010541D02*
X006728Y010541D01*
X006728Y010443D02*
X007702Y010443D01*
X007801Y010344D02*
X006728Y010344D01*
X006728Y010246D02*
X007899Y010246D01*
X007998Y010147D02*
X006728Y010147D01*
X006728Y010049D02*
X008096Y010049D01*
X006728Y009359D02*
X011543Y009359D01*
X011577Y009261D02*
X006728Y009261D01*
X006728Y009162D02*
X011662Y009162D01*
X011993Y009162D02*
X012983Y009162D01*
X013081Y009064D02*
X006728Y009064D01*
X006728Y008965D02*
X013180Y008965D01*
X013278Y008867D02*
X006728Y008867D01*
X006728Y008768D02*
X013377Y008768D01*
X013475Y008670D02*
X006728Y008670D01*
X006728Y008571D02*
X013574Y008571D01*
X013672Y008473D02*
X006728Y008473D01*
X006728Y008374D02*
X013771Y008374D01*
X013869Y008276D02*
X006728Y008276D01*
X006728Y008177D02*
X013968Y008177D01*
X014066Y008079D02*
X006728Y008079D01*
X006728Y007980D02*
X016508Y007980D01*
X016534Y007882D02*
X006728Y007882D01*
X006728Y007783D02*
X016575Y007783D01*
X016658Y007685D02*
X006728Y007685D01*
X006728Y007586D02*
X016789Y007586D01*
X017266Y007586D02*
X017656Y007586D01*
X017575Y007685D02*
X017397Y007685D01*
X017480Y007783D02*
X017534Y007783D01*
X017785Y007488D02*
X006728Y007488D01*
X006338Y007488D02*
X005930Y007488D01*
X005882Y007439D02*
X006028Y007585D01*
X006108Y007777D01*
X006108Y007983D01*
X006028Y008175D01*
X005882Y008321D01*
X005788Y008360D01*
X005791Y008360D01*
X005982Y008439D01*
X006128Y008585D01*
X006208Y008777D01*
X006208Y008983D01*
X006128Y009175D01*
X005982Y009321D01*
X005791Y009400D01*
X005584Y009400D01*
X005393Y009321D01*
X005302Y009230D01*
X001568Y009230D01*
X001439Y009177D01*
X001139Y008877D01*
X001041Y008778D01*
X000988Y008650D01*
X000988Y003510D01*
X001041Y003382D01*
X001541Y002882D01*
X001639Y002783D01*
X001768Y002730D01*
X002649Y002730D01*
X002975Y002404D01*
X003062Y002317D01*
X003176Y002270D01*
X003909Y002270D01*
X003962Y002217D01*
X004076Y002170D01*
X004199Y002170D01*
X004313Y002217D01*
X004400Y002304D01*
X004448Y002418D01*
X004448Y002542D01*
X004400Y002656D01*
X004213Y002843D01*
X004099Y002890D01*
X003976Y002890D01*
X003366Y002890D01*
X003074Y003182D01*
X003034Y003278D01*
X002936Y003377D01*
X002807Y003430D01*
X001983Y003430D01*
X001688Y003725D01*
X001688Y008435D01*
X001783Y008530D01*
X005302Y008530D01*
X005393Y008439D01*
X005488Y008400D01*
X005484Y008400D01*
X005293Y008321D01*
X005147Y008175D01*
X005068Y007983D01*
X005068Y007777D01*
X005147Y007585D01*
X005293Y007439D01*
X005484Y007360D01*
X005484Y007360D01*
X005415Y007325D01*
X005349Y007277D01*
X005291Y007219D01*
X005243Y007153D01*
X005206Y007080D01*
X005180Y007002D01*
X005169Y006930D01*
X005638Y006930D01*
X005638Y006830D01*
X005169Y006830D01*
X005180Y006758D01*
X005206Y006680D01*
X005243Y006607D01*
X005291Y006541D01*
X005349Y006483D01*
X005415Y006435D01*
X005484Y006400D01*
X005293Y006321D01*
X005147Y006175D01*
X005068Y005983D01*
X005068Y005777D01*
X005147Y005585D01*
X005293Y005439D01*
X005484Y005360D01*
X005488Y005360D01*
X005393Y005321D01*
X005247Y005175D01*
X005168Y004983D01*
X005168Y004777D01*
X005247Y004585D01*
X005393Y004439D01*
X005584Y004360D01*
X005791Y004360D01*
X005982Y004439D01*
X006128Y004585D01*
X006208Y004777D01*
X006208Y004983D01*
X006128Y005175D01*
X005982Y005321D01*
X005791Y005400D01*
X005788Y005400D01*
X005882Y005439D01*
X006028Y005585D01*
X006108Y005777D01*
X006108Y005983D01*
X006028Y006175D01*
X005882Y006321D01*
X005771Y006367D01*
X005809Y006373D01*
X005887Y006398D01*
X005960Y006435D01*
X006026Y006483D01*
X006084Y006541D01*
X006132Y006607D01*
X006169Y006680D01*
X006195Y006758D01*
X006206Y006830D01*
X005738Y006830D01*
X005738Y006930D01*
X006206Y006930D01*
X006195Y007002D01*
X006169Y007080D01*
X006132Y007153D01*
X006084Y007219D01*
X006026Y007277D01*
X005960Y007325D01*
X005887Y007362D01*
X005809Y007387D01*
X005771Y007393D01*
X005882Y007439D01*
X005798Y007389D02*
X006338Y007389D01*
X006338Y007291D02*
X006007Y007291D01*
X006104Y007192D02*
X006338Y007192D01*
X006338Y007094D02*
X006162Y007094D01*
X006196Y006995D02*
X006338Y006995D01*
X006338Y006897D02*
X005738Y006897D01*
X005638Y006897D02*
X001688Y006897D01*
X001688Y006995D02*
X005179Y006995D01*
X005213Y007094D02*
X001688Y007094D01*
X001688Y007192D02*
X005271Y007192D01*
X005368Y007291D02*
X001688Y007291D01*
X001688Y007389D02*
X005414Y007389D01*
X005245Y007488D02*
X001688Y007488D01*
X001688Y007586D02*
X005146Y007586D01*
X005106Y007685D02*
X001688Y007685D01*
X001688Y007783D02*
X005068Y007783D01*
X005068Y007882D02*
X001688Y007882D01*
X001688Y007980D02*
X005068Y007980D01*
X005107Y008079D02*
X001688Y008079D01*
X001688Y008177D02*
X005149Y008177D01*
X005248Y008276D02*
X001688Y008276D01*
X001688Y008374D02*
X005421Y008374D01*
X005360Y008473D02*
X001725Y008473D01*
X001228Y008965D02*
X000778Y008965D01*
X000778Y008867D02*
X001129Y008867D01*
X001037Y008768D02*
X000778Y008768D01*
X000778Y008670D02*
X000996Y008670D01*
X000988Y008571D02*
X000778Y008571D01*
X000778Y008473D02*
X000988Y008473D01*
X000988Y008374D02*
X000778Y008374D01*
X000778Y008276D02*
X000988Y008276D01*
X000988Y008177D02*
X000778Y008177D01*
X000778Y008079D02*
X000988Y008079D01*
X000988Y007980D02*
X000778Y007980D01*
X000778Y007882D02*
X000988Y007882D01*
X000988Y007783D02*
X000778Y007783D01*
X000778Y007685D02*
X000988Y007685D01*
X000988Y007586D02*
X000778Y007586D01*
X000778Y007488D02*
X000988Y007488D01*
X000988Y007389D02*
X000778Y007389D01*
X000778Y007291D02*
X000988Y007291D01*
X000988Y007192D02*
X000778Y007192D01*
X000778Y007094D02*
X000988Y007094D01*
X000988Y006995D02*
X000778Y006995D01*
X000778Y006897D02*
X000988Y006897D01*
X000988Y006798D02*
X000778Y006798D01*
X000778Y006700D02*
X000988Y006700D01*
X000988Y006601D02*
X000778Y006601D01*
X000778Y006503D02*
X000988Y006503D01*
X000988Y006404D02*
X000778Y006404D01*
X000778Y006306D02*
X000988Y006306D01*
X000988Y006207D02*
X000778Y006207D01*
X000778Y006109D02*
X000988Y006109D01*
X000988Y006010D02*
X000778Y006010D01*
X000778Y005912D02*
X000988Y005912D01*
X000988Y005813D02*
X000778Y005813D01*
X000778Y005715D02*
X000988Y005715D01*
X000988Y005616D02*
X000778Y005616D01*
X000778Y005518D02*
X000988Y005518D01*
X000988Y005419D02*
X000778Y005419D01*
X000778Y005321D02*
X000988Y005321D01*
X000988Y005222D02*
X000778Y005222D01*
X000778Y005124D02*
X000988Y005124D01*
X000988Y005025D02*
X000778Y005025D01*
X000778Y004927D02*
X000988Y004927D01*
X000988Y004828D02*
X000778Y004828D01*
X000778Y004730D02*
X000988Y004730D01*
X000988Y004631D02*
X000778Y004631D01*
X000778Y004533D02*
X000988Y004533D01*
X000988Y004434D02*
X000778Y004434D01*
X000778Y004336D02*
X000988Y004336D01*
X000988Y004237D02*
X000778Y004237D01*
X000778Y004139D02*
X000988Y004139D01*
X000988Y004040D02*
X000778Y004040D01*
X000778Y003942D02*
X000988Y003942D01*
X000988Y003843D02*
X000778Y003843D01*
X000778Y003745D02*
X000988Y003745D01*
X000988Y003646D02*
X000778Y003646D01*
X000778Y003548D02*
X000988Y003548D01*
X001013Y003449D02*
X000778Y003449D01*
X000778Y003351D02*
X001072Y003351D01*
X001171Y003252D02*
X000778Y003252D01*
X000778Y003154D02*
X001269Y003154D01*
X001368Y003055D02*
X000778Y003055D01*
X000778Y002957D02*
X001466Y002957D01*
X001565Y002858D02*
X000778Y002858D01*
X000778Y002760D02*
X001697Y002760D01*
X000778Y002661D02*
X002718Y002661D01*
X002817Y002563D02*
X000778Y002563D01*
X000778Y002464D02*
X002915Y002464D01*
X002975Y002404D02*
X002975Y002404D01*
X003014Y002366D02*
X000778Y002366D01*
X000778Y002267D02*
X003912Y002267D01*
X004363Y002267D02*
X004508Y002267D01*
X004508Y002169D02*
X000778Y002169D01*
X000778Y002070D02*
X004508Y002070D01*
X004508Y001972D02*
X000778Y001972D01*
X000778Y001873D02*
X004508Y001873D01*
X004508Y001775D02*
X000778Y001775D01*
X000778Y001676D02*
X004469Y001676D01*
X004453Y001637D02*
X004453Y001523D01*
X004496Y001419D01*
X004576Y001338D01*
X004681Y001295D01*
X004794Y001295D01*
X004899Y001338D01*
X004979Y001419D01*
X005023Y001523D01*
X005023Y001637D01*
X004979Y001741D01*
X004968Y001753D01*
X004968Y002407D01*
X004979Y002419D01*
X005023Y002523D01*
X005023Y002637D01*
X004979Y002741D01*
X004899Y002822D01*
X004794Y002865D01*
X004681Y002865D01*
X004576Y002822D01*
X004496Y002741D01*
X004453Y002637D01*
X004453Y002523D01*
X004496Y002419D01*
X004508Y002407D01*
X004508Y001753D01*
X004496Y001741D01*
X004453Y001637D01*
X004453Y001578D02*
X000778Y001578D01*
X000778Y001479D02*
X004471Y001479D01*
X004534Y001381D02*
X000778Y001381D01*
X000778Y001282D02*
X006338Y001282D01*
X006338Y001184D02*
X000778Y001184D01*
X000778Y001085D02*
X006338Y001085D01*
X006338Y000987D02*
X000778Y000987D01*
X000778Y000888D02*
X006338Y000888D01*
X006338Y000790D02*
X000778Y000790D01*
X000778Y000691D02*
X006338Y000691D01*
X006338Y000593D02*
X000778Y000593D01*
X000778Y000580D02*
X000778Y009580D01*
X006338Y009580D01*
X006338Y000580D01*
X000778Y000580D01*
X004426Y002366D02*
X004508Y002366D01*
X004477Y002464D02*
X004448Y002464D01*
X004439Y002563D02*
X004453Y002563D01*
X004463Y002661D02*
X004395Y002661D01*
X004296Y002760D02*
X004514Y002760D01*
X004664Y002858D02*
X004176Y002858D01*
X004811Y002858D02*
X006338Y002858D01*
X006338Y002760D02*
X004961Y002760D01*
X005012Y002661D02*
X006338Y002661D01*
X006338Y002563D02*
X005023Y002563D01*
X004998Y002464D02*
X006338Y002464D01*
X006338Y002366D02*
X004968Y002366D01*
X004968Y002267D02*
X006338Y002267D01*
X006338Y002169D02*
X004968Y002169D01*
X004968Y002070D02*
X006338Y002070D01*
X006338Y001972D02*
X004968Y001972D01*
X004968Y001873D02*
X006338Y001873D01*
X006338Y001775D02*
X004968Y001775D01*
X005006Y001676D02*
X006338Y001676D01*
X006338Y001578D02*
X005023Y001578D01*
X005004Y001479D02*
X006338Y001479D01*
X006338Y001381D02*
X004941Y001381D01*
X006338Y002957D02*
X003299Y002957D01*
X003201Y003055D02*
X006338Y003055D01*
X006338Y003154D02*
X003102Y003154D01*
X003045Y003252D02*
X006338Y003252D01*
X006338Y003351D02*
X002962Y003351D01*
X001964Y003449D02*
X006338Y003449D01*
X006338Y003548D02*
X001865Y003548D01*
X001767Y003646D02*
X006338Y003646D01*
X006338Y003745D02*
X001688Y003745D01*
X001688Y003843D02*
X006338Y003843D01*
X006338Y003942D02*
X001688Y003942D01*
X001688Y004040D02*
X006338Y004040D01*
X006338Y004139D02*
X001688Y004139D01*
X001688Y004237D02*
X006338Y004237D01*
X006338Y004336D02*
X001688Y004336D01*
X001688Y004434D02*
X005405Y004434D01*
X005300Y004533D02*
X001688Y004533D01*
X001688Y004631D02*
X005228Y004631D01*
X005187Y004730D02*
X001688Y004730D01*
X001688Y004828D02*
X005168Y004828D01*
X005168Y004927D02*
X001688Y004927D01*
X001688Y005025D02*
X005185Y005025D01*
X005226Y005124D02*
X001688Y005124D01*
X001688Y005222D02*
X005294Y005222D01*
X005393Y005321D02*
X001688Y005321D01*
X001688Y005419D02*
X005342Y005419D01*
X005215Y005518D02*
X001688Y005518D01*
X001688Y005616D02*
X005134Y005616D01*
X005093Y005715D02*
X001688Y005715D01*
X001688Y005813D02*
X005068Y005813D01*
X005068Y005912D02*
X001688Y005912D01*
X001688Y006010D02*
X005079Y006010D01*
X005119Y006109D02*
X001688Y006109D01*
X001688Y006207D02*
X005179Y006207D01*
X005278Y006306D02*
X001688Y006306D01*
X001688Y006404D02*
X005476Y006404D01*
X005484Y006400D02*
X005484Y006400D01*
X005330Y006503D02*
X001688Y006503D01*
X001688Y006601D02*
X005247Y006601D01*
X005199Y006700D02*
X001688Y006700D01*
X001688Y006798D02*
X005174Y006798D01*
X005899Y006404D02*
X006338Y006404D01*
X006338Y006306D02*
X005897Y006306D01*
X005996Y006207D02*
X006338Y006207D01*
X006338Y006109D02*
X006056Y006109D01*
X006097Y006010D02*
X006338Y006010D01*
X006338Y005912D02*
X006108Y005912D01*
X006108Y005813D02*
X006338Y005813D01*
X006338Y005715D02*
X006082Y005715D01*
X006041Y005616D02*
X006338Y005616D01*
X006338Y005518D02*
X005960Y005518D01*
X005833Y005419D02*
X006338Y005419D01*
X006338Y005321D02*
X005982Y005321D01*
X006081Y005222D02*
X006338Y005222D01*
X006338Y005124D02*
X006150Y005124D01*
X006190Y005025D02*
X006338Y005025D01*
X006338Y004927D02*
X006208Y004927D01*
X006208Y004828D02*
X006338Y004828D01*
X006338Y004730D02*
X006188Y004730D01*
X006147Y004631D02*
X006338Y004631D01*
X006338Y004533D02*
X006075Y004533D01*
X005970Y004434D02*
X006338Y004434D01*
X006338Y006503D02*
X006045Y006503D01*
X006128Y006601D02*
X006338Y006601D01*
X006338Y006700D02*
X006176Y006700D01*
X006201Y006798D02*
X006338Y006798D01*
X006338Y007586D02*
X006029Y007586D01*
X006069Y007685D02*
X006338Y007685D01*
X006338Y007783D02*
X006108Y007783D01*
X006108Y007882D02*
X006338Y007882D01*
X006338Y007980D02*
X006108Y007980D01*
X006068Y008079D02*
X006338Y008079D01*
X006338Y008177D02*
X006026Y008177D01*
X005927Y008276D02*
X006338Y008276D01*
X006338Y008374D02*
X005825Y008374D01*
X006015Y008473D02*
X006338Y008473D01*
X006338Y008571D02*
X006114Y008571D01*
X006163Y008670D02*
X006338Y008670D01*
X006338Y008768D02*
X006204Y008768D01*
X006208Y008867D02*
X006338Y008867D01*
X006338Y008965D02*
X006208Y008965D01*
X006174Y009064D02*
X006338Y009064D01*
X006338Y009162D02*
X006134Y009162D01*
X006042Y009261D02*
X006338Y009261D01*
X006338Y009359D02*
X005890Y009359D01*
X005485Y009359D02*
X000778Y009359D01*
X000778Y009261D02*
X005333Y009261D01*
X006128Y009900D02*
X006128Y018500D01*
X000778Y018500D01*
X000778Y009900D01*
X006128Y009900D01*
X006128Y009950D02*
X000778Y009950D01*
X000778Y010049D02*
X006128Y010049D01*
X006128Y010147D02*
X000778Y010147D01*
X000778Y010246D02*
X006128Y010246D01*
X006128Y010344D02*
X000778Y010344D01*
X000778Y010443D02*
X006128Y010443D01*
X006128Y010541D02*
X000778Y010541D01*
X000778Y010640D02*
X006128Y010640D01*
X006128Y010738D02*
X000778Y010738D01*
X000778Y010837D02*
X006128Y010837D01*
X006128Y010935D02*
X000778Y010935D01*
X000778Y011034D02*
X006128Y011034D01*
X006128Y011132D02*
X000778Y011132D01*
X000778Y011231D02*
X006128Y011231D01*
X006128Y011329D02*
X000778Y011329D01*
X000778Y011428D02*
X006128Y011428D01*
X006128Y011526D02*
X000778Y011526D01*
X000778Y011625D02*
X006128Y011625D01*
X006128Y011723D02*
X000778Y011723D01*
X000778Y011822D02*
X006128Y011822D01*
X006128Y011920D02*
X000778Y011920D01*
X000778Y012019D02*
X006128Y012019D01*
X006128Y012117D02*
X000778Y012117D01*
X000778Y012216D02*
X006128Y012216D01*
X006128Y012314D02*
X000778Y012314D01*
X000778Y012413D02*
X006128Y012413D01*
X006128Y012511D02*
X000778Y012511D01*
X000778Y012610D02*
X006128Y012610D01*
X006128Y012708D02*
X000778Y012708D01*
X000778Y012807D02*
X006128Y012807D01*
X006128Y012905D02*
X000778Y012905D01*
X000778Y013004D02*
X006128Y013004D01*
X006128Y013102D02*
X000778Y013102D01*
X000778Y013201D02*
X006128Y013201D01*
X006128Y013299D02*
X000778Y013299D01*
X000778Y013398D02*
X006128Y013398D01*
X006128Y013496D02*
X000778Y013496D01*
X000778Y013595D02*
X006128Y013595D01*
X006128Y013693D02*
X000778Y013693D01*
X000778Y013792D02*
X006128Y013792D01*
X006128Y013890D02*
X000778Y013890D01*
X000778Y013989D02*
X006128Y013989D01*
X006128Y014087D02*
X000778Y014087D01*
X000778Y014186D02*
X006128Y014186D01*
X006128Y014284D02*
X000778Y014284D01*
X000778Y014383D02*
X006128Y014383D01*
X006128Y014481D02*
X000778Y014481D01*
X000778Y014580D02*
X006128Y014580D01*
X006128Y014678D02*
X000778Y014678D01*
X000778Y014777D02*
X006128Y014777D01*
X006128Y014875D02*
X000778Y014875D01*
X000778Y014974D02*
X006128Y014974D01*
X006128Y015072D02*
X000778Y015072D01*
X000778Y015171D02*
X006128Y015171D01*
X006128Y015269D02*
X000778Y015269D01*
X000778Y015368D02*
X006128Y015368D01*
X006128Y015466D02*
X000778Y015466D01*
X000778Y015565D02*
X006128Y015565D01*
X006128Y015663D02*
X000778Y015663D01*
X000778Y015762D02*
X006128Y015762D01*
X006128Y015860D02*
X000778Y015860D01*
X000778Y015959D02*
X006128Y015959D01*
X006128Y016057D02*
X000778Y016057D01*
X000778Y016156D02*
X006128Y016156D01*
X006128Y016254D02*
X000778Y016254D01*
X000778Y016353D02*
X006128Y016353D01*
X006128Y016451D02*
X000778Y016451D01*
X000778Y016550D02*
X006128Y016550D01*
X006128Y016648D02*
X002761Y016648D01*
X002693Y016620D02*
X002869Y016693D01*
X003004Y016828D01*
X003078Y017005D01*
X003078Y017195D01*
X003004Y017372D01*
X002869Y017507D01*
X002693Y017580D01*
X002502Y017580D01*
X002326Y017507D01*
X002191Y017372D01*
X002118Y017195D01*
X002118Y017005D01*
X002191Y016828D01*
X002326Y016693D01*
X002502Y016620D01*
X002693Y016620D01*
X002434Y016648D02*
X001716Y016648D01*
X001730Y016655D02*
X001796Y016703D01*
X001854Y016761D01*
X001902Y016827D01*
X001939Y016900D01*
X001965Y016978D01*
X001976Y017050D01*
X001508Y017050D01*
X001508Y017150D01*
X001976Y017150D01*
X001965Y017222D01*
X001939Y017300D01*
X001902Y017373D01*
X001854Y017439D01*
X001796Y017497D01*
X001730Y017545D01*
X001657Y017582D01*
X001579Y017607D01*
X001508Y017619D01*
X001508Y017150D01*
X001408Y017150D01*
X001408Y017619D01*
X001336Y017607D01*
X001258Y017582D01*
X001185Y017545D01*
X001119Y017497D01*
X001061Y017439D01*
X001013Y017373D01*
X000976Y017300D01*
X000950Y017222D01*
X000939Y017150D01*
X001408Y017150D01*
X001408Y017050D01*
X001508Y017050D01*
X001508Y016581D01*
X001579Y016593D01*
X001657Y016618D01*
X001730Y016655D01*
X001839Y016747D02*
X002272Y016747D01*
X002184Y016845D02*
X001911Y016845D01*
X001953Y016944D02*
X002143Y016944D01*
X002118Y017042D02*
X001975Y017042D01*
X002118Y017141D02*
X001508Y017141D01*
X001508Y017239D02*
X001408Y017239D01*
X001408Y017141D02*
X000778Y017141D01*
X000778Y017239D02*
X000956Y017239D01*
X000995Y017338D02*
X000778Y017338D01*
X000778Y017436D02*
X001059Y017436D01*
X001171Y017535D02*
X000778Y017535D01*
X000778Y017633D02*
X006128Y017633D01*
X006128Y017535D02*
X002803Y017535D01*
X002940Y017436D02*
X006128Y017436D01*
X006128Y017338D02*
X003019Y017338D01*
X003060Y017239D02*
X006128Y017239D01*
X006128Y017141D02*
X003078Y017141D01*
X003078Y017042D02*
X006128Y017042D01*
X006128Y016944D02*
X003052Y016944D01*
X003011Y016845D02*
X006128Y016845D01*
X006128Y016747D02*
X002923Y016747D01*
X002136Y017239D02*
X001959Y017239D01*
X001920Y017338D02*
X002176Y017338D01*
X002255Y017436D02*
X001856Y017436D01*
X001744Y017535D02*
X002392Y017535D01*
X001508Y017535D02*
X001408Y017535D01*
X001408Y017436D02*
X001508Y017436D01*
X001508Y017338D02*
X001408Y017338D01*
X001408Y017050D02*
X000939Y017050D01*
X000950Y016978D01*
X000976Y016900D01*
X001013Y016827D01*
X001061Y016761D01*
X001119Y016703D01*
X001185Y016655D01*
X001258Y016618D01*
X001336Y016593D01*
X001408Y016581D01*
X001408Y017050D01*
X001408Y017042D02*
X001508Y017042D01*
X001508Y016944D02*
X001408Y016944D01*
X001408Y016845D02*
X001508Y016845D01*
X001508Y016747D02*
X001408Y016747D01*
X001408Y016648D02*
X001508Y016648D01*
X001199Y016648D02*
X000778Y016648D01*
X000778Y016747D02*
X001076Y016747D01*
X001004Y016845D02*
X000778Y016845D01*
X000778Y016944D02*
X000962Y016944D01*
X000940Y017042D02*
X000778Y017042D01*
X000778Y017732D02*
X006128Y017732D01*
X006128Y017830D02*
X000778Y017830D01*
X000778Y017929D02*
X006128Y017929D01*
X006128Y018027D02*
X000778Y018027D01*
X000778Y018126D02*
X006128Y018126D01*
X006128Y018224D02*
X000778Y018224D01*
X000778Y018323D02*
X006128Y018323D01*
X006128Y018421D02*
X000778Y018421D01*
X006728Y018224D02*
X011866Y018224D01*
X009928Y016500D02*
X009728Y016700D01*
X009228Y016700D01*
X007946Y017338D02*
X007593Y017338D01*
X007772Y017535D02*
X006728Y017535D01*
X006728Y017633D02*
X007772Y017633D01*
X007772Y017732D02*
X006728Y017732D01*
X006728Y017830D02*
X007772Y017830D01*
X007812Y017929D02*
X006728Y017929D01*
X006728Y018027D02*
X007911Y018027D01*
X008009Y018126D02*
X006728Y018126D01*
X006728Y017436D02*
X007848Y017436D01*
X007262Y017338D02*
X006728Y017338D01*
X007628Y016057D02*
X007941Y016057D01*
X007842Y015959D02*
X007628Y015959D01*
X007628Y015860D02*
X007772Y015860D01*
X007772Y015762D02*
X007628Y015762D01*
X011328Y014087D02*
X011428Y014087D01*
X011428Y013989D02*
X011328Y013989D01*
X011328Y013890D02*
X011428Y013890D01*
X011428Y013792D02*
X011328Y013792D01*
X011328Y013693D02*
X011428Y013693D01*
X011428Y013595D02*
X011328Y013595D01*
X011328Y013496D02*
X011428Y013496D01*
X011428Y013398D02*
X011328Y013398D01*
X011328Y013299D02*
X011428Y013299D01*
X011428Y013201D02*
X011328Y013201D01*
X011328Y013102D02*
X011428Y013102D01*
X011428Y013004D02*
X011328Y013004D01*
X011328Y012905D02*
X011363Y012905D01*
X011343Y012807D02*
X011328Y012807D01*
X011328Y012708D02*
X011357Y012708D01*
X011328Y012610D02*
X011415Y012610D01*
X011336Y012511D02*
X011328Y012511D01*
X006338Y009556D02*
X000778Y009556D01*
X000778Y009458D02*
X006338Y009458D01*
X001425Y009162D02*
X000778Y009162D01*
X000778Y009064D02*
X001326Y009064D01*
X017340Y008473D02*
X018715Y008473D01*
X018616Y008374D02*
X018339Y008374D01*
X018437Y008276D02*
X018558Y008276D01*
X018517Y008177D02*
X018496Y008177D01*
X018521Y007783D02*
X018575Y007783D01*
X018658Y007685D02*
X018480Y007685D01*
X018399Y007586D02*
X018789Y007586D01*
X018270Y007488D02*
X019785Y007488D01*
X019656Y007586D02*
X019266Y007586D01*
X019397Y007685D02*
X019575Y007685D01*
X019534Y007783D02*
X019480Y007783D01*
X019538Y008177D02*
X019559Y008177D01*
X019618Y008276D02*
X019497Y008276D01*
X019439Y008374D02*
X019716Y008374D01*
X019340Y008473D02*
X020715Y008473D01*
X020616Y008374D02*
X020339Y008374D01*
X020437Y008276D02*
X020558Y008276D01*
X020517Y008177D02*
X020496Y008177D01*
X020521Y007783D02*
X020575Y007783D01*
X020658Y007685D02*
X020480Y007685D01*
X020399Y007586D02*
X020789Y007586D01*
X020270Y007488D02*
X022628Y007488D01*
X022628Y007586D02*
X021266Y007586D01*
X021397Y007685D02*
X022628Y007685D01*
X022628Y007783D02*
X021480Y007783D01*
X021521Y007882D02*
X022628Y007882D01*
X022628Y007980D02*
X021548Y007980D01*
X021548Y008079D02*
X022628Y008079D01*
X022628Y008177D02*
X021538Y008177D01*
X021497Y008276D02*
X022628Y008276D01*
X022628Y008374D02*
X021439Y008374D01*
X021340Y008473D02*
X022628Y008473D01*
X024334Y007172D02*
X024408Y006995D01*
X024364Y006700D02*
X026668Y006700D01*
X026428Y006200D02*
X026428Y005300D01*
X026728Y005000D01*
X027128Y005000D01*
X026953Y004828D02*
X026202Y004828D01*
X026262Y004927D02*
X026575Y004927D01*
X026476Y005025D02*
X026273Y005025D01*
X026242Y005124D02*
X026378Y005124D01*
X026279Y005222D02*
X026188Y005222D01*
X026188Y005321D02*
X026268Y005321D01*
X026268Y005419D02*
X026188Y005419D01*
X026188Y005518D02*
X026268Y005518D01*
X026268Y005616D02*
X026188Y005616D01*
X026188Y005715D02*
X026268Y005715D01*
X026268Y005813D02*
X026188Y005813D01*
X026256Y005912D02*
X026268Y005912D01*
X026028Y006000D02*
X026028Y005000D01*
X025853Y004828D02*
X024408Y004828D01*
X024408Y004927D02*
X025793Y004927D01*
X025783Y005025D02*
X024395Y005025D01*
X024355Y005124D02*
X025814Y005124D01*
X025868Y005222D02*
X024284Y005222D01*
X024167Y005321D02*
X025868Y005321D01*
X025373Y006109D02*
X024261Y006109D01*
X024199Y006207D02*
X025301Y006207D01*
X025283Y006306D02*
X024101Y006306D01*
X023456Y006207D02*
X023328Y006207D01*
X023328Y006109D02*
X023394Y006109D01*
X023354Y006010D02*
X023328Y006010D01*
X023328Y005912D02*
X023348Y005912D01*
X023348Y005813D02*
X023328Y005813D01*
X023328Y005715D02*
X023385Y005715D01*
X023433Y005616D02*
X023328Y005616D01*
X023328Y005518D02*
X023531Y005518D01*
X025028Y004100D02*
X025028Y003300D01*
X032224Y001282D02*
X032238Y001282D01*
X017716Y008374D02*
X017439Y008374D01*
X017497Y008276D02*
X017618Y008276D01*
X017559Y008177D02*
X017538Y008177D01*
D15*
X017128Y010500D02*
X016928Y010700D01*
X016928Y010900D01*
X016628Y010600D01*
X014128Y010600D01*
X011728Y010600D01*
X010928Y011400D01*
X010928Y017000D01*
X010228Y017700D01*
X009228Y017700D01*
X016228Y015200D02*
X016528Y015200D01*
X016928Y014800D01*
X016928Y012200D01*
X016928Y010900D01*
D16*
X020228Y003500D02*
X020228Y001150D01*
X020428Y000950D01*
D17*
X019428Y001000D02*
X019428Y001050D01*
X019428Y001600D01*
X018928Y002100D01*
X017928Y002100D01*
X017328Y002700D01*
X017328Y003800D01*
X020328Y004600D02*
X020328Y005100D01*
X020928Y005700D01*
X005688Y008880D02*
X001638Y008880D01*
X001338Y008580D01*
X001338Y003580D01*
X001838Y003080D01*
X002738Y003080D01*
D18*
X015628Y003109D02*
X017023Y003109D01*
X017023Y003021D02*
X015628Y003021D01*
X015628Y002932D02*
X017023Y002932D01*
X017023Y002844D02*
X015628Y002844D01*
X015628Y002755D02*
X017023Y002755D01*
X017023Y002667D02*
X015628Y002667D01*
X015628Y002578D02*
X017048Y002578D01*
X017069Y002527D02*
X017155Y002441D01*
X017755Y001841D01*
X017867Y001795D01*
X018801Y001795D01*
X019123Y001474D01*
X019123Y001417D01*
X019025Y001319D01*
X018953Y001144D01*
X018953Y000956D01*
X019025Y000781D01*
X019158Y000647D01*
X019333Y000575D01*
X019522Y000575D01*
X019697Y000647D01*
X019830Y000781D01*
X019903Y000956D01*
X019903Y001144D01*
X019830Y001319D01*
X019733Y001417D01*
X019733Y001661D01*
X019686Y001773D01*
X019186Y002273D01*
X019100Y002359D01*
X018988Y002405D01*
X018054Y002405D01*
X017633Y002826D01*
X017633Y003861D01*
X017586Y003973D01*
X017500Y004059D01*
X017388Y004105D01*
X017267Y004105D01*
X017155Y004059D01*
X017069Y003973D01*
X017023Y003861D01*
X017023Y002639D01*
X017069Y002527D01*
X017107Y002490D02*
X015628Y002490D01*
X015628Y002401D02*
X017195Y002401D01*
X017284Y002313D02*
X015628Y002313D01*
X015628Y002224D02*
X017372Y002224D01*
X017461Y002136D02*
X015628Y002136D01*
X015628Y002047D02*
X017549Y002047D01*
X017638Y001959D02*
X015628Y001959D01*
X015628Y001870D02*
X017726Y001870D01*
X017544Y001516D02*
X019080Y001516D01*
X019123Y001428D02*
X017722Y001428D01*
X017697Y001453D02*
X017522Y001525D01*
X017333Y001525D01*
X017158Y001453D01*
X017025Y001319D01*
X016953Y001144D01*
X016953Y000956D01*
X017025Y000781D01*
X017158Y000647D01*
X017333Y000575D01*
X017522Y000575D01*
X017697Y000647D01*
X017830Y000781D01*
X017903Y000956D01*
X017903Y001144D01*
X017830Y001319D01*
X017697Y001453D01*
X017810Y001339D02*
X018145Y001339D01*
X018158Y001353D02*
X018025Y001219D01*
X017953Y001044D01*
X017953Y000856D01*
X018025Y000681D01*
X018158Y000547D01*
X018273Y000500D01*
X016582Y000500D01*
X016697Y000547D01*
X016830Y000681D01*
X016903Y000856D01*
X016903Y001044D01*
X016830Y001219D01*
X016697Y001353D01*
X016522Y001425D01*
X016333Y001425D01*
X016158Y001353D01*
X016025Y001219D01*
X015953Y001044D01*
X015953Y000856D01*
X016025Y000681D01*
X016158Y000547D01*
X016273Y000500D01*
X015628Y000500D01*
X015628Y006600D01*
X022528Y006600D01*
X022528Y006155D01*
X022480Y006269D01*
X022347Y006403D01*
X022172Y006475D01*
X021983Y006475D01*
X021808Y006403D01*
X021675Y006269D01*
X021603Y006094D01*
X021603Y005906D01*
X021675Y005731D01*
X021808Y005597D01*
X021983Y005525D01*
X022172Y005525D01*
X022347Y005597D01*
X022480Y005731D01*
X022528Y005845D01*
X022528Y004155D01*
X022480Y004269D01*
X022347Y004403D01*
X022172Y004475D01*
X021983Y004475D01*
X021808Y004403D01*
X021675Y004269D01*
X021603Y004094D01*
X021603Y003906D01*
X021675Y003731D01*
X021808Y003597D01*
X021983Y003525D01*
X022172Y003525D01*
X022347Y003597D01*
X022480Y003731D01*
X022528Y003845D01*
X022528Y002251D01*
X022518Y002270D01*
X022470Y002335D01*
X022413Y002393D01*
X022347Y002440D01*
X022275Y002477D01*
X022198Y002502D01*
X022123Y002514D01*
X022123Y002045D01*
X022033Y002045D01*
X022033Y002514D01*
X021957Y002502D01*
X021880Y002477D01*
X021808Y002440D01*
X021742Y002393D01*
X021685Y002335D01*
X021637Y002270D01*
X021600Y002198D01*
X021575Y002121D01*
X021563Y002045D01*
X022033Y002045D01*
X022033Y001955D01*
X022123Y001955D01*
X022123Y001486D01*
X022198Y001498D01*
X022275Y001523D01*
X022347Y001560D01*
X022413Y001607D01*
X022470Y001664D01*
X022518Y001730D01*
X022528Y001749D01*
X022528Y000500D01*
X020582Y000500D01*
X020697Y000547D01*
X020830Y000681D01*
X020903Y000856D01*
X020903Y001044D01*
X020830Y001219D01*
X020697Y001353D01*
X020522Y001425D01*
X020373Y001425D01*
X020373Y003306D01*
X020431Y003364D01*
X020468Y003452D01*
X020468Y003548D01*
X020431Y003636D01*
X020363Y003703D01*
X020275Y003740D01*
X020180Y003740D01*
X020092Y003703D01*
X020024Y003636D01*
X019988Y003548D01*
X019988Y003452D01*
X020024Y003364D01*
X020083Y003306D01*
X020083Y001277D01*
X020025Y001219D01*
X019953Y001044D01*
X019953Y000856D01*
X020025Y000681D01*
X020158Y000547D01*
X020273Y000500D01*
X018582Y000500D01*
X018697Y000547D01*
X018830Y000681D01*
X018903Y000856D01*
X018903Y001044D01*
X018830Y001219D01*
X018697Y001353D01*
X018522Y001425D01*
X018333Y001425D01*
X018158Y001353D01*
X018056Y001251D02*
X017859Y001251D01*
X017895Y001162D02*
X018001Y001162D01*
X017965Y001074D02*
X017903Y001074D01*
X017903Y000985D02*
X017953Y000985D01*
X017953Y000897D02*
X017878Y000897D01*
X017841Y000808D02*
X017972Y000808D01*
X018009Y000720D02*
X017769Y000720D01*
X017657Y000631D02*
X018075Y000631D01*
X018170Y000543D02*
X016685Y000543D01*
X016780Y000631D02*
X017198Y000631D01*
X017086Y000720D02*
X016846Y000720D01*
X016883Y000808D02*
X017014Y000808D01*
X016977Y000897D02*
X016903Y000897D01*
X016903Y000985D02*
X016953Y000985D01*
X016953Y001074D02*
X016891Y001074D01*
X016854Y001162D02*
X016960Y001162D01*
X016996Y001251D02*
X016799Y001251D01*
X016710Y001339D02*
X017045Y001339D01*
X017133Y001428D02*
X015628Y001428D01*
X015628Y001516D02*
X017311Y001516D01*
X016145Y001339D02*
X015628Y001339D01*
X015628Y001251D02*
X016056Y001251D01*
X016001Y001162D02*
X015628Y001162D01*
X015628Y001074D02*
X015965Y001074D01*
X015953Y000985D02*
X015628Y000985D01*
X015628Y000897D02*
X015953Y000897D01*
X015972Y000808D02*
X015628Y000808D01*
X015628Y000720D02*
X016009Y000720D01*
X016075Y000631D02*
X015628Y000631D01*
X015628Y000543D02*
X016170Y000543D01*
X015628Y001605D02*
X018992Y001605D01*
X018903Y001693D02*
X015628Y001693D01*
X015628Y001782D02*
X018815Y001782D01*
X018710Y001339D02*
X019045Y001339D01*
X018996Y001251D02*
X018799Y001251D01*
X018854Y001162D02*
X018960Y001162D01*
X018953Y001074D02*
X018891Y001074D01*
X018903Y000985D02*
X018953Y000985D01*
X018977Y000897D02*
X018903Y000897D01*
X018883Y000808D02*
X019014Y000808D01*
X019086Y000720D02*
X018846Y000720D01*
X018780Y000631D02*
X019198Y000631D01*
X019657Y000631D02*
X020075Y000631D01*
X020009Y000720D02*
X019769Y000720D01*
X019841Y000808D02*
X019972Y000808D01*
X019953Y000897D02*
X019878Y000897D01*
X019903Y000985D02*
X019953Y000985D01*
X019965Y001074D02*
X019903Y001074D01*
X019895Y001162D02*
X020001Y001162D01*
X020056Y001251D02*
X019859Y001251D01*
X019810Y001339D02*
X020083Y001339D01*
X020083Y001428D02*
X019733Y001428D01*
X019733Y001516D02*
X020083Y001516D01*
X020083Y001605D02*
X019733Y001605D01*
X019719Y001693D02*
X020083Y001693D01*
X020083Y001782D02*
X019677Y001782D01*
X019589Y001870D02*
X020083Y001870D01*
X020083Y001959D02*
X019500Y001959D01*
X019412Y002047D02*
X020083Y002047D01*
X020083Y002136D02*
X019323Y002136D01*
X019235Y002224D02*
X020083Y002224D01*
X020083Y002313D02*
X019146Y002313D01*
X018998Y002401D02*
X020083Y002401D01*
X020083Y002490D02*
X017969Y002490D01*
X017881Y002578D02*
X020083Y002578D01*
X020083Y002667D02*
X017792Y002667D01*
X017704Y002755D02*
X020083Y002755D01*
X020083Y002844D02*
X017633Y002844D01*
X017633Y002932D02*
X020083Y002932D01*
X020083Y003021D02*
X017633Y003021D01*
X017633Y003109D02*
X020083Y003109D01*
X020083Y003198D02*
X017633Y003198D01*
X017633Y003286D02*
X020083Y003286D01*
X020020Y003375D02*
X017633Y003375D01*
X017633Y003463D02*
X019988Y003463D01*
X019989Y003552D02*
X017633Y003552D01*
X017633Y003640D02*
X020028Y003640D01*
X020152Y003729D02*
X017633Y003729D01*
X017633Y003817D02*
X021639Y003817D01*
X021603Y003906D02*
X017614Y003906D01*
X017565Y003994D02*
X021603Y003994D01*
X021603Y004083D02*
X017443Y004083D01*
X017213Y004083D02*
X015628Y004083D01*
X015628Y004171D02*
X021634Y004171D01*
X021671Y004260D02*
X015628Y004260D01*
X015628Y004348D02*
X020148Y004348D01*
X020155Y004341D02*
X020267Y004295D01*
X020388Y004295D01*
X020500Y004341D01*
X020586Y004427D01*
X020633Y004539D01*
X020633Y004974D01*
X021186Y005527D01*
X021233Y005639D01*
X021233Y005761D01*
X021186Y005873D01*
X021100Y005959D01*
X020988Y006005D01*
X020867Y006005D01*
X020755Y005959D01*
X020155Y005359D01*
X020155Y005359D01*
X020069Y005273D01*
X020023Y005161D01*
X020023Y004539D01*
X020069Y004427D01*
X020155Y004341D01*
X020065Y004437D02*
X015628Y004437D01*
X015628Y004525D02*
X020028Y004525D01*
X020023Y004614D02*
X015628Y004614D01*
X015628Y004702D02*
X020023Y004702D01*
X020023Y004791D02*
X015628Y004791D01*
X015628Y004879D02*
X020023Y004879D01*
X020023Y004968D02*
X015628Y004968D01*
X015628Y005056D02*
X020023Y005056D01*
X020023Y005145D02*
X015628Y005145D01*
X015628Y005233D02*
X020053Y005233D01*
X020118Y005322D02*
X015628Y005322D01*
X015628Y005410D02*
X020206Y005410D01*
X020295Y005499D02*
X017579Y005499D01*
X017522Y005475D02*
X017697Y005547D01*
X017830Y005681D01*
X017903Y005856D01*
X017903Y006044D01*
X017830Y006219D01*
X017697Y006353D01*
X017522Y006425D01*
X017333Y006425D01*
X017158Y006353D01*
X017025Y006219D01*
X016953Y006044D01*
X016953Y005856D01*
X017025Y005681D01*
X017158Y005547D01*
X017333Y005475D01*
X017522Y005475D01*
X017736Y005587D02*
X018304Y005587D01*
X018333Y005575D02*
X018522Y005575D01*
X018697Y005647D01*
X018830Y005781D01*
X018903Y005956D01*
X018903Y006144D01*
X018830Y006319D01*
X018697Y006453D01*
X018522Y006525D01*
X018333Y006525D01*
X018158Y006453D01*
X018025Y006319D01*
X017953Y006144D01*
X017953Y005956D01*
X018025Y005781D01*
X018158Y005647D01*
X018333Y005575D01*
X018551Y005587D02*
X020383Y005587D01*
X020472Y005676D02*
X018725Y005676D01*
X018813Y005764D02*
X020560Y005764D01*
X020649Y005853D02*
X018860Y005853D01*
X018897Y005941D02*
X020737Y005941D01*
X021118Y005941D02*
X021603Y005941D01*
X021603Y006030D02*
X018903Y006030D01*
X018903Y006118D02*
X021612Y006118D01*
X021649Y006207D02*
X018877Y006207D01*
X018840Y006295D02*
X021701Y006295D01*
X021789Y006384D02*
X018766Y006384D01*
X018650Y006472D02*
X021976Y006472D01*
X022179Y006472D02*
X022528Y006472D01*
X022528Y006384D02*
X022366Y006384D01*
X022454Y006295D02*
X022528Y006295D01*
X022528Y006207D02*
X022506Y006207D01*
X022528Y006561D02*
X015628Y006561D01*
X015628Y006472D02*
X016205Y006472D01*
X016158Y006453D02*
X016025Y006319D01*
X015953Y006144D01*
X015953Y005956D01*
X016025Y005781D01*
X016158Y005647D01*
X016333Y005575D01*
X016522Y005575D01*
X016697Y005647D01*
X016830Y005781D01*
X016903Y005956D01*
X016903Y006144D01*
X016830Y006319D01*
X016697Y006453D01*
X016522Y006525D01*
X016333Y006525D01*
X016158Y006453D01*
X016089Y006384D02*
X015628Y006384D01*
X015628Y006295D02*
X016015Y006295D01*
X015978Y006207D02*
X015628Y006207D01*
X015628Y006118D02*
X015953Y006118D01*
X015953Y006030D02*
X015628Y006030D01*
X015628Y005941D02*
X015959Y005941D01*
X015995Y005853D02*
X015628Y005853D01*
X015628Y005764D02*
X016042Y005764D01*
X016130Y005676D02*
X015628Y005676D01*
X015628Y005587D02*
X016304Y005587D01*
X016551Y005587D02*
X017119Y005587D01*
X017030Y005676D02*
X016725Y005676D01*
X016813Y005764D02*
X016990Y005764D01*
X016954Y005853D02*
X016860Y005853D01*
X016897Y005941D02*
X016953Y005941D01*
X016953Y006030D02*
X016903Y006030D01*
X016903Y006118D02*
X016983Y006118D01*
X017020Y006207D02*
X016877Y006207D01*
X016840Y006295D02*
X017101Y006295D01*
X017233Y006384D02*
X016766Y006384D01*
X016650Y006472D02*
X018205Y006472D01*
X018089Y006384D02*
X017622Y006384D01*
X017754Y006295D02*
X018015Y006295D01*
X017978Y006207D02*
X017835Y006207D01*
X017872Y006118D02*
X017953Y006118D01*
X017953Y006030D02*
X017903Y006030D01*
X017903Y005941D02*
X017959Y005941D01*
X017995Y005853D02*
X017901Y005853D01*
X017865Y005764D02*
X018042Y005764D01*
X018130Y005676D02*
X017825Y005676D01*
X017276Y005499D02*
X015628Y005499D01*
X015628Y003994D02*
X017090Y003994D01*
X017041Y003906D02*
X015628Y003906D01*
X015628Y003817D02*
X017023Y003817D01*
X017023Y003729D02*
X015628Y003729D01*
X015628Y003640D02*
X017023Y003640D01*
X017023Y003552D02*
X015628Y003552D01*
X015628Y003463D02*
X017023Y003463D01*
X017023Y003375D02*
X015628Y003375D01*
X015628Y003286D02*
X017023Y003286D01*
X017023Y003198D02*
X015628Y003198D01*
X018685Y000543D02*
X020170Y000543D01*
X020685Y000543D02*
X022528Y000543D01*
X022528Y000631D02*
X020780Y000631D01*
X020846Y000720D02*
X022528Y000720D01*
X022528Y000808D02*
X020883Y000808D01*
X020903Y000897D02*
X022528Y000897D01*
X022528Y000985D02*
X020903Y000985D01*
X020891Y001074D02*
X022528Y001074D01*
X022528Y001162D02*
X020854Y001162D01*
X020799Y001251D02*
X022528Y001251D01*
X022528Y001339D02*
X020710Y001339D01*
X020373Y001428D02*
X022528Y001428D01*
X022528Y001516D02*
X022255Y001516D01*
X022123Y001516D02*
X022033Y001516D01*
X022033Y001486D02*
X022033Y001955D01*
X021563Y001955D01*
X021575Y001879D01*
X021600Y001802D01*
X021637Y001730D01*
X021685Y001664D01*
X021742Y001607D01*
X021808Y001560D01*
X021880Y001523D01*
X021957Y001498D01*
X022033Y001486D01*
X022033Y001605D02*
X022123Y001605D01*
X022123Y001693D02*
X022033Y001693D01*
X022033Y001782D02*
X022123Y001782D01*
X022123Y001870D02*
X022033Y001870D01*
X022033Y001959D02*
X020373Y001959D01*
X020373Y002047D02*
X021564Y002047D01*
X021580Y002136D02*
X020373Y002136D01*
X020373Y002224D02*
X021614Y002224D01*
X021668Y002313D02*
X020373Y002313D01*
X020373Y002401D02*
X021753Y002401D01*
X021755Y002578D02*
X020373Y002578D01*
X020373Y002490D02*
X021918Y002490D01*
X021883Y002525D02*
X022072Y002525D01*
X022247Y002597D01*
X022380Y002731D01*
X022453Y002906D01*
X022453Y003094D01*
X022380Y003269D01*
X022247Y003403D01*
X022072Y003475D01*
X021883Y003475D01*
X021708Y003403D01*
X021575Y003269D01*
X021503Y003094D01*
X021503Y002906D01*
X021575Y002731D01*
X021708Y002597D01*
X021883Y002525D01*
X022033Y002490D02*
X022123Y002490D01*
X022123Y002401D02*
X022033Y002401D01*
X022033Y002313D02*
X022123Y002313D01*
X022123Y002224D02*
X022033Y002224D01*
X022033Y002136D02*
X022123Y002136D01*
X022123Y002047D02*
X022033Y002047D01*
X021578Y001870D02*
X020373Y001870D01*
X020373Y001782D02*
X021611Y001782D01*
X021664Y001693D02*
X020373Y001693D01*
X020373Y001605D02*
X021746Y001605D01*
X021901Y001516D02*
X020373Y001516D01*
X020373Y002667D02*
X021639Y002667D01*
X021565Y002755D02*
X020373Y002755D01*
X020373Y002844D02*
X021528Y002844D01*
X021503Y002932D02*
X020373Y002932D01*
X020373Y003021D02*
X021503Y003021D01*
X021509Y003109D02*
X020373Y003109D01*
X020373Y003198D02*
X021545Y003198D01*
X021592Y003286D02*
X020373Y003286D01*
X020435Y003375D02*
X021680Y003375D01*
X021854Y003463D02*
X020468Y003463D01*
X020466Y003552D02*
X021919Y003552D01*
X021766Y003640D02*
X020427Y003640D01*
X020303Y003729D02*
X021677Y003729D01*
X022101Y003463D02*
X022528Y003463D01*
X022528Y003375D02*
X022275Y003375D01*
X022363Y003286D02*
X022528Y003286D01*
X022528Y003198D02*
X022410Y003198D01*
X022447Y003109D02*
X022528Y003109D01*
X022528Y003021D02*
X022453Y003021D01*
X022453Y002932D02*
X022528Y002932D01*
X022528Y002844D02*
X022427Y002844D01*
X022390Y002755D02*
X022528Y002755D01*
X022528Y002667D02*
X022316Y002667D01*
X022200Y002578D02*
X022528Y002578D01*
X022528Y002490D02*
X022238Y002490D01*
X022402Y002401D02*
X022528Y002401D01*
X022528Y002313D02*
X022487Y002313D01*
X022491Y001693D02*
X022528Y001693D01*
X022528Y001605D02*
X022409Y001605D01*
X022528Y003552D02*
X022236Y003552D01*
X022389Y003640D02*
X022528Y003640D01*
X022528Y003729D02*
X022478Y003729D01*
X022516Y003817D02*
X022528Y003817D01*
X022521Y004171D02*
X022528Y004171D01*
X022528Y004260D02*
X022484Y004260D01*
X022528Y004348D02*
X022401Y004348D01*
X022528Y004437D02*
X022265Y004437D01*
X022247Y004597D02*
X022380Y004731D01*
X022453Y004906D01*
X022453Y005094D01*
X022380Y005269D01*
X022247Y005403D01*
X022072Y005475D01*
X021883Y005475D01*
X021708Y005403D01*
X021575Y005269D01*
X021503Y005094D01*
X021503Y004906D01*
X021575Y004731D01*
X021708Y004597D01*
X021883Y004525D01*
X020627Y004525D01*
X020633Y004614D02*
X021692Y004614D01*
X021604Y004702D02*
X020633Y004702D01*
X020633Y004791D02*
X021550Y004791D01*
X021514Y004879D02*
X020633Y004879D01*
X020633Y004968D02*
X021503Y004968D01*
X021503Y005056D02*
X020715Y005056D01*
X020803Y005145D02*
X021523Y005145D01*
X021560Y005233D02*
X020892Y005233D01*
X020980Y005322D02*
X021627Y005322D01*
X021726Y005410D02*
X021069Y005410D01*
X021157Y005499D02*
X022528Y005499D01*
X022528Y005587D02*
X022322Y005587D01*
X022425Y005676D02*
X022528Y005676D01*
X022528Y005764D02*
X022494Y005764D01*
X022528Y005410D02*
X022229Y005410D01*
X022328Y005322D02*
X022528Y005322D01*
X022528Y005233D02*
X022395Y005233D01*
X022432Y005145D02*
X022528Y005145D01*
X022528Y005056D02*
X022453Y005056D01*
X022453Y004968D02*
X022528Y004968D01*
X022528Y004879D02*
X022442Y004879D01*
X022405Y004791D02*
X022528Y004791D01*
X022528Y004702D02*
X022351Y004702D01*
X022263Y004614D02*
X022528Y004614D01*
X022528Y004525D02*
X022072Y004525D01*
X022247Y004597D01*
X022072Y004525D02*
X021883Y004525D01*
X021890Y004437D02*
X020590Y004437D01*
X020507Y004348D02*
X021754Y004348D01*
X021833Y005587D02*
X021211Y005587D01*
X021233Y005676D02*
X021730Y005676D01*
X021661Y005764D02*
X021231Y005764D01*
X021195Y005853D02*
X021625Y005853D01*
D19*
X004738Y002580D02*
X004738Y001580D01*
D20*
X004138Y002480D02*
X004038Y002580D01*
X003238Y002580D01*
X002738Y003080D01*
X011728Y014200D02*
X012228Y014700D01*
X012228Y017850D01*
X025628Y014500D02*
X025628Y012700D01*
X025728Y012600D01*
X025628Y014500D02*
X026118Y014990D01*
X026942Y014990D01*
X027382Y015430D01*
X028028Y015430D01*
X028028Y015460D01*
X028628Y016060D01*
X028623Y016065D01*
X028628Y016060D02*
X028788Y015900D01*
X029328Y015900D01*
X028028Y015430D02*
X028028Y015400D01*
M02*
