%
M48
M72
T01C0.0150
T02C0.0374
T03C0.0400
%
T01
X1238Y780
X4138Y2480
X4738Y2580
X6038Y2780
X6038Y2180
X6038Y1580
X5438Y1580
X4738Y1580
X4838Y980
X5438Y980
X6038Y980
X2738Y3080
X2738Y4280
X2438Y4880
X1938Y4480
X3238Y4880
X3238Y5580
X2438Y5580
X4938Y6380
X4838Y7330
X3638Y7480
X2838Y7480
X2038Y7480
X4838Y8330
X7228Y8200
X7728Y8200
X8228Y8200
X8728Y8200
X8728Y7700
X8228Y7700
X7728Y7700
X7228Y7700
X7228Y8700
X7728Y8700
X8228Y8700
X8728Y8700
X8728Y9200
X8228Y9200
X7728Y9200
X7728Y9700
X7228Y9700
X7228Y9200
X7228Y10200
X7228Y10700
X7428Y11600
X8728Y11800
X9488Y11920
X10138Y11920
X9628Y12500
X9258Y13040
X9258Y14240
X8228Y14500
X6998Y14440
X6998Y14950
X6988Y15460
X6988Y15950
X6988Y16450
X6978Y16950
X7428Y17100
X6978Y17960
X7408Y18250
X4728Y16900
X3128Y15900
X5428Y14300
X3028Y11800
X2828Y11100
X3428Y10600
X4628Y10600
X5228Y11200
X5828Y10600
X8828Y10300
X11828Y9400
X13128Y9600
X13728Y9800
X14128Y10600
X13128Y11400
X12628Y11400
X11528Y12300
X11628Y12800
X13978Y12950
X14478Y12950
X14978Y12950
X15478Y12950
X15478Y12450
X14978Y12450
X14478Y12450
X13978Y12450
X13978Y13450
X14478Y13450
X14978Y13450
X15478Y13450
X15478Y13950
X14978Y13950
X14478Y13950
X13978Y13950
X13028Y14400
X13478Y15200
X13818Y16590
X16228Y15950
X16228Y15200
X18538Y14280
X18988Y14720
X20008Y15580
X20428Y16010
X21128Y16070
X20548Y16540
X19968Y16540
X19978Y17450
X19228Y17450
X19228Y18200
X19978Y18200
X20728Y18200
X21478Y18200
X23528Y18300
X24028Y18300
X24028Y17900
X23528Y17900
X23528Y17400
X24028Y17400
X24528Y17400
X25028Y17400
X25528Y17400
X25528Y17900
X26028Y17900
X26028Y18300
X25528Y18300
X25028Y18300
X24528Y18300
X24528Y17900
X25028Y17900
X25528Y16900
X26528Y17900
X27028Y17900
X27028Y18300
X26528Y18300
X27528Y18300
X28028Y18300
X28028Y17900
X27528Y17900
X28528Y17900
X29028Y17900
X29028Y18300
X28528Y18300
X29528Y18300
X29528Y17900
X29528Y17200
X29528Y16300
X29328Y15900
X28623Y16065
X28018Y15420
X26942Y14990
X27828Y14400
X28328Y14400
X28828Y14400
X28828Y13900
X28828Y13400
X28328Y13400
X27828Y13400
X27828Y13900
X28328Y13900
X26328Y12700
X25728Y12600
X23528Y12900
X23528Y13400
X23528Y13900
X23528Y14400
X24228Y14700
X24728Y14700
X25228Y14700
X23528Y14900
X23528Y15400
X23528Y15900
X23528Y16400
X23528Y16900
X24028Y16900
X21108Y15080
X21228Y13950
X20728Y13950
X20228Y13950
X16928Y12200
X16328Y11800
X17128Y10500
X15758Y9190
X15188Y9190
X15158Y9830
X19408Y8640
X20288Y8960
X21728Y8700
X22228Y8700
X22228Y8200
X22228Y7700
X25328Y7200
X25528Y6300
X26028Y6000
X26028Y5000
X27128Y5000
X27528Y4300
X27878Y3900
X27528Y3560
X28228Y3550
X28228Y4300
X28728Y5000
X25028Y4100
X25028Y3300
X22128Y1200
X21628Y1200
X21628Y800
X22128Y800
X21128Y800
X21128Y1200
X21128Y1600
X21128Y2800
X20228Y3500
X19328Y3600
X19328Y3100
X18828Y3100
X18328Y3100
X18328Y3600
X18828Y3600
X18828Y4100
X18328Y4100
X19328Y4100
X20328Y4600
X20928Y5700
X17328Y3800
X15828Y5500
X15828Y1600
X16328Y1600
X6038Y3380
X6038Y3980
X1238Y9380
X1228Y12400
X1928Y18100
X26128Y10400
X26428Y10100
X27328Y10100
X27928Y10200
X27928Y10700
X28028Y11300
X26428Y11200
X26428Y10700
X28928Y10200
X31028Y10000
X31528Y10000
X32028Y10000
X32028Y10500
X31528Y10500
X31028Y10500
X31028Y11000
X31528Y11000
X32028Y11000
X32028Y11500
X31528Y11500
X31528Y12000
X32028Y12000
X32028Y12500
X31528Y12500
X31528Y13000
X32028Y13000
X32028Y13500
X31528Y13500
X31028Y13500
X31028Y14000
X31528Y14000
X32028Y14000
X32028Y14500
X31528Y14500
X31028Y14500
X31028Y15000
X31528Y15000
X32028Y15000
X29428Y12600
X31028Y11500
T02
X8228Y17700
X9228Y17700
X9228Y16700
X8228Y16700
X8228Y15700
X9228Y15700
T03
X1458Y17100
X2598Y17100
X12228Y17850
X13228Y17750
X14228Y17850
X15228Y17750
X16228Y17850
X17228Y17750
X18228Y17850
X22078Y17600
X21978Y16600
X22078Y15600
X21978Y14600
X22078Y13600
X21978Y12600
X22078Y11600
X21978Y10600
X22078Y9600
X23728Y9250
X24728Y9150
X25728Y9250
X26728Y9150
X27728Y9250
X28728Y9150
X29728Y9250
X30728Y9150
X31728Y9250
X31928Y6900
X31828Y5900
X31928Y4900
X31828Y3900
X31928Y2900
X31828Y1900
X31928Y900
X23928Y900
X23828Y1900
X22078Y2000
X21978Y3000
X22078Y4000
X23828Y3900
X23928Y2900
X23928Y4900
X23828Y5900
X22078Y6000
X21978Y5000
X23928Y6900
X21028Y8050
X20028Y7950
X19028Y8050
X18028Y7950
X17028Y8050
X16428Y6050
X17428Y5950
X18428Y6050
X19428Y1050
X20428Y950
X18428Y950
X17428Y1050
X16428Y950
X5688Y4880
X5588Y5880
X5688Y6880
X5588Y7880
X5688Y8880
M30
